<svg width="20" height="20" viewBox="0 0 20 20" fill="none" xmlns="http://www.w3.org/2000/svg">
<path fill-rule="evenodd" clip-rule="evenodd" d="M15.7149 10.9524H10.953V15.7143C10.953 16.2381 10.5245 16.6667 10.0007 16.6667C9.47684 16.6667 9.04827 16.2381 9.04827 15.7143V10.9524H4.28637C3.76256 10.9524 3.33398 10.5238 3.33398 10C3.33398 9.4762 3.76256 9.04763 4.28637 9.04763H9.04827V4.28572C9.04827 3.76191 9.47684 3.33334 10.0007 3.33334C10.5245 3.33334 10.953 3.76191 10.953 4.28572V9.04763H15.7149C16.2387 9.04763 16.6673 9.4762 16.6673 10C16.6673 10.5238 16.2387 10.9524 15.7149 10.9524Z" fill="#3C4043"/>
</svg>
