<svg width="19" height="19" viewBox="0 0 19 19" fill="none" xmlns="http://www.w3.org/2000/svg">
<path d="M7.24881 16.444V14.0162C7.2488 13.3987 7.75223 12.8969 8.37598 12.8927H10.6608C11.2875 12.8927 11.7956 13.3957 11.7956 14.0162V14.0162V16.4515C11.7954 16.9758 12.2181 17.4044 12.7476 17.4166H14.2708C15.7892 17.4166 17.0202 16.198 17.0202 14.6948V14.6948V7.78827C17.0121 7.19688 16.7316 6.64155 16.2586 6.2803L11.0492 2.12584C10.1366 1.40247 8.83926 1.40247 7.92664 2.12584L2.74012 6.28784C2.2653 6.64762 1.98436 7.20388 1.97852 7.79581V14.6948C1.97852 16.198 3.20946 17.4166 4.7279 17.4166H6.25111C6.79371 17.4166 7.23358 16.9812 7.23358 16.444V16.444" stroke="#7C1BF3" stroke-width="1.5" stroke-linecap="round" stroke-linejoin="round"/>
</svg>
