<svg width="53" height="39" viewBox="0 0 53 39" fill="none" xmlns="http://www.w3.org/2000/svg">
<path d="M51.989 15.5416C52.4266 15.6102 52.6665 15.6838 52.6184 15.79L52.6184 15.7952C52.5942 15.8378 52.5316 15.8834 52.4278 15.9374C52.3568 15.9726 52.2694 16.0106 52.1627 16.0514C51.9576 16.1304 51.6949 16.218 51.4048 16.3139C50.8247 16.5056 50.1927 16.7243 49.6077 16.9662C42.6069 19.895 40.1862 24.8981 41.8615 31.918C41.9977 32.5048 42.2023 33.0618 42.3383 33.6327C42.4666 34.2486 42.5438 34.7332 42.2342 34.7976C41.9714 34.8773 41.2587 34.3265 40.9362 34.0111C39.2352 32.3903 36.6072 30.4377 33.8854 30.5153C31.2705 30.56 29.6692 32.8802 28.7741 34.9809C28.4288 35.7344 28.1686 36.487 27.9058 37.2448C27.7278 37.7562 27.407 38.491 27.0746 38.495C26.768 38.5884 26.1107 38.0712 25.7473 37.7853C25.2618 37.3927 24.6549 36.9594 24.0012 36.5213C23.3254 36.0651 22.6083 35.604 21.963 35.179C21.1212 34.6324 20.3452 34.0771 19.4507 33.7105C16.5404 32.5027 13.4798 34.1017 11.0263 35.6881C10.5109 36.011 10.0205 36.3573 9.51322 36.6642C8.82028 37.071 8.38219 37.195 8.49659 36.4284C8.5658 36.0159 8.73289 35.5178 8.87333 35.0887C9.52788 33.0912 9.91663 31.1523 10.0316 29.2959C10.0562 28.826 10.0772 28.29 9.9045 27.8647C9.18258 25.8653 3.50307 27.6357 1.88034 27.9455C-1.11283 28.5251 1.11686 27.0575 2.17149 26.3429C4.13076 25.0052 11.187 19.3842 10.7452 16.6875C10.459 15.0523 7.76768 13.549 6.2629 12.9312C5.90111 12.7746 5.43707 12.5691 5.14354 12.3774C5.00776 12.2814 4.8998 12.2141 4.83222 12.0777C4.71937 11.6041 6.24171 11.628 6.714 11.6064C12.6911 11.5054 19.8424 9.66718 22.457 3.66165C22.773 2.97706 22.9908 2.35698 23.1948 1.73443C23.306 1.38742 23.8063 -0.193917 24.2335 0.60838C24.3831 0.941694 24.4248 1.43199 24.4574 1.85907C24.5118 2.72655 24.5115 3.61579 24.6839 4.46866C25.1343 7.18902 27.1208 9.48715 30.0611 9.76046C33.7595 10.0246 37.4123 8.77739 40.8296 7.60422C41.4261 7.39913 42.0388 7.17802 42.6244 6.98098C43.0653 6.85956 43.5873 6.63162 43.9819 6.77991C44.4666 7.10391 43.2381 8.43543 42.8928 8.96469C42.5117 9.48119 42.1281 10.0241 41.8516 10.5657C41.3305 11.5562 41.0832 12.9155 42.008 13.7435C42.5998 14.2878 43.5528 14.4901 44.6322 14.6935C45.7722 14.904 46.9388 15.043 48.0886 15.1638C49.3624 15.3041 50.7672 15.3848 51.9891 15.5495L51.989 15.5416ZM49.4234 16.4908C49.5982 16.4095 49.7538 16.3232 49.7309 16.2522C49.7309 16.2469 49.7308 16.2443 49.7253 16.2391C49.7225 16.2339 49.7169 16.2286 49.7086 16.2235C49.7031 16.2183 49.6975 16.213 49.6864 16.2079C49.6671 16.1976 49.6422 16.1873 49.6091 16.1772C49.5761 16.167 49.532 16.157 49.4797 16.1497C48.9102 16.0853 48.2971 16.0452 47.6701 16L47.6344 16.0004C46.2869 15.8926 44.8705 15.7725 43.6573 15.4098C43.5966 15.392 43.5359 15.3716 43.478 15.3539C43.4201 15.3361 43.3622 15.313 43.3015 15.2927C42.5647 15.0245 41.9035 14.6472 41.3777 14.0994C41.2524 13.9637 41.138 13.8173 41.04 13.6628C41.0148 13.6235 40.9923 13.5868 40.9699 13.5449C40.953 13.5161 40.9362 13.4873 40.9221 13.4558C40.9192 13.4479 40.9137 13.44 40.9108 13.4348C40.8968 13.4059 40.8799 13.3771 40.8658 13.3456C40.5922 12.7578 40.5266 12.1016 40.6559 11.4272C40.7338 11.0542 40.8748 10.6751 41.0435 10.309C41.0434 10.301 41.0488 10.2931 41.0515 10.2851C41.0596 10.2718 41.0649 10.2559 41.0729 10.2426C41.0943 10.187 41.1237 10.1233 41.1504 10.0596C41.1558 10.0464 41.1638 10.0331 41.1719 10.0172C41.4131 9.51817 41.8109 8.78246 41.3563 8.67711C41.3453 8.6746 41.3343 8.6721 41.3232 8.66959C41.3232 8.66959 41.3232 8.66959 41.3177 8.66966C41.1828 8.64226 40.9879 8.66043 40.7086 8.73768C40.7059 8.73772 40.7032 8.73775 40.7004 8.73778C40.3634 8.81572 39.9995 8.94149 39.6683 9.04575C38.8334 9.29857 37.9848 9.55419 37.1331 9.77818C37.0454 9.80035 36.9578 9.82251 36.8729 9.84465C36.3497 9.97233 35.8236 10.0895 35.2973 10.1882C34.7298 10.2927 34.173 10.368 33.6187 10.4221C33.5912 10.4225 33.5638 10.4281 33.5364 10.431C33.4458 10.4401 33.3525 10.4465 33.2619 10.4555C32.8474 10.4868 32.4356 10.5076 32.0154 10.5233C31.782 10.5313 31.5513 10.542 31.3179 10.5501C30.9691 10.557 30.6174 10.5586 30.2603 10.5629L30.2493 10.563C30.2493 10.563 30.2356 10.5632 30.2274 10.5633C30.0542 10.5574 29.881 10.5463 29.7077 10.5273C29.6747 10.5251 29.6416 10.5202 29.6086 10.5153C29.094 10.445 28.6005 10.2979 28.1254 10.0925C28.0702 10.0694 28.0122 10.0437 27.9569 10.018C27.9459 10.0129 27.9348 10.0077 27.9266 10.0052C27.8879 9.98718 27.8492 9.96918 27.8132 9.9485C27.7829 9.93567 27.7524 9.91757 27.722 9.9021C27.675 9.87628 27.628 9.8531 27.581 9.82728C27.534 9.80146 27.487 9.77563 27.4399 9.74718C26.787 9.37243 26.1824 8.89683 25.6321 8.37572L25.6182 8.36269C25.3458 8.1021 25.0925 7.82809 24.8529 7.54863C24.825 7.51467 24.7971 7.4807 24.7692 7.44409C24.7608 7.43364 24.7524 7.42318 24.7441 7.41273C24.7217 7.38397 24.6994 7.35258 24.6743 7.32385C24.4229 6.98121 24.1932 6.61456 24.002 6.25272C23.9317 6.11636 23.8668 5.97729 23.8047 5.83291C23.7538 5.71742 23.7059 5.61245 23.658 5.51803C23.6496 5.5023 23.6411 5.48393 23.6354 5.46816C23.5424 5.27402 23.4502 5.1432 23.3586 5.06514C23.3197 5.0313 23.2782 5.00542 23.234 4.99012C23.2258 4.98758 23.2202 4.98501 23.212 4.98247C23.2065 4.97989 23.2009 4.97732 23.1927 4.97742C23.1844 4.97752 23.1762 4.97498 23.1652 4.97248C23.1431 4.9701 23.1212 4.97037 23.0965 4.9733C23.0855 4.97344 23.0772 4.97353 23.0691 4.97891C23.0581 4.97904 23.0471 4.98181 23.0362 4.98722C23.0143 4.99276 22.9924 5.00094 22.9678 5.01179C22.8968 5.04431 22.8204 5.09273 22.7416 5.15965C22.7008 5.19444 22.6545 5.23458 22.6084 5.27999C22.5921 5.29338 22.5785 5.30938 22.5622 5.32541C22.4971 5.38952 22.432 5.45891 22.3614 5.53365C22.3479 5.54964 22.3343 5.56564 22.3235 5.57896C22.3181 5.5843 22.3127 5.59229 22.3073 5.59763C22.0307 5.89913 21.7433 6.22452 21.4504 6.53941C21.426 6.56609 21.4016 6.59277 21.3745 6.61949C20.9593 7.04668 20.5192 7.46362 20.0679 7.86222L20.0625 7.86757C19.69 8.1887 19.3036 8.50208 18.9171 8.80491C18.8409 8.86388 18.762 8.92552 18.6858 8.98449C18.6776 8.99251 18.6695 8.99788 18.6613 9.00326C18.2367 9.33293 17.8228 9.64401 17.3894 9.92893C17.3676 9.94503 17.3458 9.95848 17.3212 9.97197C16.6505 10.3943 15.9486 10.7458 15.1991 11.0187C15.1854 11.0215 15.1717 11.027 15.1581 11.0324C14.6081 11.2185 14.0411 11.3625 13.4683 11.4802C13.4628 11.4803 13.4601 11.4803 13.4546 11.4804C13.3696 11.4972 13.2819 11.5141 13.1969 11.531C13.1202 11.5451 13.0407 11.5619 12.964 11.576C12.6953 11.6268 12.4239 11.6722 12.1496 11.7125C11.9741 11.7383 11.7986 11.7642 11.6203 11.7875C11.5325 11.7991 11.442 11.8107 11.3542 11.8223C11.2307 11.837 11.1073 11.8543 10.9839 11.869C10.4791 11.9279 9.9714 11.9788 9.47477 12.0323C9.46927 12.0324 9.46378 12.0325 9.46103 12.0325C9.38967 12.0386 9.31835 12.0474 9.24699 12.0535C9.21952 12.0539 9.19211 12.0595 9.16193 12.0625C9.15643 12.0625 9.15094 12.0626 9.1427 12.0627C9.10973 12.0631 9.07958 12.0687 9.0494 12.0718C8.7668 12.1042 8.50629 12.1443 8.3092 12.2047C8.30645 12.2047 8.30096 12.2048 8.29821 12.2048C8.15582 12.2435 8.05197 12.2896 8.0114 12.3428C7.99511 12.3589 7.9816 12.3775 7.9708 12.3935C7.96 12.4094 7.95198 12.428 7.94668 12.4439C7.94403 12.4518 7.94135 12.4572 7.94144 12.4651C7.9362 12.4862 7.93649 12.51 7.9423 12.5363C7.94252 12.5548 7.94824 12.5732 7.9567 12.5915C7.99649 12.7019 8.10499 12.814 8.23815 12.9206C8.28255 12.957 8.32969 12.9934 8.3768 13.0271C8.39345 13.0401 8.41005 13.0505 8.42669 13.0635C8.51814 13.1284 8.60952 13.1879 8.69263 13.245C8.73693 13.2735 8.78127 13.3046 8.82282 13.3331C8.8339 13.3409 8.84499 13.3487 8.85329 13.3539C8.8616 13.3591 8.8699 13.3642 8.87549 13.3721C9.09438 13.5251 9.31604 13.6808 9.53503 13.8417C9.55167 13.8547 9.56831 13.8677 9.58492 13.8781C9.93425 14.1404 10.2727 14.4134 10.5893 14.6972C10.6421 14.744 10.6921 14.7883 10.7394 14.8352C10.7561 14.8535 10.7727 14.8691 10.7922 14.8874C10.9841 15.0777 11.1623 15.2787 11.327 15.4905C11.3828 15.5663 11.4305 15.6449 11.4754 15.7235C11.6664 16.0748 11.7395 16.4407 11.7303 16.8129C11.7303 16.8129 11.7303 16.8155 11.7303 16.8182C11.7172 17.0927 11.6575 17.3837 11.5624 17.6989C11.4376 18.0619 11.2907 18.4146 11.1218 18.7597C11.1219 18.7649 11.1164 18.7703 11.1111 18.7783C10.9634 19.0677 10.8019 19.3467 10.654 19.6097C10.1447 20.4338 9.54662 21.1904 8.89027 21.8976C8.84146 21.9509 8.78993 22.007 8.73838 22.0604C8.68682 22.1138 8.63526 22.1672 8.5837 22.2205C7.89155 22.9202 7.14662 23.573 6.39014 24.1785C6.37382 24.1919 6.3575 24.2053 6.34114 24.216C6.25135 24.2884 6.16152 24.358 6.0717 24.4277C5.96012 24.5162 5.84577 24.602 5.73141 24.6878L5.7178 24.6985C5.69059 24.7199 5.66337 24.7414 5.63337 24.7602C5.57073 24.8058 5.50809 24.8514 5.44545 24.8971C5.28478 25.0151 5.12133 25.1305 4.95787 25.246C4.89795 25.2889 4.83802 25.3318 4.77807 25.3721C4.7726 25.3748 4.76989 25.3775 4.76446 25.3829C4.74267 25.399 4.72085 25.4124 4.69907 25.4285C4.69089 25.4339 4.68 25.4419 4.67185 25.4499C4.66093 25.4554 4.65278 25.4634 4.64464 25.4714C4.62557 25.4848 4.60375 25.4983 4.58471 25.5143C4.552 25.5358 4.51933 25.56 4.48936 25.5814C4.26598 25.7398 4.00721 25.925 3.92377 26.0685C3.92106 26.0712 3.91837 26.0765 3.91841 26.0791C3.89956 26.111 3.88889 26.1375 3.88917 26.1613C3.88955 26.1929 3.9091 26.2191 3.94507 26.2398C3.94507 26.2398 3.94781 26.2397 3.95056 26.2397C3.96158 26.2422 3.96988 26.2474 3.9809 26.2499C3.9947 26.255 4.01125 26.2601 4.02776 26.2625C4.03878 26.265 4.0498 26.2675 4.06082 26.27C4.06632 26.27 4.07184 26.2725 4.07734 26.2725C4.10762 26.2774 4.13515 26.2823 4.16811 26.2819C4.25611 26.2888 4.34948 26.285 4.4401 26.2813C4.7614 26.2695 5.22236 26.2191 5.71078 26.1684C6.08948 26.1321 6.48189 26.0931 6.83609 26.0756C6.85532 26.0754 6.87455 26.0752 6.89653 26.0749C7.14101 26.072 7.39635 26.0583 7.65457 26.0552C7.93751 26.0518 8.22061 26.0616 8.49016 26.0874C8.56165 26.0918 8.63042 26.0989 8.69925 26.1112C8.71299 26.1111 8.72679 26.1162 8.74055 26.1187C9.00765 26.1682 9.26142 26.2522 9.49388 26.3919C9.74583 26.5525 9.94635 26.777 10.1035 27.0548C10.1064 27.0601 10.1092 27.0679 10.1148 27.0732C10.2075 27.2462 10.2867 27.4379 10.3551 27.6402C10.3665 27.6744 10.378 27.7112 10.3894 27.7454C10.4008 27.7795 10.4094 27.8164 10.4209 27.8532C10.4381 27.911 10.4525 27.9715 10.467 28.0294C10.5046 28.1899 10.5368 28.3505 10.5662 28.5111C10.5691 28.5242 10.572 28.54 10.5722 28.5532C10.5869 28.6349 10.5989 28.7165 10.6109 28.8008C10.617 28.8509 10.623 28.8983 10.6291 28.9457C10.6564 29.1591 10.6726 29.3674 10.6859 29.5546C10.6925 29.6468 10.6963 29.7365 10.7002 29.8288C10.7086 30.0741 10.7089 30.3222 10.7036 30.5676C10.7018 30.6442 10.7 30.7234 10.6954 30.7999C10.6936 30.8765 10.6863 30.9557 10.6845 31.0323C10.6799 31.1088 10.6753 31.1881 10.668 31.2647C10.6633 31.3254 10.6585 31.3835 10.6537 31.4443L10.6463 31.5156C10.6121 31.867 10.5641 32.2185 10.5078 32.5648C10.5054 32.5913 10.5002 32.6177 10.495 32.6415C10.4329 32.9589 10.3603 33.3134 10.3228 33.6226C10.3228 33.6278 10.3229 33.6331 10.323 33.6384C10.2977 33.8208 10.2861 34.0003 10.3127 34.1531C10.3248 34.2426 10.3503 34.3136 10.3894 34.3659C10.3895 34.3685 10.3923 34.3737 10.395 34.3764C10.4062 34.3868 10.4173 34.3972 10.4284 34.4076C10.4284 34.4076 10.4339 34.4102 10.4367 34.4128C10.4616 34.431 10.492 34.4438 10.5278 34.446C10.5305 34.446 10.536 34.4459 10.5387 34.4459C10.5718 34.4534 10.6103 34.4529 10.6541 34.4445C10.6953 34.4413 10.7391 34.4303 10.7884 34.4165C10.9007 34.3861 11.0347 34.3343 11.1877 34.2639C11.1986 34.2585 11.2095 34.2531 11.2205 34.2503C11.4363 34.1501 11.6547 34.034 11.8158 33.9502C11.9469 33.8827 12.078 33.8178 12.2118 33.7528C13.1871 33.2978 14.2375 32.9104 15.3036 32.6944C15.3584 32.6832 15.4132 32.672 15.4681 32.6634C16.4056 32.4938 17.3558 32.4586 18.2863 32.6163C18.2918 32.6162 18.2973 32.6161 18.3028 32.6187C18.7297 32.698 19.1487 32.8196 19.5574 32.9941C19.6044 33.0147 19.6513 33.0352 19.6983 33.0584C19.7867 33.0996 19.8752 33.1433 19.9637 33.1898C20.1047 33.2646 20.2457 33.3421 20.3841 33.4222C20.4532 33.4636 20.5252 33.5049 20.5944 33.5463C20.6635 33.5877 20.7328 33.6317 20.8047 33.6757C21.1535 33.8932 21.5052 34.1238 21.8679 34.3543C22.0119 34.4475 22.1586 34.5381 22.308 34.6287L22.5848 34.7995C22.9972 35.0531 23.4179 35.3066 23.8304 35.5629L24.0379 35.6897C24.2013 35.7933 24.3619 35.8969 24.5225 36.0005C24.564 36.0264 24.6028 36.0523 24.6443 36.0782C24.7246 36.13 24.8049 36.1844 24.8825 36.2363C24.9739 36.2985 25.0653 36.3581 25.1539 36.4177C25.2287 36.4696 25.3007 36.5162 25.3727 36.5629C25.4752 36.6302 25.5721 36.6924 25.6662 36.7493C25.6994 36.77 25.7353 36.7907 25.7685 36.8088C25.9622 36.9225 26.1363 37.0049 26.2906 37.0426C26.3154 37.0502 26.3374 37.0526 26.3595 37.0576C26.3815 37.0626 26.4063 37.065 26.4283 37.0673C26.4448 37.0671 26.4613 37.0696 26.4805 37.0667C26.5079 37.0664 26.5354 37.066 26.5629 37.0657C26.7439 37.0424 26.8826 36.9246 26.9984 36.7253C27.1224 36.5286 27.2342 36.237 27.3393 35.8346C27.3392 35.8241 27.3445 35.8135 27.3499 35.8028C27.4213 35.5724 27.498 35.3261 27.583 35.0849C27.5883 35.069 27.5936 35.0505 27.6016 35.0319C27.7428 34.6608 27.9114 34.2947 28.1051 33.9467C28.3256 33.5561 28.5794 33.1836 28.8581 32.824C28.8607 32.8187 28.8662 32.8134 28.8716 32.8054C29.2941 32.3016 29.7471 31.8185 30.2308 31.38C30.2662 31.3479 30.3042 31.3158 30.3396 31.2837C30.7475 30.9357 31.1778 30.6192 31.6222 30.3368C31.7776 30.2373 31.9359 30.1483 32.0942 30.0646C32.684 29.7646 33.3106 29.5512 33.9771 29.4587C34.0073 29.4531 34.0375 29.4501 34.0676 29.4471C34.6356 29.3822 35.2128 29.4069 35.7911 29.5187C35.8049 29.5185 35.8187 29.5236 35.8325 29.5287C36.3751 29.6436 36.9048 29.8298 37.4159 30.0611C37.4352 30.0688 37.4573 30.0791 37.4767 30.0894C37.5126 30.1048 37.5512 30.1228 37.5899 30.1409C37.7336 30.2077 37.8746 30.2799 38.0156 30.3521C38.0653 30.3779 38.1151 30.4037 38.1621 30.4295C38.5189 30.6231 38.8759 30.8405 39.2136 31.0475C39.4545 31.2029 39.7148 31.3739 39.9553 31.5003C40.1932 31.6347 40.367 31.6933 40.496 31.6864C40.5263 31.6861 40.5565 31.6857 40.5811 31.6801C40.6907 31.6498 40.7582 31.5513 40.7919 31.39C40.7972 31.3741 40.7998 31.3556 40.8023 31.3371C40.8128 31.2947 40.8149 31.2472 40.8199 31.1996C40.8296 31.0993 40.8282 30.9832 40.8213 30.8619C40.8207 30.8144 40.8201 30.7643 40.814 30.7142C40.814 30.7089 40.8139 30.7063 40.8139 30.701C40.8 30.4637 40.7747 30.1896 40.7493 29.8996C40.7306 29.7151 40.7146 29.5306 40.7041 29.3434C40.6597 28.3914 40.6896 27.4595 40.7942 26.5585C40.8017 26.5003 40.8093 26.4422 40.8168 26.384C40.847 26.1541 40.8827 25.9268 40.9239 25.6993C41.0114 25.2022 41.1236 24.7127 41.2634 24.2308C41.303 24.0931 41.3453 23.958 41.3904 23.8202C41.4195 23.7328 41.4487 23.6454 41.4779 23.5606C41.7197 22.8769 42.0168 22.2242 42.372 21.6104L42.3828 21.5918C42.4151 21.5333 42.4473 21.4722 42.4823 21.4164C42.8243 20.8423 43.2244 20.3019 43.6799 19.7976C44.3229 19.1223 45.0555 18.5857 45.8604 18.1196C45.8795 18.1088 45.8958 18.098 45.9149 18.0872C46.4607 17.7825 47.029 17.5144 47.5919 17.2596C48.2477 16.9693 48.9725 16.6994 49.3742 16.5125C49.3905 16.5044 49.4069 16.4963 49.4206 16.4908L49.4234 16.4908Z" fill="black"/>
<path d="M49.7273 16.2522C49.733 16.2679 49.7277 16.2865 49.7115 16.3078C49.6654 16.3584 49.5999 16.3988 49.5234 16.4367C49.4934 16.4529 49.4579 16.4691 49.4197 16.4907C49.4033 16.4962 49.3869 16.5043 49.3732 16.5124C49.2584 16.5613 49.1436 16.6101 49.0616 16.6454C47.9242 17.0972 46.8663 17.54 45.914 18.0845C45.8949 18.0953 45.8785 18.106 45.8594 18.1168C45.1363 18.524 44.4578 18.9913 43.8851 19.5708L43.8688 19.5894C43.8037 19.6562 43.7413 19.7256 43.679 19.7949C43.234 20.262 42.8338 20.7946 42.4814 21.4137C42.0719 22.0915 41.7427 22.8105 41.4797 23.5578C41.4478 23.6453 41.4186 23.7327 41.3922 23.8175C41.3471 23.9526 41.3047 24.0877 41.2652 24.228C41.062 24.9191 40.9141 25.6386 40.8186 26.3813C40.8111 26.4394 40.8035 26.4976 40.796 26.5557C40.6807 27.4754 40.648 28.4125 40.7059 29.3406C40.725 29.789 40.7635 30.2424 40.8157 30.6982C40.8157 30.7035 40.8158 30.7061 40.8158 30.7114C40.8164 30.7616 40.8225 30.8116 40.8231 30.8591C40.8236 30.904 40.8241 30.9462 40.8247 30.9884C40.8256 31.0649 40.8264 31.1335 40.8189 31.1969C40.8167 31.2444 40.8118 31.292 40.8013 31.3343C40.8016 31.3528 40.7963 31.3713 40.791 31.3872C40.7492 31.5672 40.6599 31.6791 40.4951 31.6837C40.3495 31.6828 40.1617 31.6059 39.9544 31.4976C39.935 31.4873 39.9184 31.4769 39.899 31.4639C39.6832 31.3346 39.4534 31.1922 39.2154 31.0447C39.0243 30.9204 38.8443 30.8038 38.7033 30.729C38.5262 30.6255 38.3464 30.5248 38.1667 30.4267C38.1169 30.4009 38.0671 30.3751 38.0201 30.3493C37.8763 30.2745 37.7354 30.2023 37.5945 30.138C37.5365 30.1124 37.4812 30.0866 37.4232 30.0609C36.8954 29.8114 36.3658 29.633 35.8398 29.5285C35.826 29.5261 35.8122 29.5209 35.7984 29.5185C35.4762 29.4537 35.1515 29.4128 34.8218 29.4062C34.569 29.4014 34.3191 29.4176 34.0777 29.4468C34.0475 29.4472 34.0173 29.4529 33.9872 29.4585C33.3508 29.5427 32.7186 29.7429 32.1043 30.0643C31.4762 30.3833 30.8906 30.802 30.3469 31.2808C30.3115 31.3129 30.2735 31.345 30.2381 31.3771C29.7406 31.8106 29.282 32.2885 28.8789 32.8026C28.8734 32.8079 28.868 32.8133 28.8654 32.8212C28.5811 33.1729 28.3274 33.5507 28.1124 33.9438C28.0182 34.1086 27.9323 34.2758 27.8519 34.4457C27.7634 34.6288 27.6807 34.8277 27.6089 35.0291C27.6009 35.0477 27.5956 35.0662 27.5903 35.0821C27.5025 35.318 27.4257 35.5591 27.3572 35.8C27.3546 35.8106 27.3492 35.8212 27.3466 35.8318C27.2884 36.0198 27.2329 36.1973 27.177 36.351C27.1238 36.4942 27.0676 36.6215 27.0057 36.7251C26.8547 36.9645 26.6856 37.0641 26.485 37.0665C26.4686 37.0667 26.4521 37.0669 26.4329 37.0672C26.4109 37.0674 26.3888 37.0624 26.3641 37.0574C26.342 37.0551 26.3172 37.0474 26.2952 37.0424C26.2731 37.0374 26.2483 37.0298 26.2263 37.0222C26.0911 36.9816 25.9391 36.9069 25.7731 36.8112C25.74 36.7932 25.7067 36.7725 25.6708 36.7518C25.5767 36.6949 25.4798 36.6327 25.3773 36.5653C25.3053 36.5187 25.2333 36.4694 25.1585 36.4202C25.0699 36.3606 24.9785 36.301 24.8871 36.2388C24.8068 36.187 24.7292 36.1325 24.6489 36.0807C24.4495 35.9511 24.2474 35.8216 24.0425 35.6922L23.835 35.5654C23.4225 35.3091 23.0046 35.0555 22.5894 34.802L22.3126 34.6311C22.1659 34.5379 22.0165 34.4474 21.8725 34.3567C21.5098 34.1263 21.1581 33.893 20.8093 33.6782C20.7401 33.6342 20.6709 33.5901 20.599 33.5488C20.5298 33.5074 20.4606 33.4634 20.3887 33.4247C20.2503 33.3419 20.1093 33.2671 19.9683 33.1923C19.8798 33.1458 19.7914 33.102 19.7029 33.0609C19.656 33.0403 19.609 33.0171 19.562 32.9966C19.3383 32.8964 19.112 32.812 18.8804 32.7436C18.6902 32.6931 18.4974 32.6532 18.3047 32.6212C18.2992 32.6213 18.2937 32.6214 18.2882 32.6188C17.3658 32.4505 16.4129 32.491 15.4699 32.6659C15.4151 32.6771 15.3603 32.6857 15.3055 32.6969C14.2393 32.9077 13.1943 33.287 12.2137 33.7554C11.894 33.9043 11.5855 34.0611 11.2852 34.2204C11.2633 34.2312 11.2415 34.242 11.2223 34.2502C11.2114 34.2556 11.2005 34.261 11.1895 34.2638C11.0474 34.3288 10.9107 34.3832 10.7902 34.4163C10.7409 34.4275 10.6971 34.4386 10.656 34.4443C10.6121 34.4502 10.5736 34.4506 10.5406 34.4457C10.5378 34.4458 10.5323 34.4458 10.5296 34.4459C10.4966 34.441 10.4635 34.4308 10.4385 34.4127C10.4385 34.4127 10.433 34.4127 10.4302 34.4075C10.4164 34.3971 10.4025 34.3841 10.3885 34.3658C10.3493 34.3029 10.3265 34.2319 10.3118 34.153C10.2909 34.0134 10.2997 33.8365 10.3221 33.6383C10.322 33.633 10.3219 33.6277 10.3219 33.6225C10.3573 33.374 10.4202 33.1199 10.4479 32.9111C10.4633 32.8212 10.4787 32.7313 10.4941 32.6414C10.4993 32.615 10.5045 32.5885 10.5069 32.5647C10.5535 32.3241 10.5921 32.1099 10.5958 31.9568C10.616 31.8088 10.6307 31.6635 10.6454 31.5129L10.6528 31.4415C10.6576 31.3834 10.6623 31.3227 10.6671 31.2619C10.6744 31.1853 10.6789 31.1061 10.6835 31.0295C10.6881 30.953 10.6926 30.8737 10.6944 30.7972C10.699 30.7206 10.7008 30.6414 10.7026 30.5649C10.7106 30.3168 10.7077 30.0714 10.6992 29.8261C10.6902 29.5307 10.6674 29.2354 10.6282 28.943C10.6221 28.8956 10.616 28.8455 10.6099 28.7981C10.598 28.7164 10.586 28.6348 10.5712 28.5505C10.5711 28.5373 10.5709 28.5215 10.5652 28.5084C10.5386 28.3477 10.5064 28.1871 10.466 28.0267C10.4515 27.9661 10.4371 27.9083 10.4199 27.8504C10.4112 27.8136 10.3998 27.7794 10.3884 27.7426C10.377 27.7085 10.3683 27.6716 10.3542 27.6375C10.2857 27.4298 10.2092 27.2381 10.1138 27.0704C10.111 27.0652 10.1082 27.0573 10.1026 27.0521C9.97338 26.8162 9.81158 26.6123 9.61754 26.4695C9.57599 26.441 9.53443 26.4124 9.49294 26.3892C9.28252 26.2545 9.03414 26.1625 8.73961 26.1159C8.72588 26.1161 8.71208 26.111 8.69831 26.1085C8.35967 26.0493 8.00518 26.043 7.65363 26.0525C7.39813 26.0529 7.14543 26.0586 6.89558 26.0722C6.87635 26.0724 6.85438 26.0727 6.83515 26.0729C6.48092 26.0877 6.08851 26.1267 5.70984 26.1656C5.22413 26.2137 4.7632 26.2667 4.43915 26.2786C4.34576 26.2797 4.25517 26.286 4.16717 26.2792C4.13695 26.2796 4.10667 26.2746 4.07639 26.2697C4.0709 26.2698 4.0654 26.2699 4.05988 26.2673C4.04889 26.2674 4.03787 26.2649 4.02682 26.2598C4.01031 26.2573 3.99376 26.2523 3.97996 26.2471C3.96897 26.2473 3.95789 26.2395 3.94687 26.237C3.88318 26.1955 3.87977 26.1402 3.91468 26.0738C3.91468 26.0738 3.91462 26.0685 3.92005 26.0632C3.96861 25.9887 4.0691 25.8925 4.21061 25.78C4.30047 25.7129 4.39029 25.6432 4.48561 25.5735C4.51832 25.552 4.54825 25.5278 4.58096 25.5063C4.60278 25.4929 4.62181 25.4768 4.64088 25.4634C4.64903 25.4554 4.65995 25.45 4.6681 25.442C4.69806 25.4205 4.72803 25.399 4.7607 25.3749C4.76617 25.3722 4.76888 25.3695 4.77431 25.3642C4.83424 25.3212 4.89419 25.2809 4.95412 25.238C5.11757 25.1225 5.28103 25.0071 5.4417 24.8891C5.50437 24.8461 5.56701 24.8005 5.62962 24.7522C5.65684 24.7308 5.68408 24.712 5.71405 24.6905L5.72765 24.6798C5.84201 24.594 5.95637 24.5082 6.06795 24.4198C6.10334 24.3929 6.14148 24.3661 6.17684 24.3366C6.23127 24.2938 6.2857 24.2509 6.33739 24.2081C6.35374 24.1973 6.37007 24.1839 6.38639 24.1705C7.15379 23.5597 7.89603 22.9121 8.57995 22.2126C8.63151 22.1592 8.68306 22.1058 8.73462 22.0524C8.78618 21.999 8.83774 21.9456 8.88651 21.8896C9.77356 20.9474 10.5523 19.9116 11.11 18.7702C11.1127 18.7623 11.1181 18.7569 11.1208 18.7516C11.4403 18.1303 11.7097 17.4621 11.7293 16.8101C11.7293 16.8101 11.7293 16.8101 11.7293 16.8049C11.7445 16.4722 11.6914 16.1668 11.5532 15.8729C11.5306 15.8204 11.5025 15.7679 11.4744 15.7181C11.4295 15.6395 11.3819 15.5636 11.326 15.4851C11.1778 15.2758 10.9941 15.0748 10.7912 14.882C10.7718 14.8664 10.7551 14.8481 10.7384 14.8299C10.3825 14.4832 9.98588 14.1687 9.58391 13.8701C9.5673 13.8597 9.55066 13.8467 9.53402 13.8337C9.30945 13.6649 9.07948 13.5041 8.85228 13.3459C8.8412 13.3381 8.83286 13.3303 8.82181 13.3251C8.78301 13.2966 8.7387 13.2681 8.69162 13.237C8.60855 13.1826 8.51713 13.1203 8.42569 13.0555C8.40908 13.0451 8.39244 13.0321 8.3758 13.0191C8.32869 12.9854 8.28154 12.949 8.23714 12.9126C8.08176 12.7852 7.99255 12.6781 7.95569 12.5835C7.94723 12.5652 7.94151 12.5468 7.94129 12.5283C7.93826 12.5046 7.93797 12.4808 7.94043 12.4571C7.94034 12.4491 7.94302 12.4438 7.94567 12.4359C7.95098 12.42 7.959 12.4014 7.96979 12.3855C8.02378 12.3056 8.13842 12.2436 8.29446 12.1968C8.29721 12.1968 8.3027 12.1967 8.30545 12.1967C8.54093 12.1305 8.8728 12.0843 9.1362 12.0548C9.14444 12.0547 9.14993 12.0546 9.15543 12.0545C9.25419 12.0428 9.35573 12.0336 9.45453 12.0245C9.46002 12.0245 9.46552 12.0244 9.46827 12.0244C9.96496 11.9762 10.4698 11.9226 10.9774 11.8611C11.1008 11.8464 11.2243 11.8317 11.3477 11.8144C11.4382 11.8027 11.526 11.7911 11.6138 11.7795C11.7921 11.7563 11.9676 11.733 12.1431 11.7045C12.4174 11.6643 12.6888 11.6188 12.9575 11.5681C13.037 11.5539 13.1137 11.5398 13.1904 11.523C13.2782 11.5062 13.3631 11.4893 13.4481 11.4724C13.4536 11.4724 13.4563 11.4723 13.4618 11.4723C14.054 11.3649 14.6154 11.2156 15.1516 11.0245C15.1652 11.019 15.1789 11.0136 15.1926 11.0108C15.9862 10.7479 16.6687 10.3861 17.3147 9.96402C17.3365 9.95056 17.3584 9.93711 17.3829 9.92098C17.8191 9.64394 18.2412 9.33276 18.6548 8.99531C18.663 8.98993 18.6711 8.98455 18.6793 8.97654C18.7555 8.91757 18.8317 8.8586 18.9106 8.79696C19.3 8.50201 19.6808 8.18606 20.056 7.85962L20.0614 7.85427C20.3497 7.6054 20.6295 7.34871 20.9011 7.08685C21.0559 6.93722 21.2134 6.77964 21.368 6.61418C21.3951 6.58746 21.4195 6.56078 21.444 6.5341C21.7424 6.22441 22.0299 5.90958 22.3008 5.59232C22.3062 5.58697 22.3116 5.57899 22.317 5.57365C22.3821 5.50426 22.4445 5.4349 22.5069 5.36818C22.5232 5.35215 22.5395 5.33612 22.5557 5.31746L22.6019 5.27204C22.648 5.22663 22.6915 5.18653 22.7351 5.1517C22.8167 5.08475 22.893 5.03369 22.9613 5.00384C22.9859 4.99299 23.0078 4.98481 23.0297 4.97927C23.0407 4.97914 23.0516 4.97373 23.0626 4.97096C23.0736 4.97083 23.0818 4.96809 23.09 4.96535C23.112 4.96509 23.1367 4.96479 23.1586 4.96452C23.1669 4.96442 23.1779 4.96429 23.1862 4.96947C23.1917 4.9694 23.1972 4.96934 23.2055 4.97452C23.2137 4.97442 23.2193 4.97963 23.2275 4.98217C23.2717 4.99747 23.3132 5.02335 23.3521 5.05719C23.4465 5.14049 23.5361 5.27662 23.6289 5.46021C23.6374 5.47594 23.6458 5.49167 23.6515 5.51008C23.6628 5.53633 23.6741 5.56258 23.6882 5.59144C23.7731 5.79887 23.8775 6.0219 23.9955 6.24477C24.1813 6.61459 24.3999 6.96818 24.6678 7.3159C24.6901 7.34466 24.7125 7.37606 24.7376 7.40478C24.7459 7.41523 24.7543 7.42569 24.7627 7.43614C24.9218 7.64268 25.0889 7.83593 25.2641 8.01062C25.3782 8.12798 25.4949 8.24004 25.6144 8.35207L25.6283 8.36509C26.1731 8.88891 26.7778 9.36451 27.4361 9.73655C27.4832 9.76501 27.5302 9.79083 27.5772 9.81665C27.6242 9.84248 27.6712 9.8683 27.7182 9.89148C27.7486 9.90694 27.779 9.92241 27.8094 9.93788C27.8482 9.95852 27.8868 9.97653 27.9228 9.99456C27.9338 9.99971 27.9421 10.0049 27.9531 10.0074C28.0084 10.0358 28.0637 10.0588 28.1216 10.0819C28.5967 10.2899 29.0903 10.437 29.6048 10.5047C29.6379 10.5096 29.6709 10.5144 29.7039 10.5167C29.8745 10.5384 30.0504 10.5494 30.2236 10.5526C30.2318 10.5525 30.2373 10.5525 30.2455 10.5524L30.2565 10.5522C30.6083 10.5638 30.9599 10.5543 31.3141 10.5395C31.9651 10.5264 32.6077 10.5002 33.2582 10.4475C33.3488 10.4411 33.4421 10.4321 33.5326 10.4231C33.5601 10.4227 33.5875 10.4171 33.6149 10.4142C34.1885 10.3624 34.7673 10.2842 35.3703 10.1661C35.8692 10.0756 36.3706 9.96405 36.8664 9.8367C36.954 9.81453 37.0417 9.79237 37.1266 9.77023C37.9099 9.57081 38.6874 9.34243 39.4483 9.1037C39.5168 9.08176 39.5879 9.0598 39.6618 9.0378C40.0013 8.93608 40.338 8.83439 40.672 8.73537C40.6802 8.73527 40.6857 8.73257 40.6939 8.72983C40.6939 8.72983 40.6994 8.72976 40.7021 8.72973C40.9158 8.67966 41.1188 8.65083 41.292 8.6593C41.3002 8.6592 41.3057 8.65913 41.314 8.65903C41.314 8.65903 41.3167 8.659 41.3195 8.65897C41.3304 8.65883 41.3415 8.66398 41.3525 8.66648C41.7963 8.79044 41.4172 9.47579 41.1681 10.0065C41.16 10.0198 41.1547 10.0331 41.1466 10.049C41.1064 10.1339 41.0717 10.2109 41.0477 10.2745C40.8572 10.6541 40.7245 11.0383 40.6521 11.4165C40.6364 11.4827 40.6262 11.5488 40.616 11.6149C40.5215 12.2097 40.6111 12.805 40.862 13.335C40.8761 13.3665 40.8902 13.3953 40.9071 13.4242C40.9099 13.432 40.9155 13.4399 40.9183 13.4451C40.9324 13.4766 40.9492 13.5055 40.9661 13.5343C40.9885 13.5736 41.011 13.6129 41.0362 13.6522C41.3051 14.0843 41.7054 14.4727 42.2395 14.7908C42.5633 14.9874 42.9197 15.1494 43.2977 15.282C43.3556 15.3025 43.4136 15.3229 43.4743 15.3432C43.5322 15.3637 43.5929 15.384 43.6535 15.3991C44.8862 15.7801 46.2942 15.8898 47.6306 15.9872L47.6663 15.9867C48.3428 16.0445 48.9973 16.0921 49.6054 16.1692C49.6385 16.1793 49.6633 16.1896 49.6827 16.1999C49.691 16.2051 49.6993 16.2103 49.7049 16.2155C49.7104 16.2207 49.716 16.2259 49.7215 16.2311C49.7216 16.2364 49.7271 16.239 49.7272 16.2442L49.7273 16.2522Z" fill="#FF008F"/>
<path d="M49.0642 16.6455C49.1435 16.6076 49.261 16.5613 49.3758 16.5125C48.9742 16.6994 48.2494 16.9667 47.5935 17.2596C47.0306 17.5144 46.4624 17.7825 45.9166 18.0872C46.8689 17.5454 47.9268 17.0999 49.0643 16.6481L49.0642 16.6455Z" fill="black"/>
<path d="M43.6512 15.407C44.8644 15.7697 46.2808 15.8898 47.6283 15.995C46.2919 15.9003 44.8839 15.7879 43.6512 15.407Z" fill="black"/>
<path d="M43.6809 19.7923C43.2254 20.2965 42.8253 20.8397 42.4833 21.4111C42.8357 20.7894 43.2359 20.2568 43.6809 19.7923Z" fill="black"/>
<path d="M41.3125 8.66174C41.3125 8.66174 41.2988 8.6619 41.2905 8.662C41.1173 8.65353 40.9144 8.68237 40.7007 8.73244C40.98 8.65519 41.1776 8.63698 41.3098 8.66441L41.3125 8.66174Z" fill="black"/>
<path d="M41.3929 23.8174C41.3478 23.9525 41.3055 24.0903 41.266 24.228C41.3055 24.0903 41.3478 23.9552 41.3929 23.8174Z" fill="black"/>
<path d="M41.1468 10.0517C41.1174 10.1154 41.0906 10.1764 41.0693 10.2348C41.0613 10.248 41.056 10.2639 41.0479 10.2772C41.0718 10.2136 41.1066 10.1367 41.1468 10.0517Z" fill="black"/>
<path d="M41.2625 24.228C41.1227 24.7099 41.0105 25.1994 40.9231 25.6966C40.8819 25.924 40.8461 26.1514 40.8159 26.3813C40.9114 25.6387 41.0593 24.9192 41.2625 24.228Z" fill="black"/>
<path d="M40.6172 11.6229C40.6274 11.5568 40.6376 11.4907 40.6533 11.4246C40.524 12.099 40.5896 12.7552 40.8632 13.343C40.6123 12.813 40.5227 12.2177 40.6172 11.6229Z" fill="black"/>
<path d="M40.7966 31.3874C40.8018 31.3688 40.8042 31.3502 40.8067 31.3343C40.807 31.3529 40.8018 31.3715 40.7966 31.3874Z" fill="black"/>
<path d="M40.7951 31.3872C40.7614 31.5486 40.6939 31.647 40.5843 31.6774C40.5597 31.6829 40.5295 31.6859 40.4992 31.6837C40.6667 31.6764 40.7533 31.5671 40.7951 31.3872Z" fill="black"/>
<path d="M40.7489 29.8942C40.7744 30.1841 40.7996 30.4583 40.8135 30.6956C40.7613 30.2397 40.7229 29.7863 40.7037 29.338C40.7142 29.5226 40.7302 29.7097 40.7489 29.8942Z" fill="black"/>
<path d="M39.9007 31.4665C39.92 31.4769 39.9394 31.4898 39.956 31.5002C39.7182 31.3737 39.4552 31.2027 39.2143 31.0473C39.4523 31.1949 39.6848 31.3372 39.8979 31.4666L39.9007 31.4665Z" fill="black"/>
<path d="M39.6622 9.04053C39.5882 9.06253 39.5171 9.0845 39.4487 9.10643C38.685 9.34256 37.9102 9.5709 37.1269 9.77296C37.9787 9.55161 38.8273 9.29335 39.6622 9.04053Z" fill="black"/>
<path d="M38.1618 30.4265C38.112 30.4008 38.0623 30.375 38.0153 30.3492C38.065 30.3749 38.1148 30.4007 38.1618 30.4265Z" fill="black"/>
<path d="M38.0151 30.3494C37.8741 30.2772 37.7331 30.205 37.5894 30.1381C37.7303 30.2024 37.8713 30.2746 38.0151 30.3494Z" fill="black"/>
<path d="M37.4165 30.0608C36.9027 29.8295 36.3729 29.6406 35.8331 29.5284C36.3591 29.6329 36.8888 29.8138 37.4165 30.0608Z" fill="black"/>
<path d="M33.2567 10.4448C33.3473 10.4385 33.4407 10.4321 33.5312 10.4204C33.4406 10.4294 33.3473 10.4358 33.2567 10.4448Z" fill="black"/>
<path d="M32.0101 10.5099C32.4303 10.4943 32.8422 10.4762 33.2566 10.4421C32.6089 10.4948 31.9636 10.5237 31.3126 10.5342C31.5433 10.5261 31.7739 10.5154 32.0101 10.5073L32.0101 10.5099Z" fill="black"/>
<path d="M33.9768 29.456C33.3103 29.5485 32.6837 29.7618 32.0939 30.0618C32.7082 29.7404 33.3405 29.5402 33.9768 29.456Z" fill="black"/>
<path d="M30.2203 10.5475C30.0445 10.5443 29.8712 10.5332 29.7006 10.5115C29.874 10.5305 30.0472 10.5416 30.2203 10.5475Z" fill="black"/>
<path d="M28.8679 32.8027C29.2711 32.2886 29.7323 31.8081 30.2272 31.3773C29.7407 31.8159 29.2905 32.3016 28.8679 32.8027Z" fill="black"/>
<path d="M28.1016 33.9439C27.908 34.2919 27.7393 34.6581 27.5982 35.0292C27.6699 34.8278 27.75 34.6289 27.8412 34.4457C27.9216 34.2759 28.0075 34.1086 28.1016 33.9439Z" fill="black"/>
<path d="M27.5715 9.81136C27.6157 9.83721 27.6627 9.86039 27.7125 9.88618C27.6655 9.863 27.6185 9.83718 27.5715 9.81136Z" fill="black"/>
<path d="M25.6189 8.35987C26.1719 8.88095 26.7766 9.35655 27.4267 9.73133C26.7684 9.35928 26.1637 8.88105 25.6189 8.35987Z" fill="black"/>
<path d="M27.1667 36.3483C27.2226 36.1946 27.2781 36.0171 27.3363 35.8291C27.2313 36.2341 27.1194 36.5231 26.9954 36.7198C27.0573 36.6162 27.1135 36.4915 27.1667 36.3457L27.1667 36.3483Z" fill="black"/>
<path d="M26.3528 37.0549C26.3749 37.0596 26.3969 37.0617 26.4216 37.0639C26.3996 37.0642 26.3776 37.0595 26.3528 37.0549Z" fill="black"/>
<path d="M26.2841 37.0398C26.3062 37.0448 26.331 37.0498 26.353 37.0548C26.331 37.0525 26.309 37.0474 26.2841 37.0398Z" fill="black"/>
<path d="M26.2114 37.0197C26.2334 37.0273 26.2583 37.0349 26.2803 37.04C26.1232 37.0023 25.9519 36.9199 25.7582 36.8061C25.9242 36.9018 26.0762 36.9764 26.2113 37.017L26.2114 37.0197Z" fill="black"/>
<path d="M25.6581 36.7441C25.6914 36.7648 25.7273 36.7854 25.7605 36.8035C25.7273 36.7854 25.6941 36.7647 25.6581 36.7441Z" fill="black"/>
<path d="M24.6632 7.31067C24.6855 7.33943 24.7079 7.37082 24.733 7.39954C24.7106 7.37079 24.6855 7.33943 24.6632 7.31067Z" fill="black"/>
<path d="M23.9901 6.23939C24.1813 6.60123 24.4083 6.97055 24.6624 7.31052C24.3945 6.9628 24.1786 6.60918 23.9901 6.23939Z" fill="black"/>
<path d="M23.6253 5.45763C23.5324 5.27404 23.4428 5.13791 23.3484 5.0546C23.44 5.13266 23.5323 5.26349 23.6253 5.45763Z" fill="black"/>
<path d="M23.8188 35.5576C23.4063 35.3013 22.9857 35.0478 22.5733 34.7942C22.9884 35.0451 23.4063 35.2987 23.8188 35.5576Z" fill="black"/>
<path d="M23.0842 4.96259C23.0842 4.96259 23.0645 4.96282 23.0561 4.96795C23.0673 4.96781 23.0758 4.9652 23.0842 4.96259Z" fill="black"/>
<path d="M23.0558 4.96829C23.0558 4.96829 23.0338 4.9736 23.0228 4.97626C23.0338 4.9736 23.0448 4.97095 23.0558 4.96829Z" fill="black"/>
<path d="M22.9563 5.00127C22.888 5.03375 22.8117 5.08217 22.7301 5.14912C22.8089 5.0822 22.8852 5.03115 22.9563 5.00127Z" fill="black"/>
<path d="M22.5955 5.26673L22.5503 5.31232C22.5662 5.29623 22.5795 5.28017 22.5955 5.26673Z" fill="black"/>
<path d="M22.5501 5.3122C22.5338 5.32823 22.5175 5.34426 22.5012 5.36292C22.4389 5.42964 22.3738 5.49903 22.3114 5.56839C22.3222 5.55243 22.3357 5.53643 22.3493 5.52307C22.4198 5.4457 22.4849 5.37631 22.5501 5.31484L22.5501 5.3122Z" fill="black"/>
<path d="M21.3612 6.60902C21.2066 6.77449 21.0491 6.9347 20.8943 7.0817C20.6228 7.3462 20.3429 7.60289 20.0546 7.84912C20.5059 7.45316 20.9459 7.03358 21.3611 6.60639L21.3612 6.60902Z" fill="black"/>
<path d="M19.6882 33.053C19.6412 33.0325 19.5942 33.0093 19.5473 32.9887C19.5942 33.0093 19.6412 33.0298 19.6882 33.053Z" fill="black"/>
<path d="M18.8682 32.7359C19.0998 32.8043 19.3262 32.8913 19.5499 32.9889C19.1412 32.8144 18.7221 32.6902 18.2953 32.6135C18.488 32.6455 18.678 32.6854 18.871 32.7359L18.8682 32.7359Z" fill="black"/>
<path d="M17.378 9.91829C17.8114 9.63337 18.228 9.32226 18.6499 8.99261C18.2364 9.33007 17.8143 9.64125 17.378 9.91829Z" fill="black"/>
<path d="M13.4592 11.4695C14.032 11.3518 14.5963 11.2077 15.149 11.0217C14.6128 11.2128 14.0514 11.3621 13.4592 11.4695Z" fill="black"/>
<path d="M15.2925 32.6892C14.2263 32.9053 13.176 33.2926 12.2007 33.7477C13.1813 33.2794 14.229 32.9 15.2925 32.6892Z" fill="black"/>
<path d="M11.5533 17.6961C11.6484 17.381 11.708 17.09 11.7212 16.8154C11.7016 17.4674 11.4322 18.1356 11.1127 18.7569C11.2789 18.4119 11.4285 18.0618 11.5533 17.6961Z" fill="black"/>
<path d="M10.7309 14.8351C10.6808 14.7882 10.6308 14.7413 10.5808 14.6971C10.2642 14.4133 9.92575 14.1403 9.57642 13.878C9.98114 14.1765 10.3751 14.4911 10.7309 14.8377L10.7309 14.8351Z" fill="black"/>
<path d="M10.7792 34.4112C10.8997 34.3781 11.0363 34.3211 11.1785 34.2587C11.0282 34.3291 10.8942 34.3808 10.7792 34.4112Z" fill="black"/>
<path d="M10.5983 28.7954C10.5863 28.7111 10.5743 28.6294 10.5596 28.5478C10.5743 28.6321 10.5863 28.7137 10.5983 28.7954Z" fill="black"/>
<path d="M10.6341 31.5076C10.6194 31.6555 10.6047 31.8035 10.5845 31.9515C10.5808 32.1019 10.5422 32.3188 10.4957 32.5595C10.552 32.2131 10.5999 31.8616 10.6342 31.5102L10.6341 31.5076Z" fill="black"/>
<path d="M10.5548 28.5059C10.5254 28.3453 10.4932 28.1847 10.4556 28.0242C10.4932 28.1847 10.5281 28.3453 10.5548 28.5059Z" fill="black"/>
<path d="M10.416 34.3997C10.416 34.3997 10.3911 34.3815 10.3827 34.3684C10.3827 34.3658 10.3771 34.3606 10.3771 34.3579C10.3883 34.3736 10.4022 34.3893 10.4188 34.3996L10.416 34.3997Z" fill="black"/>
<path d="M10.3064 33.633C10.284 33.8312 10.278 34.0107 10.2961 34.1477C10.2695 33.995 10.2811 33.8154 10.3064 33.633Z" fill="black"/>
<path d="M9.46435 12.0244C9.96102 11.9736 10.4686 11.92 10.9735 11.8611C10.4687 11.9226 9.96102 11.9736 9.46435 12.0244Z" fill="black"/>
<path d="M10.0958 27.0496C9.93858 26.7691 9.74085 26.5472 9.48615 26.3867C9.52764 26.4099 9.5692 26.4384 9.61075 26.467C9.80479 26.6098 9.96385 26.8137 10.0958 27.0496Z" fill="black"/>
<path d="M9.03795 12.0689C9.06817 12.0686 9.09832 12.0629 9.13125 12.0599C8.86511 12.0895 8.53598 12.1357 8.3005 12.2019C8.49758 12.1414 8.75536 12.1014 9.0407 12.0689L9.03795 12.0689Z" fill="black"/>
<path d="M8.8098 13.3304C8.76547 13.2993 8.72391 13.2708 8.67961 13.2423C8.72669 13.2734 8.77103 13.3045 8.8098 13.3304Z" fill="black"/>
<path d="M8.57298 22.2152C7.88906 22.9148 7.14682 23.5623 6.37942 24.1732C7.13315 23.5678 7.88085 22.9176 8.57298 22.2152Z" fill="black"/>
<path d="M8.69405 26.106C8.62525 26.0962 8.5592 26.0865 8.48496 26.0821C8.21541 26.0563 7.93231 26.0465 7.64937 26.0499C8.00095 26.0431 8.35816 26.0467 8.69405 26.106Z" fill="black"/>
<path d="M7.93342 12.4438C7.93342 12.4438 7.93088 12.4571 7.92828 12.4651C7.92818 12.4571 7.92812 12.4518 7.93342 12.4438Z" fill="black"/>
<path d="M7.9301 12.4649C7.925 12.4888 7.92529 12.5126 7.93096 12.5364C7.92525 12.51 7.92497 12.4861 7.9301 12.4649Z" fill="black"/>
<path d="M6.89134 26.0696C6.86937 26.0698 6.85014 26.0701 6.83091 26.0703C6.47671 26.0877 6.08427 26.1241 5.7056 26.163C6.08427 26.1241 6.47668 26.0851 6.83091 26.0703C6.85014 26.0701 6.87212 26.0698 6.89134 26.0696Z" fill="black"/>
<path d="M5.43938 24.8917C5.50202 24.846 5.56466 24.8004 5.6273 24.7548C5.56741 24.8004 5.50477 24.846 5.43938 24.8917Z" fill="black"/>
<path d="M4.75994 25.3776C4.72723 25.3991 4.69727 25.4206 4.66734 25.4447C4.67548 25.4367 4.68641 25.4313 4.69455 25.4233C4.71634 25.4072 4.73816 25.3937 4.75994 25.3776Z" fill="black"/>
<path d="M4.4824 25.5733C4.38708 25.6431 4.29448 25.7102 4.2074 25.7798C4.06589 25.8923 3.9654 25.9885 3.91684 26.063C4.00028 25.9195 4.25631 25.7344 4.48243 25.576L4.4824 25.5733Z" fill="black"/>
<path d="M4.02092 26.2597C4.02092 26.2597 4.04308 26.2645 4.05416 26.2669C4.04311 26.267 4.03203 26.2646 4.02092 26.2597Z" fill="black"/>
<path d="M3.97489 26.2441C3.97489 26.2441 3.9555 26.2393 3.94439 26.2343C3.95547 26.2367 3.96658 26.2416 3.97766 26.244L3.97489 26.2441Z" fill="black"/>
<path d="M41.481 23.5554C41.7412 22.8081 42.0732 22.089 42.4827 21.4112C42.8247 20.8371 43.2248 20.2967 43.6802 19.7925C43.7426 19.7231 43.805 19.6538 43.8701 19.587L43.8864 19.5683C44.4563 18.9889 45.1375 18.5215 45.8607 18.1144" stroke="black" stroke-width="0.75" stroke-miterlimit="10"/>
<path d="M40.704 29.341C40.6461 28.4129 40.6815 27.4758 40.7941 26.5561" stroke="black" stroke-width="0.75" stroke-miterlimit="10"/>
<path d="M40.8216 31.1947C40.8263 31.1313 40.8282 31.06 40.8273 30.9862C40.8268 30.9439 40.8263 30.9017 40.8258 30.8569" stroke="black" stroke-width="0.75" stroke-miterlimit="10"/>
<path d="M39.9561 31.5005C40.1634 31.6088 40.3511 31.6831 40.4968 31.6866" stroke="black" stroke-width="0.75" stroke-miterlimit="10"/>
<path d="M38.0172 30.3496C38.067 30.3754 38.1167 30.4012 38.1638 30.427C38.3463 30.5251 38.5261 30.6259 38.7004 30.7293C38.8442 30.8041 39.0214 30.9207 39.2125 31.0451" stroke="black" stroke-width="0.75" stroke-miterlimit="10"/>
<path d="M37.4207 30.0615C37.4787 30.0872 37.5339 30.1129 37.5919 30.1386" stroke="black" stroke-width="0.75" stroke-miterlimit="10"/>
<path d="M34.0713 29.4446C34.3154 29.4153 34.5625 29.3991 34.8153 29.404C35.1451 29.4105 35.4698 29.4515 35.792 29.5162" stroke="black" stroke-width="0.75" stroke-miterlimit="10"/>
<path d="M30.3383 31.2814C30.882 30.8025 31.4648 30.3812 32.0957 30.0649C32.6855 29.7649 33.3121 29.5515 33.9786 29.4591" stroke="black" stroke-width="0.75" stroke-miterlimit="10"/>
<path d="M28.1029 33.9442C28.3207 33.551 28.5717 33.1733 28.8559 32.8216" stroke="black" stroke-width="0.75" stroke-miterlimit="10"/>
<path d="M27.3505 35.8006C27.4163 35.5597 27.493 35.3186 27.5836 35.0827" stroke="black" stroke-width="0.75" stroke-miterlimit="10"/>
<path d="M26.4766 37.0645C26.6771 37.0621 26.8462 36.9624 26.9972 36.7231" stroke="black" stroke-width="0.75" stroke-miterlimit="10"/>
<path d="M25.7621 36.8067C25.9558 36.9205 26.1299 37.0028 26.2842 37.0406C26.309 37.0482 26.331 37.0506 26.3531 37.0556C26.3751 37.0606 26.3999 37.0629 26.4219 37.0653" stroke="black" stroke-width="0.75" stroke-miterlimit="10"/>
<path d="M25.1479 36.4129C25.2227 36.4621 25.2947 36.5114 25.3667 36.558" stroke="black" stroke-width="0.75" stroke-miterlimit="10"/>
<path d="M24.6357 36.0734C24.716 36.1252 24.7964 36.1796 24.8739 36.2314" stroke="black" stroke-width="0.75" stroke-miterlimit="10"/>
<path d="M24.0294 35.6849C24.2342 35.8143 24.4391 35.9438 24.6357 36.0734" stroke="black" stroke-width="0.75" stroke-miterlimit="10"/>
<path d="M22.5772 34.7947C22.9896 35.0484 23.4103 35.3019 23.8227 35.5582" stroke="black" stroke-width="0.75" stroke-miterlimit="10"/>
<path d="M21.859 34.3492C22.0029 34.4398 22.1524 34.5304 22.2991 34.6236" stroke="black" stroke-width="0.75" stroke-miterlimit="10"/>
<path d="M19.9574 33.1848C20.0984 33.2596 20.2395 33.3344 20.3778 33.4172C20.447 33.4586 20.5189 33.4999 20.5881 33.5413C20.6573 33.5827 20.7265 33.6267 20.7985 33.6707" stroke="black" stroke-width="0.75" stroke-miterlimit="10"/>
<path d="M15.4574 32.6584C16.4003 32.4808 17.356 32.4429 18.2756 32.6113" stroke="black" stroke-width="0.75" stroke-miterlimit="10"/>
<path d="M11.2071 34.2454C11.2289 34.2346 11.2481 34.2264 11.2699 34.2156C11.5702 34.0537 11.8815 33.8969 12.1984 33.7506" stroke="black" stroke-width="0.75" stroke-miterlimit="10"/>
<path d="M10.4261 34.4052C10.4511 34.4234 10.4814 34.4336 10.5172 34.4384" stroke="black" stroke-width="0.75" stroke-miterlimit="10"/>
<path d="M10.3005 34.1483C10.3152 34.2272 10.3381 34.2982 10.3773 34.3611" stroke="black" stroke-width="0.75" stroke-miterlimit="10"/>
<path d="M10.4866 32.6367C10.4711 32.7266 10.4557 32.8165 10.4403 32.9064C10.4126 33.1152 10.3498 33.3719 10.3143 33.6178" stroke="black" stroke-width="0.75" stroke-miterlimit="10"/>
<path d="M10.62 28.9409C10.6565 29.2333 10.682 29.5259 10.6911 29.824C10.7023 30.0693 10.7025 30.3147 10.6945 30.5628C10.6954 30.6393 10.6909 30.7185 10.6863 30.7951C10.6845 30.8716 10.6799 30.9482 10.6754 31.0274C10.6708 31.104 10.6663 31.1832 10.6589 31.2598C10.6542 31.3206 10.6494 31.3787 10.6446 31.4394" stroke="black" stroke-width="0.75" stroke-miterlimit="10"/>
<path d="M10.1082 27.0682C10.2009 27.2359 10.2801 27.425 10.3486 27.6352C10.36 27.6694 10.3714 27.7062 10.3828 27.7404C10.3942 27.7745 10.4057 27.8113 10.4143 27.8482" stroke="black" stroke-width="0.75" stroke-miterlimit="10"/>
<path d="M8.73848 26.1138C9.03302 26.1604 9.28139 26.2524 9.49181 26.3871" stroke="black" stroke-width="0.75" stroke-miterlimit="10"/>
<path d="M6.89399 26.0691C7.1411 26.0563 7.39651 26.0483 7.65204 26.0502" stroke="black" stroke-width="0.75" stroke-miterlimit="10"/>
<path d="M4.07194 26.2702C4.10222 26.2748 4.12972 26.2769 4.16271 26.2789" stroke="black" stroke-width="0.75" stroke-miterlimit="10"/>
<path d="M3.91442 26.0716C3.87951 26.138 3.88295 26.196 3.94661 26.2348" stroke="black" stroke-width="0.75" stroke-miterlimit="10"/>
<path d="M4.64259 25.4639C4.62352 25.4773 4.60449 25.4934 4.58267 25.5068" stroke="black" stroke-width="0.75" stroke-miterlimit="10"/>
<path d="M4.95578 25.2412C4.89585 25.2841 4.83593 25.327 4.77597 25.3673" stroke="black" stroke-width="0.75" stroke-miterlimit="10"/>
<path d="M6.33763 24.211C6.2832 24.2538 6.22877 24.2967 6.17708 24.3395C6.14172 24.369 6.10358 24.3958 6.06819 24.4227C5.95661 24.5111 5.84225 24.5969 5.7279 24.6827" stroke="black" stroke-width="0.75" stroke-miterlimit="10"/>
<path d="M11.1099 18.776C10.5522 19.9174 9.77341 20.9506 8.88639 21.8954C8.83758 21.9488 8.78605 22.0048 8.7345 22.0582" stroke="black" stroke-width="0.75" stroke-miterlimit="10"/>
<path d="M11.4682 15.7238C11.4963 15.7762 11.5243 15.826 11.5469 15.8785C11.6851 16.1724 11.7383 16.4805 11.723 16.8105" stroke="black" stroke-width="0.75" stroke-miterlimit="10"/>
<path d="M10.7852 14.8876C10.9881 15.0804 11.1719 15.284 11.32 15.4907" stroke="black" stroke-width="0.75" stroke-miterlimit="10"/>
<path d="M8.84642 13.3543C9.07632 13.5098 9.30633 13.6733 9.52815 13.8421" stroke="black" stroke-width="0.75" stroke-miterlimit="10"/>
<path d="M8.36759 13.0277C8.38392 13.0408 8.40022 13.0512 8.41655 13.0642" stroke="black" stroke-width="0.75" stroke-miterlimit="10"/>
<path d="M7.94568 12.592C7.98251 12.6839 8.07171 12.791 8.22713 12.9211" stroke="black" stroke-width="0.75" stroke-miterlimit="10"/>
<path d="M7.93745 12.4441C7.93745 12.4441 7.93222 12.4575 7.93232 12.4654C7.92718 12.4867 7.92747 12.5105 7.93318 12.5369" stroke="black" stroke-width="0.75" stroke-miterlimit="10"/>
<path d="M8.28827 12.2026C8.13227 12.2519 8.01488 12.314 7.96361 12.3912" stroke="black" stroke-width="0.75" stroke-miterlimit="10"/>
<path d="M9.45197 12.0249C9.35043 12.034 9.25166 12.0458 9.15287 12.0549" stroke="black" stroke-width="0.75" stroke-miterlimit="10"/>
<path d="M12.1391 11.705C11.9637 11.7335 11.7881 11.7567 11.6098 11.78C11.522 11.7916 11.4343 11.8032 11.3437 11.8148C11.2203 11.8295 11.0968 11.8468 10.9734 11.8615" stroke="black" stroke-width="0.75" stroke-miterlimit="10"/>
<path d="M13.1891 11.5233C13.1097 11.5401 13.0329 11.5542 12.9562 11.5683" stroke="black" stroke-width="0.75" stroke-miterlimit="10"/>
<path d="M17.3154 9.96183C16.6693 10.3839 15.9841 10.7457 15.1933 11.0086" stroke="black" stroke-width="0.75" stroke-miterlimit="10"/>
<path d="M20.0522 7.85756C19.6798 8.1866 19.2962 8.49995 18.9069 8.7949C18.8279 8.85654 18.7517 8.91551 18.6755 8.97448" stroke="black" stroke-width="0.75" stroke-miterlimit="10"/>
<path d="M22.2973 5.58754C22.0263 5.90481 21.7389 6.21964 21.4404 6.52933" stroke="black" stroke-width="0.75" stroke-miterlimit="10"/>
<path d="M23.1843 4.967C23.1843 4.967 23.1646 4.96472 23.1561 4.96231" stroke="black" stroke-width="0.75" stroke-miterlimit="10"/>
<path d="M23.2239 4.9797C23.2239 4.9797 23.2069 4.97487 23.2012 4.97243" stroke="black" stroke-width="0.75" stroke-miterlimit="10"/>
<path d="M23.9947 6.24003C23.8766 6.01716 23.775 5.79674 23.6873 5.5867C23.676 5.55781 23.6647 5.53156 23.6506 5.50534" stroke="black" stroke-width="0.75" stroke-miterlimit="10"/>
<path d="M25.6091 8.3474C25.4897 8.23538 25.3729 8.12068 25.2589 8.00595C25.0864 7.83387 24.9165 7.63802 24.7574 7.43148" stroke="black" stroke-width="0.75" stroke-miterlimit="10"/>
<path d="M27.9183 9.98953C27.8796 9.97152 27.8409 9.95352 27.805 9.93284" stroke="black" stroke-width="0.75" stroke-miterlimit="10"/>
<path d="M29.6019 10.5C29.0873 10.4323 28.5937 10.2852 28.1187 10.0772C28.0635 10.0541 28.0055 10.0284 27.9502 10.0027" stroke="black" stroke-width="0.75" stroke-miterlimit="10"/>
<path d="M31.3136 10.5372C30.9593 10.5513 30.6078 10.5604 30.256 10.5499" stroke="black" stroke-width="0.75" stroke-miterlimit="10"/>
<path d="M36.8696 9.83705C36.3711 9.9618 35.8724 10.076 35.3735 10.1664C34.7677 10.2846 34.189 10.3628 33.6182 10.4145" stroke="black" stroke-width="0.75" stroke-miterlimit="10"/>
<path d="M40.6953 8.73276C40.6953 8.73276 40.6816 8.73556 40.6734 8.7383C40.3394 8.83731 40.0027 8.939 39.6633 9.04072" stroke="black" stroke-width="0.75" stroke-miterlimit="10"/>
<path d="M41.1713 10.0123C41.4204 9.4816 41.7995 8.79361 41.3557 8.6723C41.3447 8.66979 41.3337 8.66728 41.3226 8.66478" stroke="black" stroke-width="0.75" stroke-miterlimit="10"/>
<path d="M40.6546 11.4222C40.727 11.044 40.8597 10.6598 41.0502 10.2802" stroke="black" stroke-width="0.75" stroke-miterlimit="10"/>
<path d="M40.8659 13.3434C40.5923 12.7556 40.5267 12.0993 40.656 11.4249" stroke="black" stroke-width="0.75" stroke-miterlimit="10"/>
<path d="M43.297 15.2903C42.9163 15.1576 42.5627 14.9956 42.2388 14.799C41.7048 14.4809 41.3072 14.0925 41.0355 13.6604C41.0103 13.6211 40.9879 13.5844 40.9654 13.5425C40.9486 13.5137 40.9317 13.4848 40.9176 13.4534" stroke="black" stroke-width="0.75" stroke-miterlimit="10"/>
<path d="M49.6865 16.2056C49.6672 16.1953 49.6423 16.185 49.6092 16.1749C49.0011 16.1004 48.3439 16.0503 47.6702 15.9977" stroke="black" stroke-width="0.75" stroke-miterlimit="10"/>
<path d="M49.7263 16.2392C49.7263 16.2392 49.7152 16.2288 49.7097 16.2236C49.7041 16.2184 49.6986 16.2132 49.6875 16.208" stroke="black" stroke-width="0.75" stroke-miterlimit="10"/>
<path d="M49.4254 16.4911C49.4636 16.4721 49.4992 16.4559 49.5292 16.437C49.6056 16.3992 49.6711 16.3588 49.7172 16.3081C49.7334 16.2868 49.7387 16.2683 49.733 16.2525" stroke="black" stroke-width="0.75" stroke-miterlimit="10"/>
<path d="M52.6165 15.7903C52.6647 15.6842 52.4248 15.6106 51.9871 15.542C50.7653 15.3799 49.3576 15.2966 48.0867 15.1562C46.9368 15.0355 45.7674 14.8939 44.6303 14.6859C43.5508 14.4826 42.5978 14.2777 42.0061 13.7359C41.0839 12.9079 41.3286 11.5487 41.8496 10.5582C42.1261 10.0166 42.5097 9.47364 42.8908 8.95714C43.2389 8.42784 44.4647 7.099 43.98 6.77236C43.5853 6.62407 43.0633 6.85201 42.6224 6.97343C42.0369 7.17047 41.4268 7.38891 40.8277 7.59667C37.4075 8.76987 33.7548 10.0171 30.0591 9.75291C27.1189 9.4796 25.1351 7.18407 24.6819 4.46111C24.5096 3.60825 24.5098 2.719 24.4554 1.85152C24.4228 1.42444 24.3839 0.934111 24.2316 0.60083C23.8043 -0.201467 23.3069 1.38247 23.1929 1.72688C22.9888 2.34943 22.771 2.96951 22.4551 3.6541C19.8377 9.65966 12.6864 11.4979 6.71204 11.5989C6.23975 11.6204 4.71743 11.5992 4.83026 12.0701C4.89787 12.2092 5.00579 12.2738 5.14157 12.3698C5.43511 12.5616 5.89914 12.7671 6.26094 12.9237C7.76574 13.5441 10.4571 15.0474 10.7432 16.68C11.1878 19.3793 4.13154 24.9977 2.16953 26.3354C1.1149 27.05 -1.11479 28.5176 1.87838 27.9379C3.49832 27.6255 9.18062 25.8578 9.90254 27.8571C10.0753 28.2825 10.0542 28.8184 10.0297 29.2884C9.91466 31.1448 9.52591 33.0836 8.87137 35.0811C8.73092 35.5103 8.56384 36.0084 8.49463 36.4208C8.3802 37.1848 8.81557 37.0635 9.51125 36.6566C10.0213 36.3497 10.5117 36.006 11.0243 35.6806C13.4778 34.0942 16.5384 32.4925 19.4487 33.703C20.3433 34.0695 21.1192 34.6249 21.961 35.1715C22.6063 35.5965 23.3234 36.0575 23.9993 36.5138C24.6529 36.9518 25.2598 37.3852 25.7454 37.7778C26.1087 38.0663 26.7661 38.5835 27.0727 38.4874C27.405 38.4834 27.7259 37.7487 27.9038 37.2372C28.1666 36.4768 28.4268 35.7269 28.7722 34.9733C29.6672 32.8701 31.2685 30.5525 33.8835 30.5078C36.6052 30.4301 39.2333 32.3828 40.9342 34.0036C41.2567 34.319 41.9694 34.8724 42.2322 34.7901C42.5391 34.7257 42.4646 34.2437 42.3363 33.6252C42.2003 33.0542 41.9958 32.4973 41.8596 31.9105C40.1842 24.8879 42.6049 19.8875 49.6057 16.9586C50.1907 16.7167 50.8255 16.498 51.4029 16.3063C51.6957 16.2078 51.9556 16.1202 52.1607 16.0439C52.2647 16.003 52.3549 15.965 52.4259 15.9298C52.5269 15.8785 52.5923 15.8302 52.6137 15.7877L52.6137 15.7825L52.6165 15.7903Z" stroke="black" stroke-width="0.75" stroke-miterlimit="10"/>
<path d="M7.93459 12.5368C7.93156 12.5131 7.93127 12.4894 7.93373 12.4656C7.93364 12.4577 7.93632 12.4523 7.93897 12.4444C7.94427 12.4285 7.95229 12.4099 7.96309 12.394C7.97389 12.378 7.98465 12.3594 8.00369 12.3434C8.04151 12.2901 8.14811 12.244 8.2905 12.2053C8.29325 12.2053 8.29874 12.2052 8.30149 12.2052C8.53697 12.139 8.86885 12.0928 9.13224 12.0632C9.14048 12.0631 9.14598 12.0631 9.15147 12.063C9.18166 12.06 9.20909 12.057 9.23653 12.0541C9.30789 12.0479 9.37922 12.0392 9.45058 12.033C9.45607 12.033 9.46156 12.0329 9.46431 12.0329C9.96101 11.9847 10.4659 11.9311 10.9734 11.8696C11.0969 11.8549 11.2203 11.8402 11.3437 11.8229C11.4315 11.8113 11.522 11.7996 11.6098 11.788C11.7881 11.7647 11.9636 11.7389 12.1392 11.713C12.4134 11.6728 12.6849 11.6273 12.9535 11.5766C13.033 11.5624 13.1098 11.5483 13.1865 11.5315C13.2742 11.5146 13.3592 11.4978 13.4441 11.4809C13.4496 11.4809 13.4524 11.4808 13.4579 11.4808C14.05 11.3734 14.6114 11.2241 15.1476 11.0329C15.1613 11.0275 15.175 11.0221 15.1887 11.0193C15.9409 10.749 16.6427 10.3948 17.3108 9.97251C17.3326 9.95905 17.3544 9.9456 17.3789 9.92947C17.8152 9.65243 18.2373 9.34125 18.6508 9.0038C18.659 8.99842 18.6672 8.99304 18.6753 8.98503C18.7515 8.92606 18.8305 8.86442 18.9067 8.80545C19.2931 8.49998 19.6768 8.18927 20.052 7.86811L20.0575 7.86276C20.3457 7.61389 20.6256 7.3572 20.8972 7.09534C21.052 6.94571 21.2094 6.78813 21.364 6.62266C21.3912 6.59595 21.4156 6.56927 21.44 6.54259C21.7329 6.22769 22.0202 5.90231 22.2968 5.6008C22.3023 5.59546 22.3077 5.58748 22.3131 5.58214C22.3782 5.51275 22.4405 5.44339 22.5029 5.37667C22.5192 5.36064 22.5355 5.34461 22.5518 5.32595L22.5979 5.28053C22.6441 5.23512 22.6876 5.19501 22.7311 5.16019C22.8127 5.09324 22.889 5.04218 22.9574 5.01233C22.982 5.00148 23.0038 4.9933 23.0257 4.98776C23.0367 4.98763 23.0477 4.98222 23.0586 4.97945C23.0696 4.97932 23.0778 4.97658 23.086 4.97384C23.108 4.97358 23.1327 4.97328 23.1547 4.97301C23.1657 4.97288 23.1739 4.97278 23.1822 4.97796C23.1877 4.97789 23.1932 4.97783 23.2015 4.983C23.2098 4.98291 23.218 4.98544 23.2236 4.99065C23.2677 5.00596 23.3093 5.03184 23.3481 5.06568C23.4425 5.14898 23.5321 5.28511 23.625 5.4687C23.6334 5.48443 23.6418 5.50016 23.6476 5.51857C23.6927 5.61302 23.7434 5.71795 23.7942 5.83344C23.8564 5.97519 23.9212 6.11426 23.9916 6.25326C24.1774 6.62308 24.3959 6.97667 24.6639 7.32439C24.6862 7.35315 24.7085 7.38454 24.7336 7.41327C24.742 7.42372 24.7504 7.43418 24.7587 7.44463C24.7866 7.4786 24.8145 7.5152 24.8424 7.54917C25.082 7.82863 25.3381 8.09997 25.6077 8.36323L25.6216 8.37625C26.1664 8.90007 26.7711 9.37567 27.4295 9.74771C27.4765 9.77617 27.5235 9.80199 27.5705 9.82781C27.6176 9.85363 27.6646 9.87946 27.7116 9.90264C27.742 9.9181 27.7724 9.93357 27.8028 9.94904C27.8415 9.96968 27.8802 9.98768 27.9161 10.0057C27.9272 10.0109 27.9355 10.016 27.9465 10.0186C28.0017 10.0443 28.057 10.07 28.115 10.093C28.59 10.2958 29.0835 10.4429 29.5982 10.5158C29.6312 10.5207 29.6642 10.5256 29.6972 10.5278C29.8678 10.5495 30.0438 10.5606 30.2169 10.5638C30.2251 10.5637 30.2306 10.5636 30.2389 10.5635L30.2499 10.5634C30.607 10.5591 30.9586 10.5575 31.3075 10.5507C31.9584 10.5375 32.601 10.5113 33.2515 10.4586C33.3421 10.4523 33.4354 10.4432 33.5259 10.4342C33.5534 10.4339 33.5808 10.4283 33.6083 10.4253C34.1598 10.3712 34.7194 10.2958 35.2868 10.1914C35.8132 10.0927 36.3393 9.97814 36.8625 9.84782C36.9501 9.82566 37.0378 9.80349 37.1227 9.78136C37.906 9.58194 38.6835 9.35356 39.4444 9.11483C39.5128 9.09289 39.584 9.07092 39.6579 9.04892C39.9864 8.9447 40.353 8.8189 40.69 8.74096C40.69 8.74096 40.6955 8.74089 40.6982 8.74086C40.9119 8.69079 41.1149 8.66196 41.2881 8.67042C41.2963 8.67033 41.3018 8.67026 41.31 8.67016C41.31 8.67016 41.3128 8.67013 41.3155 8.67009C41.3265 8.66996 41.3376 8.67511 41.3486 8.67761C41.8032 8.78296 41.4054 9.51867 41.1642 10.0177C41.1561 10.0309 41.1508 10.0442 41.1427 10.0601C41.1025 10.1451 41.0677 10.222 41.0438 10.2856C41.0439 10.2935 41.0385 10.3015 41.0358 10.3095C40.8672 10.6783 40.7261 11.0547 40.6482 11.4277C40.6325 11.4938 40.6223 11.5599 40.6121 11.626C40.5176 12.2208 40.6072 12.8161 40.8581 13.3461C40.8722 13.3776 40.8863 13.4065 40.9031 13.4353C40.906 13.4432 40.9116 13.451 40.9144 13.4563C40.9285 13.4878 40.9453 13.5166 40.9622 13.5454C40.9846 13.5847 41.0071 13.624 41.0323 13.6633C41.1303 13.8178 41.2419 13.9642 41.37 14.0999C41.8958 14.6477 42.557 15.0276 43.2938 15.2932C43.3517 15.3136 43.4096 15.334 43.4703 15.3544C43.5283 15.3748 43.589 15.3952 43.6496 15.4103C44.8823 15.7912 46.2902 15.9009 47.6267 15.9983L47.6624 15.9978C48.2921 16.0457 48.9025 16.0858 49.472 16.1502C49.5243 16.1575 49.5683 16.1675 49.6014 16.1777C49.6345 16.1878 49.6594 16.1981 49.6787 16.2084C49.687 16.2136 49.6953 16.2188 49.7009 16.224C49.7092 16.2291 49.712 16.2344 49.7176 16.2396C49.7176 16.2449 49.7232 16.2475 49.7232 16.2527C49.7461 16.3237 49.5905 16.41 49.4156 16.4913C49.3992 16.4968 49.3828 16.5049 49.3692 16.5129C49.2544 16.5618 49.1396 16.6107 49.0576 16.646C47.9201 17.0977 46.8622 17.5406 45.9099 18.0851C45.8908 18.0959 45.8745 18.1066 45.8554 18.1174C45.0505 18.5809 44.3179 19.1201 43.6749 19.7955C43.23 20.2626 42.8298 20.7952 42.4773 21.4142C42.4451 21.4727 42.4101 21.5312 42.3778 21.5896L42.367 21.6082C42.0118 22.222 41.7147 22.8747 41.4729 23.5584C41.441 23.6459 41.4118 23.7333 41.3854 23.8181C41.3403 23.9532 41.2979 24.0883 41.2584 24.2286C41.0552 24.9197 40.9073 25.6392 40.8118 26.3819" stroke="black" stroke-width="0.75" stroke-miterlimit="10"/>
<path d="M10.7323 14.8356C10.3765 14.4889 9.97979 14.1744 9.57782 13.8758C9.56121 13.8654 9.54457 13.8524 9.52793 13.8394C9.30898 13.6811 9.08728 13.5228 8.8684 13.3698C8.86009 13.3646 8.85453 13.3594 8.8462 13.3516C8.83511 13.3438 8.82678 13.336 8.81573 13.3308C8.77692 13.3023 8.73262 13.2738 8.68554 13.2427C8.60246 13.1883 8.51105 13.126 8.4196 13.0612C8.40299 13.0508 8.38635 13.0378 8.36971 13.0248C8.3226 12.9911 8.27546 12.9547 8.23106 12.9183C8.0979 12.8117 7.9894 12.6996 7.94961 12.5892" stroke="black" stroke-width="0.75" stroke-miterlimit="10"/>
<path d="M3.97548 26.2447C3.97548 26.2447 3.95341 26.2371 3.94239 26.2346C3.94239 26.2346 3.93964 26.2346 3.93689 26.2346C3.90093 26.214 3.88138 26.1878 3.881 26.1562C3.88071 26.1324 3.89138 26.1059 3.91023 26.074C3.91023 26.074 3.91017 26.0687 3.9156 26.0634C3.96415 25.9889 4.06465 25.8927 4.20616 25.7802C4.29601 25.7131 4.38584 25.6434 4.48116 25.5737C4.51387 25.5522 4.5438 25.5281 4.57651 25.5066C4.59554 25.4905 4.61736 25.477 4.63643 25.4636C4.64458 25.4556 4.6555 25.4502 4.66365 25.4422C4.69361 25.4207 4.72357 25.3992 4.75625 25.3751C4.76171 25.3724 4.76443 25.3697 4.76986 25.3644C4.82978 25.3214 4.88971 25.2785 4.94967 25.2382C5.11312 25.1228 5.27657 25.0073 5.43725 24.8893C5.49992 24.8463 5.56256 24.8007 5.62517 24.7525C5.65238 24.731 5.67963 24.7122 5.70959 24.6908L5.7232 24.68C5.83756 24.5942 5.94917 24.5084 6.06349 24.42C6.15332 24.3503 6.24311 24.278 6.33294 24.2083C6.34929 24.1975 6.36561 24.1841 6.38194 24.1707C7.14934 23.5599 7.89158 22.9124 8.5755 22.2128C8.62705 22.1594 8.67861 22.106 8.73017 22.0526C8.78173 21.9992 8.83328 21.9458 8.88206 21.8898C9.53844 21.1853 10.1365 20.4261 10.6458 19.6019C10.7937 19.3389 10.9552 19.0599 11.1028 18.7705C11.1055 18.7626 11.1109 18.7572 11.1136 18.7519C11.4331 18.1306 11.7025 17.4624 11.7221 16.8104C11.7221 16.8104 11.7221 16.8104 11.7221 16.8051C11.7313 16.433 11.6582 16.0671 11.4672 15.7158C11.4223 15.6371 11.3746 15.5612 11.3187 15.4827C11.1568 15.2683 10.9758 15.0699 10.784 14.8796" stroke="black" stroke-width="0.75" stroke-miterlimit="10"/>
<path d="M4.05808 26.2646C4.05808 26.2646 4.03595 26.2624 4.02484 26.2575" stroke="black" stroke-width="0.75" stroke-miterlimit="10"/>
<path d="M8.69597 26.1064C8.35733 26.0472 8.00284 26.0409 7.65129 26.0504C7.39307 26.0535 7.13773 26.0671 6.89325 26.0701C6.87402 26.0703 6.85204 26.0706 6.83281 26.0708C6.47858 26.0856 6.08617 26.1246 5.7075 26.1635C5.22179 26.2116 4.76087 26.2646 4.43682 26.2765C4.34342 26.2776 4.25283 26.2839 4.16483 26.2771C4.13461 26.2775 4.10433 26.2725 4.07405 26.2676" stroke="black" stroke-width="0.75" stroke-miterlimit="10"/>
<path d="M22.2978 34.6238C22.1483 34.5332 22.0016 34.4426 21.8576 34.3494C21.4949 34.1189 21.1432 33.8856 20.7944 33.6708C20.7252 33.6268 20.656 33.5854 20.5841 33.5414C20.5149 33.5 20.4457 33.456 20.3738 33.4173C20.2354 33.3372 20.0944 33.2597 19.9534 33.1849C19.8649 33.1385 19.7765 33.0947 19.688 33.0535C19.6411 33.033 19.5941 33.0098 19.5472 32.9892C19.3234 32.889 19.0971 32.8047 18.8655 32.7362C18.6753 32.6857 18.4825 32.6458 18.2898 32.6139C18.2843 32.6139 18.2788 32.614 18.2733 32.6114C17.3428 32.4564 16.3926 32.4889 15.4551 32.6586C15.4002 32.6698 15.3454 32.6784 15.2906 32.6896C14.2244 32.9003 13.1795 33.2797 12.1988 33.748C12.0649 33.8129 11.9338 33.8778 11.8028 33.9454C11.6389 34.0292 11.4233 34.1452 11.2075 34.2455C11.1965 34.2509 11.1856 34.2563 11.1747 34.259C11.0326 34.3241 10.8959 34.3785 10.7754 34.4116C10.7261 34.4228 10.6822 34.4338 10.6411 34.4396C10.5972 34.4454 10.5587 34.4459 10.5257 34.441C10.523 34.441 10.5175 34.4411 10.5147 34.4411C10.479 34.4389 10.4486 34.4261 10.4237 34.4079C10.4237 34.4079 10.4182 34.408 10.4154 34.4028C10.4015 34.3924 10.3876 34.3793 10.3737 34.361C10.3346 34.3114 10.309 34.2378 10.2969 34.1482C10.276 34.0086 10.2849 33.8317 10.3072 33.6336C10.3071 33.6283 10.3071 33.623 10.307 33.6177C10.3445 33.3086 10.4171 32.9541 10.4793 32.6367C10.4844 32.6102 10.4896 32.5838 10.4921 32.56C10.5386 32.3193 10.5773 32.1051 10.5809 31.952C10.6011 31.804 10.6158 31.6587 10.6305 31.5081L10.6379 31.4368C10.6427 31.3761 10.6475 31.318 10.6522 31.2572C10.6595 31.1806 10.6641 31.1014 10.6686 31.0248C10.6732 30.9482 10.6778 30.8716 10.6796 30.7925C10.6842 30.7159 10.686 30.6367 10.6878 30.5602C10.6931 30.3147 10.6928 30.0667 10.6844 29.8214C10.6833 29.729 10.6767 29.6394 10.6701 29.5471C10.6568 29.3599 10.6406 29.1517 10.6133 28.9383C10.6072 28.8908 10.6011 28.8408 10.5951 28.7933C10.5831 28.7117 10.5711 28.63 10.5564 28.5458C10.5562 28.5326 10.556 28.5168 10.5504 28.5036C10.5237 28.343 10.4915 28.1824 10.4511 28.0219C10.4367 27.9614 10.4222 27.9035 10.4051 27.8457C10.3936 27.8089 10.385 27.7747 10.3735 27.7379C10.3621 27.7037 10.3507 27.6669 10.3393 27.6328C10.2709 27.4304 10.1944 27.2387 10.099 27.0657C10.0961 27.0605 10.0933 27.0526 10.0877 27.0474C9.95852 26.8114 9.79672 26.6076 9.60268 26.4648C9.56112 26.4362 9.51957 26.4077 9.47808 26.3845C9.24839 26.2474 8.99187 26.1634 8.72475 26.1112" stroke="black" stroke-width="0.75" stroke-miterlimit="10"/>
<path d="M25.7609 36.8038C25.7277 36.7857 25.6945 36.765 25.6585 36.7443C25.5644 36.6874 25.4675 36.6252 25.3651 36.5579C25.2931 36.5112 25.221 36.462 25.1463 36.4127C25.0576 36.3531 24.9663 36.2935 24.8748 36.2313C24.7945 36.1795 24.717 36.125 24.6367 36.0732C24.5951 36.0473 24.5564 36.0214 24.5148 35.9955C24.3542 35.8919 24.1936 35.7883 24.0303 35.6847L23.8227 35.5579C23.4103 35.3016 22.9924 35.0481 22.5772 34.7945" stroke="black" stroke-width="0.75" stroke-miterlimit="10"/>
<path d="M30.2303 31.3751C29.7328 31.8086 29.2742 32.2864 28.871 32.8005C28.8656 32.8059 28.8602 32.8112 28.8575 32.8192C28.5761 33.1788 28.3224 33.5539 28.1045 33.9418C28.0104 34.1065 27.9245 34.2738 27.8441 34.4436C27.7556 34.6268 27.6729 34.8257 27.6011 35.0271C27.5931 35.0456 27.5878 35.0642 27.5825 35.0801C27.4975 35.3212 27.4208 35.5675 27.3494 35.798C27.3468 35.8085 27.3414 35.8192 27.3388 35.8298C27.2806 36.0178 27.225 36.1953 27.1692 36.349C27.116 36.4921 27.0598 36.6195 26.9979 36.7231C26.8794 36.9224 26.7434 37.0402 26.5624 37.0635C26.5349 37.0638 26.5075 37.0668 26.48 37.0645C26.4635 37.0647 26.447 37.0649 26.4278 37.0651C26.4058 37.0654 26.3838 37.0603 26.359 37.0554C26.337 37.053 26.3122 37.0454 26.2901 37.0404C26.2681 37.0353 26.2433 37.0277 26.2212 37.0201C26.0861 36.9795 25.9341 36.9048 25.7681 36.8092" stroke="black" stroke-width="0.75" stroke-miterlimit="10"/>
<path d="M33.9798 29.4565C33.3434 29.5407 32.7111 29.7409 32.0968 30.0623C31.9385 30.1434 31.7802 30.235 31.6248 30.3345C31.1804 30.6143 30.7501 30.9308 30.3422 31.2814" stroke="black" stroke-width="0.75" stroke-miterlimit="10"/>
<path d="M40.7971 26.556C40.6925 27.4544 40.6625 28.3863 40.707 29.3409C40.7261 29.7893 40.7646 30.2427 40.8167 30.6986C40.8168 30.7038 40.8168 30.7065 40.8169 30.7118C40.8175 30.7619 40.8236 30.8119 40.8242 30.8594C40.8311 30.9807 40.8298 31.0968 40.8228 31.1972C40.8206 31.2447 40.8157 31.2923 40.8052 31.3346C40.8054 31.3531 40.8001 31.3716 40.7948 31.3875C40.753 31.5675 40.6637 31.6794 40.4989 31.684C40.3699 31.6908 40.1934 31.6349 39.9582 31.4979C39.9388 31.4876 39.9222 31.4772 39.9029 31.4642C39.687 31.3349 39.4572 31.1925 39.2192 31.045C38.8815 30.8353 38.5245 30.6206 38.1677 30.427C38.118 30.4012 38.0682 30.3754 38.0212 30.3496C37.8774 30.2748 37.7364 30.2026 37.5956 30.1384C37.5569 30.1204 37.521 30.105 37.4823 30.087C37.4629 30.0766 37.4408 30.0664 37.4215 30.0587C36.8938 29.8091 36.3641 29.6307 35.8381 29.5263C35.8243 29.5238 35.8105 29.5187 35.7968 29.5162C35.2185 29.4044 34.644 29.3797 34.0733 29.4446" stroke="black" stroke-width="0.75" stroke-miterlimit="10"/>
<path d="M34.4019 19.0124C34.6962 19.0405 35.1256 19.3414 34.8544 19.6296C34.6212 19.8884 33.9809 20.0993 33.4297 20.1877C33.2432 20.2164 33.0794 20.3001 33.0321 20.4775C32.6215 21.7464 31.1026 23.15 29.8198 23.3924C29.4607 23.4653 29.0997 23.3694 28.7257 23.3396C27.4969 23.2858 26.5205 22.7381 26.1598 21.7556C25.7351 20.7105 26.035 18.6962 27.1689 18.1733C27.3495 18.1157 27.5249 18.0819 27.3877 17.8672C27.1072 17.3903 26.9135 16.8174 26.8782 16.1635C26.8705 15.9868 26.8953 15.7648 27.0757 15.6835C27.2068 15.6238 27.3722 15.6693 27.4369 15.79C27.5239 15.9472 27.5016 16.1428 27.5339 16.3165C27.676 17.1698 28.1683 17.8947 28.9439 18.4158C30.4702 19.4582 32.5722 19.4777 34.3744 19.01L34.3963 19.0098L34.4019 19.0124ZM32.1878 20.4059C32.2036 20.3503 32.2003 20.3028 32.1806 20.2661C32.1806 20.2661 32.1749 20.2503 32.1693 20.2425C32.1554 20.2242 32.136 20.2112 32.1111 20.201C32.1056 20.1984 32.0973 20.1932 32.0918 20.1907C32.0807 20.1855 32.0697 20.1804 32.0587 20.1805C32.0504 20.178 32.0394 20.1755 32.0311 20.1729C31.9925 20.1628 31.9513 20.1607 31.9155 20.1558C31.734 20.1396 31.5551 20.118 31.3735 20.0911C31.2386 20.0716 31.1037 20.0469 30.9688 20.0195C30.9247 20.0094 30.8779 20.0021 30.8338 19.9921C30.6107 19.9446 30.3902 19.8866 30.1724 19.8206C29.9131 19.7393 29.6592 19.6447 29.4134 19.5369C28.8858 19.2978 28.404 18.9896 28.0038 18.6039C27.9731 18.57 27.9398 18.5387 27.9011 18.5181C27.9011 18.5181 27.8955 18.5128 27.8928 18.5129C27.854 18.4843 27.8125 18.4637 27.7685 18.4563L27.752 18.4565C27.7217 18.4516 27.6915 18.4573 27.6614 18.4655C27.6614 18.4655 27.6559 18.4656 27.6532 18.4656C27.6203 18.4739 27.5848 18.4902 27.5521 18.517C27.1679 18.7802 26.8786 19.1637 26.7078 19.5853C26.6945 19.6171 26.6812 19.6516 26.6678 19.686C26.5799 19.9167 26.5279 20.1574 26.5171 20.3977C26.4905 20.7014 26.5436 21.0042 26.6595 21.2746C26.6596 21.2825 26.6651 21.2878 26.668 21.2956C26.8266 21.6895 27.1219 22.0264 27.5668 22.24C27.5889 22.2503 27.611 22.2632 27.6359 22.2735C27.6828 22.294 27.7298 22.3146 27.7794 22.3325C27.7794 22.3325 27.7849 22.3324 27.7877 22.3324C27.8871 22.3734 27.9892 22.4091 28.0939 22.4369C28.1187 22.4445 28.1463 22.4521 28.1738 22.457C28.1793 22.4569 28.1876 22.4621 28.1931 22.462C28.2372 22.4721 28.284 22.4847 28.3308 22.492C28.3391 22.4919 28.3446 22.4972 28.3529 22.4971C28.3997 22.5071 28.4492 22.5144 28.496 22.5217C28.5015 22.5217 28.5043 22.5216 28.5098 22.5216C28.5621 22.5315 28.6143 22.5361 28.6694 22.5407C28.6831 22.5406 28.6969 22.5431 28.7106 22.5429C29.2001 22.5792 29.7047 22.5072 30.1587 22.3355C30.4377 22.2345 30.7108 22.094 30.9615 21.9247C30.986 21.9086 31.0078 21.8925 31.0323 21.8764C31.0651 21.8549 31.095 21.8334 31.125 21.8093C31.1576 21.7851 31.1903 21.761 31.2202 21.7342C31.3399 21.6378 31.4541 21.5362 31.5544 21.4241C31.5843 21.3947 31.6086 21.3654 31.6357 21.3334C31.6601 21.3041 31.6845 21.2748 31.7088 21.2455C31.7494 21.1948 31.7901 21.1442 31.8252 21.0937C31.8414 21.0724 31.8576 21.0511 31.8711 21.0271L31.8953 20.9873C31.9115 20.9633 31.9277 20.9394 31.9411 20.9155C31.9627 20.8835 31.9816 20.849 32.0004 20.8171C32.0327 20.764 32.0595 20.7082 32.0863 20.6525C32.0863 20.6499 32.0862 20.6446 32.0917 20.6419C32.1347 20.5648 32.175 20.4825 32.1877 20.4032C32.1877 20.4032 32.1877 20.4032 32.1877 20.4006L32.1878 20.4059Z" fill="black"/>
<path d="M32.1801 20.266C32.1944 20.3107 32.1949 20.3582 32.1873 20.4058C32.1873 20.4058 32.1873 20.4058 32.1873 20.4084C32.1847 20.4243 32.1767 20.4402 32.1687 20.4588C32.1447 20.5224 32.118 20.5834 32.0913 20.6471C32.0913 20.6471 32.0886 20.6524 32.0859 20.6577C32.0536 20.7161 32.0213 20.7719 32 20.8223C31.9811 20.8569 31.9623 20.8887 31.9407 20.9207C31.9272 20.9446 31.9111 20.9685 31.8949 20.9925L31.8706 21.0323C31.8544 21.0536 31.8382 21.0749 31.8247 21.0989C31.8031 21.1281 31.7815 21.1574 31.7598 21.1867C31.7436 21.208 31.7274 21.2293 31.7084 21.2533C31.6841 21.2826 31.6597 21.3119 31.6353 21.3413C31.6082 21.3733 31.5811 21.4026 31.554 21.432C31.4509 21.5414 31.3368 21.6457 31.2198 21.7421C31.1871 21.7662 31.1572 21.793 31.1245 21.8171C31.0946 21.8412 31.0619 21.8627 31.0319 21.8842C31.0101 21.9003 30.9856 21.9164 30.9611 21.9325C30.2988 22.3733 29.4801 22.6048 28.7129 22.5507C28.6992 22.5509 28.6854 22.551 28.6717 22.5485C28.6167 22.5439 28.5644 22.5393 28.5121 22.5294C28.5066 22.5294 28.5039 22.5295 28.4984 22.5295C28.4516 22.5222 28.402 22.5149 28.3552 22.5049C28.347 22.505 28.3415 22.505 28.3332 22.4998C28.2891 22.4898 28.2423 22.4798 28.1954 22.4698C28.1899 22.4699 28.1817 22.4674 28.1761 22.4648C28.1514 22.4598 28.1238 22.4522 28.0962 22.4447C28.0163 22.4219 27.9363 22.3938 27.8562 22.3605C27.8341 22.3528 27.812 22.3452 27.79 22.3375C27.79 22.3375 27.7845 22.3376 27.7817 22.3376C27.7652 22.3299 27.7486 22.3248 27.7293 22.3171L27.7072 22.3068C27.6851 22.2966 27.6602 22.2863 27.6382 22.2787C27.6161 22.2684 27.594 22.2581 27.5691 22.2452C27.1627 22.039 26.8482 21.6997 26.6703 21.3008C26.6674 21.2929 26.6619 21.2877 26.6618 21.2798C26.4691 20.7887 26.4814 20.2133 26.6701 19.6912C26.6807 19.6568 26.694 19.6223 26.7101 19.5904C26.8891 19.1687 27.1813 18.7905 27.5545 18.5248C27.5844 18.5033 27.6199 18.4844 27.6555 18.4708C27.6555 18.4708 27.661 18.4707 27.6637 18.4707C27.7432 18.4513 27.8231 18.4714 27.8951 18.518C27.8978 18.518 27.9006 18.5206 27.9034 18.5232C27.9283 18.5414 27.9506 18.5622 27.9728 18.5831C28.3454 18.9506 28.7941 19.2513 29.2887 19.4855C29.3301 19.5061 29.3716 19.5267 29.4157 19.542C29.6589 19.6552 29.9127 19.7471 30.1747 19.8258C30.3898 19.8944 30.613 19.9498 30.8361 19.9972C30.8802 20.0073 30.927 20.0172 30.9711 20.0246C31.106 20.052 31.2409 20.0742 31.3758 20.0963C31.5795 20.1281 31.7858 20.152 31.9894 20.1707C32.0058 20.1705 32.0196 20.173 32.0334 20.1781C32.0444 20.1779 32.0527 20.1805 32.061 20.1857C32.072 20.1882 32.083 20.1933 32.0941 20.1958C32.0996 20.1957 32.1079 20.2009 32.1134 20.2061C32.1438 20.2216 32.1688 20.245 32.1829 20.2713L32.1801 20.266Z" fill="white"/>
<path d="M32.1691 20.4587C32.1771 20.4401 32.1824 20.4242 32.1878 20.4083C32.175 20.4876 32.1348 20.5699 32.0917 20.647C32.1212 20.5833 32.1452 20.5223 32.1691 20.4587Z" fill="black"/>
<path d="M32.1706 20.2424C32.1706 20.2424 32.1763 20.2582 32.1819 20.266C32.1678 20.2398 32.1456 20.2163 32.1124 20.2009C32.1373 20.2111 32.1566 20.2241 32.1706 20.2424Z" fill="black"/>
<path d="M32.0302 20.1729C32.0302 20.1729 32.0027 20.168 31.9862 20.1655C31.7826 20.1469 31.5763 20.123 31.3726 20.0911C31.5542 20.1179 31.7358 20.1395 31.9146 20.1558C31.9476 20.1581 31.9916 20.1628 32.0302 20.1729Z" fill="black"/>
<path d="M31.8247 21.0993C31.8407 21.078 31.8566 21.0566 31.8698 21.0326C31.8565 21.0539 31.8406 21.0753 31.8247 21.0993Z" fill="black"/>
<path d="M31.7575 21.1868C31.7791 21.1575 31.8008 21.1309 31.8224 21.099C31.7873 21.1522 31.7467 21.2028 31.706 21.2508C31.725 21.2294 31.7412 21.2081 31.7574 21.1842L31.7575 21.1868Z" fill="black"/>
<path d="M31.3711 20.0937C31.2363 20.0742 31.1014 20.0521 30.9664 20.0221C31.1013 20.0495 31.2362 20.0716 31.3711 20.0937Z" fill="black"/>
<path d="M30.9571 21.9326C30.9789 21.9165 31.0035 21.9004 31.028 21.8842C31.0062 21.9003 30.9817 21.9165 30.9571 21.9326Z" fill="black"/>
<path d="M30.8331 19.9948C30.6099 19.9473 30.3895 19.8919 30.1716 19.8233C30.3867 19.8893 30.6099 19.9473 30.8331 19.9948Z" fill="black"/>
<path d="M30.9559 21.9325C30.7052 22.1017 30.4349 22.2422 30.1531 22.3432C29.6991 22.5149 29.1945 22.587 28.705 22.5506C29.4722 22.6047 30.2908 22.3732 30.9531 21.9325L30.9559 21.9325Z" fill="black"/>
<path d="M29.4141 19.5369C29.6572 19.6448 29.9111 19.7393 30.1731 19.8206C29.9139 19.7419 29.66 19.6474 29.4141 19.5369Z" fill="black"/>
<path d="M29.4135 19.5367C29.3693 19.5188 29.3279 19.5008 29.2864 19.4802C28.7946 19.246 28.3459 18.9453 27.9705 18.5778C27.9483 18.557 27.9261 18.5361 27.9011 18.518C27.9371 18.5413 27.9705 18.5699 28.0038 18.6038C28.4041 18.9895 28.8859 19.2977 29.4135 19.5367Z" fill="black"/>
<path d="M27.8535 22.3605C27.9336 22.3912 28.0108 22.4193 28.0935 22.4447C27.9888 22.4169 27.8867 22.3812 27.7873 22.3402C27.8094 22.3478 27.8315 22.3555 27.8535 22.3631L27.8535 22.3605Z" fill="black"/>
<path d="M27.5519 18.5195C27.5846 18.4953 27.6201 18.4764 27.653 18.4681C27.6174 18.4791 27.5819 18.5007 27.552 18.5221C27.1788 18.7852 26.8866 19.1661 26.7076 19.5878C26.8784 19.1662 27.1678 18.7853 27.5519 18.5195Z" fill="black"/>
<path d="M26.6707 21.2982C26.8459 21.6971 27.1632 22.039 27.5695 22.2425C27.1246 22.0289 26.832 21.6894 26.6707 21.2982Z" fill="black"/>
<path d="M23.8148 20.6833C23.8418 20.8783 23.8387 21.0736 23.8081 21.2692C23.6973 21.8827 23.3199 22.481 22.8117 22.941C22.7927 22.9597 22.7736 22.9757 22.7546 22.9918C22.7274 23.0159 22.6975 23.04 22.6675 23.0641C22.1287 23.4928 21.4591 23.7779 20.7972 23.8017C20.7835 23.8019 20.767 23.8021 20.7533 23.8022L20.745 23.8023C20.5527 23.7994 20.3628 23.7726 20.178 23.7142C20.1753 23.7142 20.1698 23.7143 20.167 23.7143C19.9491 23.6404 19.7224 23.527 19.5089 23.3634C19.4867 23.3452 19.4645 23.327 19.4395 23.3061C19.259 23.1474 19.0891 22.9515 18.9378 22.7106C18.921 22.6817 18.9014 22.6503 18.8846 22.6215C18.8761 22.6058 18.8677 22.59 18.8593 22.5769C18.8311 22.5166 18.7974 22.4563 18.7636 22.3907C18.7552 22.375 18.7468 22.3593 18.7411 22.3462C18.7015 22.2516 18.6565 22.1677 18.6281 22.0863C18.628 22.0784 18.6224 22.0732 18.6223 22.0652C18.5993 21.9732 18.5982 21.8861 18.6384 21.8038C18.6384 21.8038 18.6384 21.8012 18.6384 21.7985C18.6545 21.772 18.6762 21.7453 18.7033 21.7186C18.8639 21.59 19.0244 21.4561 19.1793 21.3197C19.1875 21.3117 19.1956 21.3037 19.2038 21.2983C19.5327 21.0067 19.8476 20.6916 20.1293 20.3557C20.17 20.3103 20.2079 20.2624 20.2457 20.2144C20.2566 20.2037 20.2674 20.1904 20.2783 20.1771C20.2891 20.1638 20.3026 20.1478 20.3135 20.1345C20.3405 20.0998 20.3676 20.0652 20.3946 20.0306C20.4352 19.9799 20.4758 19.9267 20.5136 19.8734C20.5461 19.8308 20.5758 19.7909 20.6028 19.7484C20.7162 19.586 20.8214 19.4212 20.9183 19.2564C20.9452 19.2112 20.9722 19.166 20.9963 19.1209C21.0044 19.1076 21.0125 19.0943 21.0178 19.081C21.0232 19.0704 21.0286 19.0598 21.0367 19.0518C21.0448 19.0411 21.0502 19.0279 21.0583 19.0172C21.0664 19.0066 21.0745 18.9959 21.0826 18.9853C21.0908 18.9773 21.0962 18.9719 21.1043 18.9639C21.1125 18.9559 21.1207 18.9505 21.1288 18.9425C21.1588 18.9237 21.1889 18.9101 21.2245 18.9044C21.3483 18.9187 21.4722 18.9384 21.5906 18.9633C21.5961 18.9632 21.6016 18.9632 21.6044 18.9658C22.0343 19.0714 22.4784 19.2191 22.8602 19.4388C23.2144 19.6536 23.4979 19.9219 23.6693 20.2365C23.6693 20.2365 23.6693 20.2365 23.6693 20.2392C23.7368 20.3729 23.7881 20.5201 23.8147 20.6807L23.8148 20.6833Z" fill="white"/>
<path d="M23.1225 18.7181C25.6745 20.2891 24.706 24.272 21.8075 24.5022C20.9292 24.5761 20.2165 24.4791 19.4566 23.8893C18.9353 23.4945 18.4457 22.9911 18.2108 22.4213C18.1396 22.2084 17.9938 22.1944 17.8056 22.3101C17.3145 22.5931 16.8089 22.8182 16.3489 22.9425C16.1627 22.9948 16.1124 22.9242 16.2065 22.7542C16.6147 21.9761 17.5597 21.2813 18.4064 20.6405C19.7567 19.6136 21.101 18.5393 20.8882 16.8399C20.8524 16.6028 20.8182 16.2681 21.0945 16.1751C21.3652 16.0689 21.5826 16.3249 21.6048 16.5674C21.665 17.0047 21.6182 17.4538 21.5108 17.8931C21.4927 17.9831 21.4584 18.1022 21.5252 18.1727C21.5753 18.2248 21.6743 18.2342 21.7568 18.2411C22.2735 18.256 22.7532 18.3927 23.1059 18.7078L23.1253 18.7207L23.1225 18.7181ZM23.8374 21.05C23.8641 20.7568 23.8004 20.4858 23.6711 20.2419C23.6711 20.2419 23.6711 20.2419 23.6711 20.2393C23.4994 19.8983 23.2078 19.6406 22.862 19.4416C22.4994 19.2217 22.0689 19.0606 21.6062 18.9686C21.6035 18.9686 21.598 18.9687 21.5924 18.9661C21.5621 18.9586 21.5318 18.951 21.5015 18.9435L21.4739 18.9359C21.3774 18.9054 21.2948 18.8932 21.2263 18.9072C21.2236 18.9072 21.2181 18.9073 21.2153 18.9073C21.1824 18.913 21.1551 18.9265 21.1307 18.9479C21.1197 18.9533 21.1116 18.9587 21.1062 18.9693C21.098 18.9747 21.0926 18.9827 21.0845 18.9907C21.0736 19.0014 21.0655 19.012 21.0601 19.0227C21.0493 19.0333 21.0439 19.044 21.0386 19.0572C21.0305 19.0679 21.0251 19.0758 21.0197 19.0865C21.0116 19.0998 21.0035 19.113 20.9982 19.1263C20.974 19.1715 20.9471 19.2166 20.9202 19.2618C20.8232 19.4266 20.7181 19.5915 20.6046 19.7538C20.5749 19.7964 20.5452 19.8363 20.5155 19.8789C20.4777 19.9321 20.4371 19.9854 20.3965 20.036C20.3586 20.0866 20.3207 20.1345 20.2801 20.1825C20.2693 20.1958 20.2612 20.2091 20.2476 20.2199C20.2097 20.2678 20.1691 20.3158 20.1312 20.3611C19.8467 20.6944 19.5318 21.0095 19.2056 21.3037C19.1975 21.3117 19.1893 21.3171 19.1812 21.3251C19.0534 21.4375 18.9228 21.5446 18.7895 21.6491C18.7158 21.6949 18.6698 21.7482 18.643 21.8039C18.643 21.8039 18.643 21.8066 18.643 21.8092C18.5946 21.8942 18.5984 21.9786 18.6269 22.0706C18.627 22.0786 18.6298 22.0838 18.6327 22.0917C18.6557 22.1785 18.698 22.265 18.7457 22.3489C18.7514 22.3647 18.7598 22.3804 18.7682 22.3935C18.7964 22.4538 18.8301 22.5168 18.8639 22.5797C18.8723 22.5954 18.8807 22.6112 18.8891 22.6242C19.0381 22.9074 19.2332 23.1347 19.4441 23.3089C19.4663 23.3297 19.4885 23.3479 19.5135 23.3661C19.7188 23.5325 19.9427 23.6459 20.1716 23.7171C20.1716 23.7171 20.1771 23.717 20.1826 23.7169C20.3867 23.7831 20.5821 23.8124 20.7496 23.8051L20.7578 23.805C21.4256 23.8154 22.1144 23.5221 22.6721 23.0668C22.7021 23.0454 22.7293 23.0213 22.7592 22.9945C22.7782 22.9785 22.7972 22.9624 22.8162 22.9437C23.3382 22.4836 23.7157 21.888 23.8126 21.272C23.8256 21.2059 23.8358 21.1398 23.8405 21.0737L23.8402 21.0526L23.8374 21.05Z" fill="black"/>
<path d="M22.8598 19.4417C23.2056 19.6407 23.4972 19.8984 23.6689 20.2394C23.4975 19.9248 23.214 19.6564 22.8598 19.4417Z" fill="black"/>
<path d="M22.8091 22.941C23.3201 22.481 23.6948 21.8827 23.8055 21.2692C23.7058 21.8853 23.3284 22.4835 22.8091 22.941Z" fill="black"/>
<path d="M21.4964 18.9407C21.5267 18.9483 21.5571 18.9558 21.5874 18.9634C21.4662 18.9385 21.3451 18.9188 21.2213 18.9045C21.2898 18.8904 21.3723 18.9026 21.4689 18.9332L21.4964 18.9407Z" fill="black"/>
<path d="M21.1015 18.9641C21.1015 18.9641 21.0882 18.9775 21.0802 18.9856C21.0855 18.9776 21.0935 18.9721 21.1015 18.9641Z" fill="black"/>
<path d="M21.0778 18.9827C21.0778 18.9827 21.0611 19.0045 21.0528 19.0154C21.0611 19.0045 21.0695 18.9936 21.0778 18.9827Z" fill="black"/>
<path d="M21.0539 19.0147C21.0539 19.0147 21.0383 19.0357 21.0332 19.0487C21.0384 19.0382 21.0461 19.0252 21.0539 19.0147Z" fill="black"/>
<path d="M20.7442 23.8024C20.5767 23.8097 20.3813 23.7804 20.1772 23.7142C20.362 23.7727 20.5519 23.7994 20.7442 23.8024Z" fill="black"/>
<path d="M20.6011 19.746C20.7145 19.5837 20.8197 19.4188 20.9166 19.254C20.8197 19.4214 20.7173 19.5863 20.6011 19.746Z" fill="black"/>
<path d="M20.5123 19.871C20.542 19.8284 20.5718 19.7885 20.6015 19.7459C20.5745 19.7885 20.5448 19.8284 20.5123 19.871Z" fill="black"/>
<path d="M18.7858 21.6414C18.9191 21.5369 19.0497 21.4298 19.1775 21.3174C19.0226 21.4565 18.8648 21.5903 18.7015 21.7163C18.6744 21.743 18.6527 21.7697 18.6365 21.7962C18.6633 21.7405 18.7122 21.6871 18.783 21.6414L18.7858 21.6414Z" fill="black"/>
<path d="M18.9373 22.708C19.0885 22.9489 19.2585 23.1474 19.439 23.3036C19.228 23.1267 19.0357 22.8994 18.884 22.6189C18.9009 22.6504 18.9204 22.6792 18.9373 22.708Z" fill="black"/>
<path d="M18.625 22.0811C18.6534 22.1626 18.6956 22.2465 18.738 22.3384C18.693 22.2518 18.6507 22.1653 18.625 22.0811Z" fill="black"/>
<path d="M26.7085 19.5874C26.6951 19.6192 26.6818 19.6537 26.6685 19.6881C26.4797 20.2102 26.4674 20.7856 26.6601 21.2767" stroke="black" stroke-width="0.1" stroke-miterlimit="10"/>
<path d="M27.8932 18.5124C27.8212 18.4684 27.7412 18.4456 27.6618 18.4651" stroke="black" stroke-width="0.1" stroke-miterlimit="10"/>
<path d="M32.0907 20.1897C32.0907 20.1897 32.0685 20.1824 32.0575 20.18" stroke="black" stroke-width="0.1" stroke-miterlimit="10"/>
<path d="M32.1862 20.4059C32.1937 20.3581 32.1931 20.3105 32.1791 20.2656" stroke="black" stroke-width="0.1" stroke-miterlimit="10"/>
<path d="M32.0025 20.822C32.0239 20.769 32.0562 20.7132 32.0885 20.6574" stroke="black" stroke-width="0.1" stroke-miterlimit="10"/>
<path d="M31.8954 20.995C31.9113 20.971 31.9272 20.9469 31.9404 20.9229" stroke="black" stroke-width="0.1" stroke-miterlimit="10"/>
<path d="M31.1192 21.8169C31.1519 21.7928 31.1818 21.7686 31.2145 21.7419C31.3342 21.6454 31.4456 21.5412 31.5487 21.4318C31.5758 21.4024 31.6029 21.373 31.63 21.3411" stroke="black" stroke-width="0.1" stroke-miterlimit="10"/>
<path d="M28.5056 22.5316C28.5578 22.5389 28.6101 22.5462 28.6651 22.5508" stroke="black" stroke-width="0.1" stroke-miterlimit="10"/>
<path d="M28.3505 22.5045C28.3974 22.5145 28.4469 22.5218 28.4937 22.5292" stroke="black" stroke-width="0.1" stroke-miterlimit="10"/>
<path d="M28.1896 22.4722C28.2337 22.4822 28.2805 22.4922 28.3273 22.5022" stroke="black" stroke-width="0.1" stroke-miterlimit="10"/>
<path d="M28.0915 22.4444C28.1163 22.4546 28.1439 22.4596 28.1714 22.4645" stroke="black" stroke-width="0.1" stroke-miterlimit="10"/>
<path d="M27.6382 22.2757C27.6603 22.286 27.6851 22.2962 27.7072 22.3039L27.7293 22.3142C27.7459 22.3219 27.7625 22.3296 27.7818 22.3346" stroke="black" stroke-width="0.1" stroke-miterlimit="10"/>
<path d="M22.8577 19.4412C22.4786 19.2214 22.0318 19.0738 21.6019 18.9681" stroke="black" stroke-width="0.1" stroke-miterlimit="10"/>
<path d="M23.807 21.2689C23.8377 21.0733 23.8435 20.8779 23.8137 20.683C23.7871 20.5224 23.7358 20.3752 23.6683 20.2415" stroke="black" stroke-width="0.1" stroke-miterlimit="10"/>
<path d="M20.7538 23.802C20.7675 23.8018 20.784 23.8016 20.7978 23.8014C21.4596 23.7776 22.1265 23.4925 22.6681 23.0638C22.698 23.0397 22.728 23.0156 22.7551 22.9915" stroke="black" stroke-width="0.1" stroke-miterlimit="10"/>
<path d="M20.1752 23.7138C20.3793 23.78 20.5748 23.8093 20.7423 23.802" stroke="black" stroke-width="0.1" stroke-miterlimit="10"/>
<path d="M19.5061 23.3604C19.7196 23.5241 19.9463 23.6401 20.1642 23.7114" stroke="black" stroke-width="0.1" stroke-miterlimit="10"/>
<path d="M18.7584 22.3852C18.7922 22.4508 18.8286 22.511 18.8541 22.5714" stroke="black" stroke-width="0.1" stroke-miterlimit="10"/>
<path d="M18.6333 21.8009C18.5931 21.8831 18.5941 21.9702 18.6172 22.0623" stroke="black" stroke-width="0.1" stroke-miterlimit="10"/>
<path d="M20.243 20.2115C20.2051 20.2594 20.1672 20.3074 20.1266 20.3527C19.8421 20.6886 19.53 21.0038 19.2011 21.2953" stroke="black" stroke-width="0.1" stroke-miterlimit="10"/>
<path d="M20.3915 20.025C20.3644 20.0597 20.3374 20.0943 20.3103 20.1289C20.2995 20.1423 20.2887 20.1582 20.2751 20.1716" stroke="black" stroke-width="0.1" stroke-miterlimit="10"/>
<path d="M21.0128 19.0782C21.0128 19.0782 20.9994 19.1047 20.9913 19.118C20.9671 19.1631 20.9429 19.2083 20.9132 19.2535" stroke="black" stroke-width="0.1" stroke-miterlimit="10"/>
<path d="M21.2184 18.9041C21.1828 18.9098 21.15 18.9234 21.1227 18.9422C21.1146 18.9475 21.1064 18.9529 21.0983 18.9636" stroke="black" stroke-width="0.1" stroke-miterlimit="10"/>
<path d="M34.3778 19.012C32.5784 19.4796 30.4737 19.4574 28.9473 18.4177C28.1718 17.8967 27.6768 17.1717 27.5374 16.3184C27.505 16.1447 27.5274 15.9491 27.4403 15.7919C27.3757 15.6713 27.2103 15.6258 27.0792 15.6854C26.8988 15.7667 26.8713 15.9887 26.8816 16.1654C26.917 16.8193 27.1107 17.3922 27.3912 17.8691C27.5284 18.0838 27.353 18.1176 27.1723 18.1752C26.0412 18.6981 25.7385 20.7124 26.1632 21.7575C26.524 22.7374 27.5004 23.2877 28.7292 23.3415C29.1031 23.3687 29.4615 23.4673 29.8232 23.3943C31.1061 23.1519 32.625 21.7483 33.0356 20.4794C33.0801 20.3021 33.2467 20.2183 33.4332 20.1896C33.9816 20.1012 34.6247 19.8903 34.8579 19.6315C35.1291 19.3433 34.6997 19.0424 34.4053 19.0143L34.3834 19.0145L34.3778 19.012Z" stroke="black" stroke-width="0.1" stroke-miterlimit="10"/>
<path d="M27.7786 22.3372C27.7317 22.3193 27.682 22.2988 27.6351 22.2782C27.613 22.2679 27.5909 22.2577 27.566 22.2448C27.1596 22.0386 26.8451 21.6993 26.6672 21.3004C26.6643 21.2925 26.6588 21.2873 26.6587 21.2794C26.5428 21.009 26.4897 20.7088 26.5163 20.4024C26.5271 20.1621 26.5791 19.9214 26.667 19.6908C26.6776 19.6563 26.6909 19.6219 26.707 19.59C26.886 19.1683 27.1782 18.7901 27.5514 18.5244C27.5813 18.5029 27.6168 18.484 27.6524 18.4704C27.6524 18.4704 27.6579 18.4703 27.6606 18.4703C27.6907 18.4594 27.7209 18.4564 27.7511 18.4586L27.7676 18.4584C27.8117 18.4685 27.8532 18.4891 27.892 18.5176C27.8947 18.5176 27.8975 18.5202 27.9003 18.5228C27.9252 18.541 27.9475 18.5618 27.9697 18.5827C28.3423 18.9502 28.791 19.2509 29.2856 19.4851C29.327 19.5057 29.3685 19.5263 29.4126 19.5416C29.6558 19.6548 29.9096 19.7467 30.1716 19.8254C30.3867 19.894 30.6099 19.9494 30.833 19.9968C30.8771 20.0068 30.9239 20.0168 30.968 20.0242C31.1029 20.0516 31.2378 20.0737 31.3727 20.0959C31.5764 20.1277 31.7827 20.1516 31.9863 20.1703C32.0027 20.1701 32.0165 20.1725 32.0303 20.1777C32.0413 20.1775 32.0496 20.1801 32.0579 20.1852C32.0689 20.1851 32.0799 20.1903 32.091 20.1954C32.0965 20.1953 32.1048 20.2005 32.1103 20.2057C32.1407 20.2212 32.1657 20.2446 32.1798 20.2709C32.1995 20.3102 32.2028 20.3577 32.187 20.4106C32.187 20.4106 32.187 20.4106 32.187 20.4133C32.1844 20.4291 32.1764 20.445 32.1684 20.4636C32.1444 20.5272 32.1177 20.5882 32.091 20.6519C32.091 20.6519 32.0883 20.6572 32.0856 20.6625C32.0588 20.7183 32.032 20.774 31.9997 20.8271C31.9809 20.8617 31.962 20.8936 31.9404 20.9255C31.927 20.9494 31.9108 20.9733 31.8946 20.9973L31.8703 21.0372C31.8541 21.0585 31.8379 21.0798 31.8244 21.1037C31.8028 21.133 31.7812 21.1623 31.7595 21.1915C31.7433 21.2128 31.7271 21.2342 31.7081 21.2581C31.6838 21.2875 31.6594 21.3168 31.635 21.3461C31.6079 21.3781 31.5808 21.4074 31.5537 21.4368C31.4506 21.5489 31.3393 21.6531 31.2195 21.7469C31.1896 21.7736 31.1569 21.7978 31.1242 21.8219C31.0943 21.846 31.0616 21.8675 31.0316 21.889C31.0099 21.9051 30.9853 21.9212 30.9608 21.9374C30.2985 22.3781 29.4798 22.6096 28.7126 22.5555C28.6989 22.5557 28.6852 22.5558 28.6714 22.5534C28.6164 22.5488 28.5641 22.5441 28.5118 22.5342C28.5063 22.5343 28.5036 22.5343 28.4981 22.5344C28.4513 22.527 28.4017 22.5197 28.3549 22.5097C28.3467 22.5098 28.3412 22.5099 28.3329 22.5047C28.2861 22.4973 28.242 22.4847 28.1951 22.4747" stroke="black" stroke-width="0.1" stroke-miterlimit="10"/>
<path d="M28.1715 22.4646C28.1467 22.4596 28.1192 22.452 28.0916 22.4444C28.0117 22.4217 27.9316 22.3936 27.8516 22.3603C27.8295 22.3526 27.8074 22.3449 27.7854 22.3373" stroke="black" stroke-width="0.1" stroke-miterlimit="10"/>
<path d="M23.0994 18.7048C22.7467 18.3897 22.267 18.253 21.7503 18.2381C21.6705 18.2312 21.5688 18.2245 21.5187 18.1697C21.4519 18.0992 21.4862 17.9801 21.5043 17.8901C21.6117 17.4508 21.6585 17.0017 21.5983 16.5644C21.5761 16.3219 21.3615 16.0659 21.088 16.1721C20.8144 16.2651 20.8459 16.5998 20.8817 16.8369C21.0945 18.5363 19.7503 19.6106 18.3999 20.6375C17.5532 21.2783 16.611 21.9757 16.2 22.7512C16.1059 22.9212 16.1589 22.9918 16.3424 22.9395C16.8024 22.8152 17.308 22.5901 17.7991 22.3071C17.9873 22.1914 18.1303 22.2055 18.2043 22.4183C18.4392 22.9881 18.9288 23.4915 19.4501 23.8863C20.2072 24.4761 20.9227 24.5731 21.801 24.4992C24.6995 24.269 25.668 20.2834 23.116 18.7151L23.0966 18.7021L23.0994 18.7048Z" stroke="black" stroke-width="0.1" stroke-miterlimit="10"/>
<path d="M18.6184 22.0624C18.5898 21.9704 18.5833 21.886 18.6345 21.801C18.6345 21.801 18.6345 21.7984 18.6344 21.7957C18.6506 21.7691 18.6723 21.7425 18.6994 21.7158C18.86 21.5872 19.0204 21.4533 19.1754 21.3169C19.1835 21.3089 19.1917 21.3008 19.1999 21.2955C19.5288 21.0012 19.8409 20.6861 20.1254 20.3529C20.166 20.3075 20.2039 20.2596 20.2418 20.2116C20.2527 20.2009 20.2635 20.1876 20.2743 20.1743C20.315 20.1263 20.3528 20.0757 20.3907 20.0277C20.4313 19.9771 20.4719 19.9238 20.5097 19.8706C20.5421 19.828 20.5719 19.7881 20.5988 19.7455C20.7123 19.5832 20.8174 19.4183 20.9144 19.2536C20.9413 19.2084 20.9655 19.1632 20.9924 19.118C21.0005 19.1048 21.0058 19.0915 21.0139 19.0782C21.0193 19.0676 21.0246 19.057 21.0328 19.049C21.0409 19.0383 21.0462 19.025 21.0543 19.0144C21.0625 19.0037 21.0706 18.9931 21.0787 18.9824C21.0868 18.9744 21.0923 18.9691 21.1004 18.9611C21.1086 18.953 21.1167 18.945 21.1249 18.9397C21.1494 18.9183 21.1767 18.9074 21.2096 18.8991C21.2123 18.899 21.2178 18.899 21.2205 18.8989C21.3444 18.9133 21.4682 18.9329 21.5867 18.9578C21.5922 18.9578 21.5977 18.9577 21.6004 18.9603C22.0604 19.055 22.4937 19.2161 22.8562 19.4334C23.2104 19.6481 23.4939 19.9165 23.6653 20.231C23.6653 20.231 23.6653 20.231 23.6653 20.2337C23.7946 20.4775 23.8583 20.7485 23.8317 21.0418L23.8319 21.0629C23.8245 21.1289 23.817 21.195 23.8013 21.2611C23.6906 21.8747 23.3132 22.4729 22.8049 22.9329C22.7859 22.9516 22.7669 22.9677 22.7479 22.9837C22.718 23.0105 22.6908 23.0345 22.6608 23.056C22.1031 23.5113 21.417 23.8046 20.7465 23.7942" stroke="black" stroke-width="0.1" stroke-miterlimit="10"/>
<path d="M18.736 22.3406C18.6964 22.2461 18.6514 22.1622 18.623 22.0834" stroke="black" stroke-width="0.1" stroke-miterlimit="10"/>
<path d="M18.8599 22.5715C18.8262 22.5086 18.7897 22.4457 18.7643 22.3853" stroke="black" stroke-width="0.1" stroke-miterlimit="10"/>
<path d="M20.1645 23.7114C19.9329 23.6403 19.7117 23.5242 19.5064 23.3605C19.4842 23.3423 19.462 23.3241 19.437 23.3032C19.2565 23.1445 19.0866 22.9486 18.9353 22.7077C18.9185 22.6788 18.8989 22.6474 18.882 22.6186" stroke="black" stroke-width="0.1" stroke-miterlimit="10"/>
<path d="M20.7442 23.802C20.5519 23.7991 20.362 23.7723 20.1772 23.7138" stroke="black" stroke-width="0.1" stroke-miterlimit="10"/>
<path d="M30.7616 19.753L30.7532 19.7452C30.4177 19.488 30.0091 19.5536 29.5373 19.3851C29.1842 19.2654 28.7996 19.0431 28.4513 18.8626C28.183 18.718 27.917 18.526 27.6224 18.4741C27.0912 18.3934 26.8408 18.8239 26.6993 19.3903C26.6006 19.8612 26.7193 20.369 26.9579 20.7883C27.5761 21.934 29.1046 22.2349 30.1386 21.4097C30.5961 21.0743 31.1792 20.2097 30.7615 19.7504L30.7616 19.753Z" fill="black"/>
<path d="M21.0965 18.5193L21.08 18.5247C20.7214 18.6293 20.3877 18.9843 20.0103 19.3556C19.5899 19.804 19.051 20.2248 18.7298 20.7062C18.3601 21.2622 18.7739 21.8535 19.2776 22.1641C20.2755 22.8936 22.9713 22.7133 23.24 21.3063C23.3998 20.431 22.8586 19.5219 22.2112 18.9175C21.8335 18.5816 21.4826 18.417 21.0992 18.5166L21.0965 18.5193Z" fill="black"/>
</svg>
