<svg width="58" height="18" viewBox="0 0 58 18" fill="none" xmlns="http://www.w3.org/2000/svg">
<path d="M57.4576 8.05022C58.1161 9.15459 56.6308 11.0739 55.993 12.0395C53.8079 15.1637 52.107 17.3901 48.1561 15.4589C46.9188 14.8831 45.7082 14.0652 44.5182 13.4303C43.6205 12.9549 42.7022 12.5504 41.7248 12.4913C39.3625 12.3141 38.3024 14.5081 36.4391 15.4117C32.0276 17.0564 30.4005 8.67032 24.5539 14.703C23.4111 15.7779 22.1591 16.8616 20.5026 16.8409C16.2918 16.897 15.8902 9.84556 11.9481 10.7816C9.31712 11.6852 7.7462 15.0751 4.94393 15.4117C2.24502 15.707 0.594369 12.8368 0.429009 10.4479C0.0628546 7.13778 1.63673 3.23115 5.00594 2.18584C8.16846 1.13167 11.204 1.4742 13.8232 3.63274C14.9069 4.47135 15.651 5.35721 16.6579 6.33461C17.0536 6.73029 17.5054 7.14664 17.8302 7.59843C17.8479 7.62205 17.8627 7.64863 17.8775 7.6693C17.4759 7.27657 17.0831 6.8986 16.8056 6.66533H16.7967C16.6432 6.67418 16.7258 7.31496 17.0861 7.74903C17.1481 7.82875 17.216 7.90553 17.2869 7.9764C17.1629 7.92029 17.0359 7.84942 16.9119 7.7697C16.6993 7.63977 16.4926 7.49508 16.2947 7.34153C14.2838 5.76766 12.645 3.80696 10.2325 2.88862C7.30622 1.76948 3.78346 3.42899 2.14167 5.96845C1.30896 7.3061 1.26172 9.00694 1.58653 10.5483C1.90544 11.9834 2.41924 14.1833 4.12599 14.3782C7.14381 14.6321 10.9264 7.48327 14.7238 10.1467C16.0437 11.1862 16.7938 12.8132 17.8745 14.0622C19.2535 15.7424 20.786 15.9225 22.6375 14.768C23.8363 14.0475 24.9614 13.0051 26.1425 12.2846C31.9478 8.51677 32.9932 16.9501 37.5287 13.4038C39.77 11.6202 41.3616 10.1674 44.2317 11.9096C45.7849 12.8516 47.0547 14.2955 48.8618 14.7503C51.4308 15.4235 53.7547 13.5189 55.2193 11.4519C56.2853 9.98729 56.5954 8.77957 54.2921 9.4233C49.2782 10.9352 46.7387 9.99615 42.085 8.05612C40.7651 7.60138 39.4009 7.45374 38.016 7.70178C36.5159 7.94096 35.0897 8.61717 33.5896 8.6526C33.1142 8.66146 32.6536 8.59945 32.19 8.52268C28.9359 7.97344 25.4781 7.59548 21.7132 8.47838C21.3471 8.54039 19.407 9.15754 19.2417 8.9656C19.1856 8.90064 19.3421 8.73528 19.847 8.41933C22.3215 6.94585 25.7705 6.44386 28.8651 6.75686C31.9095 7.11711 32.562 8.20377 35.8309 7.03148C41.0604 5.10622 45.6373 10.1084 50.8402 9.08372C52.4141 8.75595 53.864 7.97935 55.4497 7.68702C56.1642 7.56595 57.0885 7.53642 57.4517 8.04431L57.4606 8.05908L57.4576 8.05022Z" fill="black"/>
<path d="M54.288 9.41447C56.5912 8.77074 56.2812 9.97846 55.2152 11.4431C53.7506 13.5101 51.4267 15.4147 48.8577 14.7414C47.0506 14.2867 45.7808 12.8457 44.2276 11.9008C41.3545 10.1586 39.7629 11.6114 37.5246 13.3949C32.989 16.9413 31.9437 8.50794 26.1384 12.2758C24.9573 12.9963 23.8322 14.0386 22.6334 14.7591C20.7819 15.9137 19.2494 15.7336 17.8704 14.0534C16.7896 12.8014 16.0367 11.1773 14.7197 10.1379C10.9253 7.47444 7.1397 14.6233 4.12188 14.3694C2.41512 14.1745 1.90133 11.9746 1.58242 10.5395C1.2576 8.99811 1.3078 7.29727 2.13756 5.95962C3.77935 3.42311 7.30211 1.76361 10.2284 2.87979C12.6409 3.80108 14.2797 5.75883 16.2906 7.3327C16.4914 7.48625 16.6952 7.62799 16.9078 7.76087C17.0318 7.84059 17.1588 7.91146 17.2828 7.96757C17.7759 8.4725 18.4816 8.85047 19.1549 9.03355C19.2169 9.03355 19.2139 9.00107 19.1844 8.95677L19.2346 8.94791C19.4 9.13985 21.34 8.5227 21.7062 8.46069C25.4711 7.57779 28.9289 7.95575 32.1829 8.50499C32.6465 8.58176 33.1072 8.64377 33.5826 8.63491C35.0856 8.60243 36.5088 7.92623 38.0089 7.68409C39.3938 7.43605 40.758 7.58369 42.0779 8.03843C46.7317 9.97846 49.2711 10.9175 54.2851 9.40561L54.288 9.41447Z" fill="#1BA5F5"/>
<path d="M19.1873 8.96565C19.2169 9.00994 19.2198 9.04242 19.1578 9.04242C18.4846 8.85934 17.7788 8.48138 17.2857 7.97644C17.7936 8.21267 18.2277 8.21857 17.8763 7.66934C18.2926 8.07684 18.7208 8.50205 19.0427 8.80619C19.0751 8.84163 19.1519 8.9125 19.1873 8.9686V8.96565Z" fill="black"/>
<path d="M17.877 7.6663C18.2254 8.21553 17.7943 8.20963 17.2864 7.9734C17.2155 7.89958 17.1476 7.82576 17.0856 7.74603C16.7254 7.31196 16.6456 6.67119 16.7962 6.65938H16.8051C17.0856 6.89856 17.4754 7.27357 17.877 7.66925V7.6663Z" fill="black"/>
<path d="M17.8775 7.66636C17.8627 7.64274 17.8479 7.61911 17.8302 7.59549C17.5084 7.1437 17.0566 6.72735 16.6579 6.33167C15.651 5.35427 14.9069 4.46841 13.8232 3.6298C11.204 1.47421 8.16846 1.12873 5.00594 2.1829C1.63673 3.23116 0.0628546 7.1378 0.429009 10.4509C0.594369 12.8398 2.24502 15.71 4.94393 15.4147C7.74324 15.078 9.31712 11.6882 11.9481 10.7846C15.8902 9.84557 16.2918 16.9 20.5026 16.8439C22.1591 16.8645 23.4082 15.7808 24.5539 14.706C30.4005 8.67329 32.0276 17.0594 36.4391 15.4147C38.3024 14.5111 39.3625 12.3171 41.7248 12.4943C42.7051 12.5533 43.6235 12.9579 44.5182 13.4333C45.7082 14.0682 46.9188 14.8861 48.1561 15.4619C52.1041 17.3931 53.8079 15.1666 55.993 12.0425C56.6308 11.0769 58.1161 9.15756 57.4576 8.05319L57.4487 8.03842C57.0855 7.53053 56.1613 7.56006 55.4467 7.68113C53.861 7.97641 52.4112 8.75006 50.8373 9.07783C45.6314 10.1025 41.0574 5.10033 35.8279 7.02559C32.562 8.19788 31.9095 7.11122 28.8621 6.75097C25.7645 6.43797 22.3186 6.93996 19.8441 8.41343C19.3391 8.72939 19.1826 8.89475 19.2387 8.95971C19.4041 9.15165 21.3441 8.5345 21.7103 8.47249C25.4752 7.58959 28.933 7.96755 32.187 8.51678C32.6506 8.59356 33.1113 8.65557 33.5867 8.64671C35.0897 8.61423 36.513 7.93802 38.013 7.69589C39.3979 7.44785 40.7621 7.59549 42.0821 8.05023C46.7358 9.99026 49.2752 10.9293 54.2892 9.41741C56.5924 8.77368 56.2824 9.9814 55.2164 11.446C53.7518 13.513 51.4279 15.4176 48.8589 14.7444C47.0517 14.2896 45.782 12.8486 44.2288 11.9037C41.3557 10.1615 39.7641 11.6143 37.5258 13.3979C32.9902 16.9442 31.9449 8.51088 26.1396 12.2787C24.9584 12.9992 23.8334 14.0416 22.6345 14.7621C20.7831 15.9167 19.2505 15.7365 17.8716 14.0563C16.7908 12.8043 16.0378 11.1803 14.7209 10.1409C10.9264 7.47738 7.14086 14.6263 4.12304 14.3723C2.41628 14.1774 1.90249 11.9775 1.58358 10.5424C1.25876 9.00105 1.30896 7.30021 2.13872 5.96256C3.78051 3.42605 7.30327 1.76655 10.2296 2.88273C12.642 3.80402 14.2809 5.76177 16.2918 7.33564C16.4926 7.48919 16.6963 7.63093 16.9089 7.76381C17.0329 7.84353 17.1599 7.9144 17.2839 7.97051" stroke="black" stroke-width="0.75" stroke-miterlimit="10"/>
<path d="M36.4482 6.80423C35.3409 6.75108 37.2544 6.28748 36.7435 6.78356C36.6549 6.83376 36.5486 6.819 36.4482 6.80423Z" fill="black"/>
<path d="M36.5866 6.8781C36.5364 6.8781 36.4862 6.87219 36.442 6.86629C36.1201 6.85152 36.0463 6.80133 36.0374 6.73046C36.0256 6.64778 36.123 6.60053 36.1969 6.57396C36.3563 6.51195 36.7815 6.42927 36.876 6.57396C36.9174 6.64187 36.8878 6.72455 36.7874 6.82495L36.7756 6.83381C36.7166 6.86629 36.6516 6.87515 36.5925 6.87515L36.5866 6.8781ZM36.188 6.70979C36.2264 6.7216 36.3032 6.73341 36.4479 6.74227H36.4538C36.5394 6.75408 36.6309 6.76589 36.7018 6.73046C36.7668 6.66549 36.7668 6.63892 36.7668 6.63892C36.7638 6.63597 36.7284 6.61825 36.6398 6.6153C36.4715 6.6153 36.2707 6.66845 36.188 6.70979Z" fill="black"/>
<path d="M39.8355 6.60046C39.741 6.3908 40.6417 6.60046 40.8631 6.14276C40.683 6.51187 40.2312 6.97252 39.8355 6.60046Z" fill="black"/>
<path d="M40.1463 6.80125C40.0193 6.80125 39.8983 6.7481 39.789 6.64771L39.7742 6.62704C39.7536 6.57979 39.7624 6.54436 39.7742 6.52073C39.8156 6.44691 39.9307 6.4351 40.102 6.41738C40.3471 6.39081 40.6867 6.35242 40.8018 6.11619L40.914 6.16934C40.7812 6.441 40.5184 6.73924 40.2349 6.7924C40.2053 6.7983 40.1729 6.80125 40.1433 6.80125H40.1463ZM39.8983 6.57684C39.9957 6.65952 40.102 6.692 40.2172 6.67133C40.3412 6.64771 40.4652 6.56503 40.5715 6.45282C40.4239 6.50597 40.2615 6.52369 40.1227 6.53845C40.0459 6.54731 39.9425 6.55912 39.9012 6.57684H39.8983Z" fill="black"/>
<path d="M35.7625 6.54134C35.7625 6.54134 35.7507 6.53248 35.7419 6.52657C35.7773 6.55315 35.8127 6.57677 35.8511 6.60039C35.8216 6.58268 35.7921 6.56201 35.7625 6.54134Z" fill="black"/>
<path d="M35.8187 6.65367C35.7862 6.633 35.7567 6.61233 35.7272 6.59166L35.7065 6.57394L35.7803 6.47355C35.8158 6.50012 35.8512 6.52375 35.8866 6.54737L35.8187 6.65072V6.65367Z" fill="black"/>
<path d="M36.4852 7.28545C35.6407 7.15848 34.4595 6.23128 34.7017 5.50783C34.932 6.85138 40.3623 6.83957 36.4852 7.28545Z" fill="black"/>
<path d="M36.486 7.34752H36.4771C35.857 7.25303 35.0923 6.75104 34.7733 6.22839C34.6139 5.96558 34.5696 5.71164 34.6434 5.48722L34.7231 5.25394L34.7645 5.49608C34.8708 6.11322 36.2084 6.44099 37.0943 6.6595C37.741 6.81896 37.9477 6.87506 37.9388 7.00204C37.9329 7.10834 37.8236 7.19397 36.4919 7.34752H36.483H36.486ZM34.735 5.75002C34.7438 5.87995 34.794 6.01873 34.8796 6.16342C35.1808 6.65655 35.9013 7.13196 36.486 7.2235C37.4162 7.1172 37.7203 7.04338 37.8 6.99613C37.7114 6.94003 37.3689 6.85439 37.0648 6.78057C36.2557 6.58273 35.0834 6.2963 34.735 5.75002Z" fill="black"/>
<path d="M38.4125 6.91349C38.0847 6.01582 39.5641 6.57981 40.0543 6.50008C39.635 6.74813 38.8259 7.47748 38.4125 6.91349Z" fill="black"/>
<path d="M38.807 7.18215C38.6387 7.18215 38.4852 7.11718 38.3612 6.94887L38.3523 6.93411C38.2785 6.73331 38.2844 6.58567 38.3671 6.48232C38.5413 6.26676 38.996 6.33172 39.439 6.39373C39.6781 6.42621 39.9055 6.4587 40.0413 6.43803L40.3721 6.38192L40.0827 6.55024C40.0089 6.59158 39.9232 6.65359 39.8287 6.7156C39.5364 6.91344 39.1437 7.18215 38.8041 7.18215H38.807ZM38.4675 6.88391C38.7746 7.28845 39.3445 6.89867 39.7608 6.6152C39.7844 6.59748 39.811 6.58272 39.8346 6.565C39.7106 6.55614 39.5689 6.53842 39.4242 6.51775C39.0551 6.4646 38.5944 6.40259 38.4675 6.56205C38.4143 6.62701 38.4143 6.73626 38.4675 6.88391Z" fill="black"/>
<path d="M36.5182 7.25298C35.2869 6.77461 34.2061 5.13873 36.0074 6.70374C36.7013 6.21062 37.5694 7.11419 36.5182 7.25298Z" fill="black"/>
<path d="M36.5104 7.31793L36.4957 7.31203C35.7575 7.0256 34.9986 6.28148 34.9897 6.07478C34.9897 6.03639 35.0074 6.00686 35.037 5.9921C35.0783 5.97143 35.1876 5.91828 36.0114 6.62992C36.3185 6.43503 36.6581 6.48227 36.8648 6.62106C37.0154 6.72441 37.0921 6.8691 37.0597 6.99902C37.036 7.09351 36.9386 7.26183 36.5222 7.31498H36.5075L36.5104 7.31793ZM35.1403 6.12498C35.2673 6.33168 35.8578 6.9252 36.5281 7.19096C36.7673 7.15848 36.9179 7.07875 36.9445 6.97245C36.9622 6.89272 36.9091 6.79823 36.7998 6.72441C36.6197 6.60334 36.3155 6.56495 36.0468 6.75689L36.0084 6.78642L35.973 6.75394C35.4622 6.31101 35.2377 6.16927 35.1433 6.12498H35.1403Z" fill="black"/>
<path d="M36.5838 6.9547C36.197 6.91336 35.8515 6.68304 35.5887 6.41433C35.8544 6.93403 37.8328 6.22534 36.5838 6.9547Z" fill="black"/>
<path d="M36.5982 7.01968H36.5775C36.2733 6.98425 35.9603 6.83365 35.6798 6.58856C35.6149 6.55313 35.5647 6.50588 35.5322 6.44387L35.3432 6.07477L35.6326 6.37005C35.671 6.41139 35.7123 6.44978 35.7536 6.48521C35.9485 6.58266 36.3235 6.56199 36.5893 6.54722C36.8757 6.52951 37.0204 6.52065 37.05 6.61809C37.0736 6.69487 37.0145 6.77459 36.6129 7.01082L36.5952 7.02263L36.5982 7.01968ZM36.0017 6.67124C36.1877 6.78936 36.3826 6.86318 36.5716 6.88975C36.7871 6.76278 36.8757 6.69487 36.9112 6.66238C36.8432 6.65648 36.7104 6.66238 36.5982 6.66829C36.4121 6.6801 36.1936 6.69191 36.0017 6.67124Z" fill="black"/>
<path d="M40.4231 3.69479C39.1799 2.67901 36.9092 3.21053 35.855 4.32671C35.0607 5.17122 35.0931 6.15157 35.9495 7.01381L35.9672 7.02562C36.419 7.23823 36.6404 7.31205 36.7586 7.31205C36.8147 7.31205 36.8471 7.29433 36.8708 7.27071C36.9239 7.21165 36.8973 7.12011 36.8235 6.99019C36.9151 7.04039 37.0125 7.08763 37.1188 7.13783L37.1395 7.14374C37.2576 7.15259 37.3757 7.15555 37.4997 7.15555C38.0312 7.15555 38.5982 7.07877 39.1031 6.91637C39.1208 7.04924 39.1917 7.16736 39.3069 7.24413L39.3305 7.25299C40.1898 7.40063 40.8365 6.72738 41.0963 5.99507C41.3739 5.20666 41.2794 4.14954 40.4172 3.69479H40.4231Z" fill="black"/>
<path d="M25.7439 3.5028C24.3974 3.11302 22.3895 4.43885 21.9849 5.6761C21.852 6.08064 21.7959 6.80705 22.8737 7.19387C22.983 7.25883 23.1188 7.31199 23.2871 7.35037H23.2989H23.3108C23.6769 7.29722 24.1198 7.30903 24.5893 7.32084C25.2035 7.33561 25.862 7.35333 26.4024 7.21454C26.4024 7.21454 26.4024 7.21749 26.3994 7.22045L26.3374 7.30313L26.4408 7.31789C26.5441 7.33266 26.6445 7.34151 26.742 7.34151C27.244 7.34151 27.6456 7.14367 27.8906 6.76866C28.2893 6.15742 28.2214 5.16821 27.7282 4.41818C27.2705 3.72131 26.5471 3.39059 25.741 3.5028H25.7439Z" fill="black"/>
<path d="M38.3946 0.00673448C37.7479 0.0392159 37.0717 0.0953203 36.4486 0.26068C35.0696 0.623882 33.9417 1.86704 33.6168 3.11905C33.2536 4.37401 33.6434 5.80615 34.9279 6.61819C35.0637 6.69792 35.2173 6.7865 35.359 6.86032H35.3206C35.359 6.87509 35.3915 6.88395 35.4269 6.89576C35.5953 6.97844 35.7459 7.03454 35.8403 7.01978C36.5766 7.23829 36.9447 7.34754 36.9447 7.34754H38.1436L39.7706 7.22943L40.6063 6.90166C40.6358 6.98139 40.6889 7.03749 40.7716 7.06112C40.996 7.11427 41.2618 7.04635 41.4508 6.94005C41.5778 6.86623 41.752 6.65067 41.9587 6.48531C44.9204 4.01672 41.6634 -0.191107 38.3946 0.00673448ZM35.8315 6.81898C35.7577 6.69792 35.6307 6.56208 35.5716 6.46759C34.4555 5.09746 34.0716 3.48225 34.925 2.51667C37.1248 -0.0788983 44.067 1.24694 41.2529 5.52563C41.0315 5.84454 40.748 6.066 40.6269 6.36719L35.8315 6.81898Z" fill="black"/>
<path d="M29.2111 1.90537C26.7956 -0.102575 19.9361 0.650405 19.8446 4.30309C19.8446 4.32672 19.8446 4.34739 19.8446 4.37101C19.8446 4.53932 19.8564 4.71354 19.8889 4.89071C19.9361 5.186 20.0247 5.499 20.1605 5.82972C20.3938 6.34942 21.1586 7.75499 21.7049 7.78747H21.7167C21.888 7.72841 21.9352 7.60734 21.9145 7.45675H24.9324L27.6165 7.29434L28.2691 6.91047C28.3045 7.3534 28.7681 7.44198 29.0959 6.98724C30.2091 5.45471 30.8912 3.19872 29.214 1.90242L29.2111 1.90537ZM22.4608 1.42996C23.1902 1.13763 24.0111 0.963408 24.8408 0.913209C24.014 0.97522 23.1931 1.15239 22.4608 1.42996ZM21.8968 7.38588C21.7994 7.01677 21.3712 6.50888 21.2797 6.27265C21.132 5.98032 21.0257 5.6555 20.9844 5.35136C20.7393 2.87686 23.6036 1.40634 25.9865 1.60713C27.3094 1.71343 28.5467 2.57862 29.0516 3.7893C29.3292 4.68401 28.5526 5.71751 28.3104 6.56794L21.8939 7.38588H21.8968Z" fill="black"/>
</svg>
