<svg width="20" height="19" viewBox="0 0 20 19" fill="none" xmlns="http://www.w3.org/2000/svg">
<mask id="mask0_0_81" style="mask-type:luminance" maskUnits="userSpaceOnUse" x="1" y="1" width="17" height="17">
<path fill-rule="evenodd" clip-rule="evenodd" d="M1.66602 1.58374H17.7367V17.9879H1.66602V1.58374Z" fill="white"/>
</mask>
<g mask="url(#mask0_0_81)">
<path fill-rule="evenodd" clip-rule="evenodd" d="M6.00128 13.8071C6.19212 13.8071 6.38295 13.83 6.56961 13.8775C7.13295 14.0216 7.62212 14.3794 7.91212 14.86C8.10045 15.1616 8.20462 15.5139 8.20795 15.8733C8.20795 16.3879 8.64295 16.8004 9.17795 16.8004H10.2221C10.7546 16.8004 11.1896 16.3903 11.1921 15.8844C11.1888 15.3255 11.4188 14.7943 11.8396 14.3945C12.2546 14.0002 12.8346 13.7635 13.4146 13.7794C13.7946 13.7881 14.1604 13.8854 14.4829 14.0596C14.9471 14.3122 15.5396 14.1617 15.8079 13.7263L16.3613 12.8499C16.4846 12.6481 16.5204 12.3947 16.4546 12.1612C16.3896 11.9277 16.2263 11.725 16.0063 11.6054C15.4913 11.3236 15.1238 10.8692 14.9713 10.3245C14.8204 9.79016 14.9029 9.2067 15.1971 8.72616C15.3888 8.40949 15.6696 8.1427 16.0063 7.95903C16.4579 7.70807 16.6163 7.14678 16.3538 6.70978C16.3429 6.69236 16.3329 6.67416 16.3246 6.65516L15.8363 5.85082C15.5704 5.41145 14.9788 5.26024 14.5146 5.5112C14.0129 5.79303 13.4163 5.87378 12.8429 5.73049C12.2704 5.58957 11.7904 5.2452 11.4913 4.75911C11.2996 4.45512 11.1954 4.10124 11.1921 3.74103C11.1996 3.47028 11.0996 3.22724 10.9179 3.04912C10.7371 2.87178 10.4829 2.77124 10.2221 2.77124H9.17795C8.91962 2.77124 8.67795 2.86703 8.49545 3.03962C8.31378 3.21299 8.21462 3.44337 8.21628 3.68878C8.19878 4.8462 7.20295 5.77799 5.99712 5.77799C5.61045 5.77403 5.23795 5.67507 4.91462 5.49141C4.46045 5.24599 3.86712 5.3972 3.60128 5.83657L3.03712 6.7177C2.77878 7.14361 2.93712 7.70649 3.39712 7.96061C4.07962 8.33586 4.50545 9.0357 4.50545 9.7862C4.50545 10.5367 4.07962 11.2357 3.39545 11.6118C2.93795 11.8635 2.77962 12.4232 3.04462 12.8587L3.57045 13.72C3.70045 13.9424 3.91295 14.1032 4.15878 14.1689C4.40378 14.2338 4.67378 14.2061 4.89878 14.0873C5.22962 13.9029 5.61462 13.8071 6.00128 13.8071ZM10.2221 17.9879H9.17795C7.95378 17.9879 6.95795 17.0426 6.95795 15.8797C6.95628 15.7364 6.91295 15.5875 6.83212 15.4585C6.70128 15.2416 6.48962 15.0864 6.24545 15.0247C6.00295 14.9629 5.73712 14.9969 5.51878 15.1173C4.99545 15.3944 4.37962 15.4617 3.81628 15.3112C3.25378 15.16 2.76795 14.7927 2.48295 14.3058L1.96212 13.4532C1.35295 12.4494 1.71545 11.1629 2.77045 10.5834C3.06962 10.4195 3.25545 10.1139 3.25545 9.7862C3.25545 9.45845 3.06962 9.15207 2.77045 8.9882C1.71462 8.40553 1.35295 7.11591 1.96128 6.11207L2.52628 5.23095C3.12712 4.2382 4.48545 3.88828 5.54462 4.4662C5.68878 4.54774 5.84545 4.58891 6.00462 4.59049C6.52378 4.59049 6.95795 4.18357 6.96628 3.68324C6.96295 3.13145 7.19212 2.60182 7.60962 2.20203C8.02878 1.80303 8.58545 1.58374 9.17795 1.58374H10.2221C10.8188 1.58374 11.3988 1.81649 11.8146 2.22103C12.2296 2.62795 12.4588 3.18607 12.4413 3.75212C12.4429 3.87957 12.4871 4.02682 12.5671 4.15587C12.6996 4.36962 12.9088 4.52003 13.1571 4.58178C13.4054 4.64037 13.6654 4.6087 13.8863 4.48441C14.9529 3.9057 16.3104 4.25245 16.9196 5.25786L17.4388 6.11207C17.4521 6.13503 17.4638 6.1572 17.4738 6.18016C18.0254 7.17053 17.6571 8.41741 16.6321 8.98661C16.4829 9.06816 16.3621 9.18216 16.2788 9.31991C16.1496 9.53287 16.1138 9.7862 16.1788 10.0189C16.2454 10.2564 16.4046 10.4536 16.6288 10.5755C17.1346 10.8518 17.5121 11.3173 17.6629 11.8548C17.8138 12.3916 17.7313 12.9742 17.4371 13.4548L16.8838 14.3304C16.2746 15.3247 14.9171 15.6691 13.8613 15.0896C13.7204 15.0128 13.5579 14.9708 13.3963 14.9669H13.3913C13.1504 14.9669 12.9029 15.0642 12.7229 15.2344C12.5404 15.4078 12.4404 15.639 12.4421 15.8844C12.4363 17.0474 11.4404 17.9879 10.2221 17.9879Z" fill="#17301C"/>
</g>
<path fill-rule="evenodd" clip-rule="evenodd" d="M9.70448 8.29236C8.83781 8.29236 8.13281 8.9629 8.13281 9.78623C8.13281 10.6096 8.83781 11.2785 9.70448 11.2785C10.5711 11.2785 11.2761 10.6096 11.2761 9.78623C11.2761 8.9629 10.5711 8.29236 9.70448 8.29236ZM9.70448 12.466C8.14865 12.466 6.88281 11.2643 6.88281 9.78623C6.88281 8.30819 8.14865 7.10486 9.70448 7.10486C11.2603 7.10486 12.5261 8.30819 12.5261 9.78623C12.5261 11.2643 11.2603 12.466 9.70448 12.466Z" fill="#17301C"/>
</svg>
