<svg width="55" height="42" viewBox="0 0 55 42" fill="none" xmlns="http://www.w3.org/2000/svg">
<path d="M53.7733 4.61006C53.7447 4.67562 53.735 4.7466 53.7426 4.81872L53.7275 4.92122L53.752 4.87161C53.7572 4.89527 53.765 4.91855 53.7739 4.94259C53.7853 4.97169 53.8011 5.00015 53.8176 5.02672C53.518 5.15005 53.1383 5.38969 52.7807 5.62527C52.6923 5.68312 52.6221 5.72933 52.5746 5.75781C48.2847 9.01296 46.1386 14.2569 44.747 18.4638L44.7036 18.6028C44.6703 18.7106 44.6354 18.8205 44.6038 18.9344L44.6021 18.9418C43.4906 22.9902 42.4853 27.7174 43.4388 32.1236C43.3099 32.1511 43.178 32.1962 43.0558 32.239C42.9017 32.2927 42.7551 32.3417 42.6246 32.3585C40.5675 32.9206 38.5103 33.4817 36.4522 34.043C33.8156 34.7621 31.179 35.4812 28.5426 36.2012L26.3204 36.8094C22.4403 37.8711 18.428 38.9679 14.487 40.0644L14.4775 40.0676C14.2619 40.178 13.6721 40.3257 12.988 40.4969C12.0396 40.7348 10.9322 41.0117 10.2726 41.3221C10.3033 41.1957 10.338 41.0281 10.3819 40.804C10.6881 39.2308 8.80761 34.9212 6.87696 31.3979C4.92061 27.8276 2.29568 23.8488 0.84196 23.0066C0.811334 22.9884 0.782228 22.9745 0.752109 22.9598L0.958778 22.6799C3.88768 18.2701 8.8134 15.2069 13.5066 14.8757C13.604 14.8681 13.7294 14.8917 13.8613 14.9163C13.9542 14.9337 14.0535 14.952 14.1513 14.9597C14.3802 15.4855 15.0546 16.1997 15.6735 16.8549C16.0974 17.3031 16.497 17.7267 16.6246 17.9679L16.6315 17.9777C17.6096 19.0335 18.5493 20.1932 19.4592 21.3148C20.9488 23.1532 22.4899 25.0539 24.2556 26.5727L24.2701 26.5851L24.2889 26.5842C24.3051 26.5836 24.3212 26.5823 24.3353 26.5802C24.4266 26.5672 24.4739 26.5251 24.5004 26.4834C24.5074 26.5321 24.5117 26.5812 24.5187 26.6299L24.5665 26.623L24.5734 26.6709C24.576 26.6705 24.5787 26.6701 24.5822 26.6696C25.0392 26.6042 25.045 26.0764 25.0506 25.6101C25.0537 25.3539 25.0561 25.1122 25.1228 24.9463L25.1257 24.9351C25.4342 22.6901 26.1596 20.3953 27.281 18.1144C31.5251 9.79079 39.1792 3.41121 47.7562 1.04721C47.966 1.04791 48.156 0.986357 48.3054 0.893565C49.9189 1.10275 52.3425 1.80061 53.3339 3.06234C53.7053 3.5352 53.8521 4.05558 53.7697 4.61057L53.7733 4.61006Z" fill="#C4DD9C"/>
<path d="M43.5015 32.1868C42.5439 27.8653 43.4868 23.1822 44.6491 18.9522C44.6959 18.7864 44.7467 18.63 44.7936 18.4778C46.3516 13.7663 48.5568 8.86635 52.6039 5.79601C52.8865 5.62991 54.3286 4.57295 54.324 5.17195C53.9291 5.48789 53.4529 5.70971 53.0564 6.03401C46.91 11.4421 44.3722 20.156 43.953 28.0929C43.9412 29.04 43.9702 29.9939 44.0771 30.9358C44.1812 31.436 44.3873 32.6674 43.4998 32.188L43.5015 32.1868Z" fill="black"/>
<path d="M43.8981 32.3396C43.7848 32.3558 43.643 32.3191 43.4765 32.2291L43.4569 32.2184L43.4519 32.1965C42.471 27.7689 43.4818 23.011 44.6001 18.9401L44.6017 18.9326C44.6342 18.8186 44.6682 18.7089 44.7016 18.6011L44.7449 18.462C46.1357 14.2553 48.2817 9.01132 52.5726 5.75604C52.62 5.72756 52.6902 5.68136 52.7786 5.6235C53.3693 5.23526 54.0211 4.83193 54.271 4.96788C54.3171 4.99292 54.372 5.04833 54.3715 5.17131L54.3713 5.19485L54.3535 5.20915C54.1588 5.36447 53.9422 5.49941 53.7322 5.6298C53.514 5.76589 53.2873 5.9059 53.0866 6.07019C45.8566 12.4324 44.2906 22.5997 44.0016 28.0939C43.9884 29.1506 44.029 30.0784 44.1255 30.9287C44.28 31.6676 44.2507 32.1255 44.0392 32.2832C43.9983 32.3135 43.9514 32.3328 43.8982 32.3405L43.8981 32.3396ZM43.5425 32.1537C43.7398 32.2565 43.8877 32.2733 43.981 32.2048C44.0814 32.1299 44.2218 31.8666 44.0292 30.9443C43.9316 30.086 43.8912 29.1536 43.9045 28.0906C44.1302 23.8085 44.9628 19.6618 46.3116 16.0965C47.8899 11.9253 50.1484 8.52717 53.0245 5.99594L53.045 6.01921L53.0252 5.99493C53.2308 5.82721 53.4598 5.68416 53.6814 5.54668C53.8814 5.42224 54.089 5.29401 54.2742 5.14819C54.2694 5.07657 54.2371 5.0595 54.2254 5.05305C54.0049 4.93367 53.1839 5.4742 52.8328 5.70523C52.7427 5.76422 52.6718 5.81144 52.6275 5.83675C48.3636 9.07191 46.2251 14.2994 44.8387 18.4919L44.7961 18.63C44.7627 18.7378 44.7278 18.8477 44.6955 18.9626C43.5821 23.0166 42.5753 27.7522 43.5434 32.1535L43.5425 32.1537Z" fill="black"/>
<path d="M32.843 26.764C31.2496 26.6315 28.671 25.9503 28.718 23.9868C29.0084 23.7545 29.042 24.4375 29.2038 24.5707C29.4488 24.9433 29.831 25.2203 30.2244 25.4116C32.4623 26.409 35.1657 26.144 37.3364 25.1382C37.9816 24.9853 38.4508 23.9827 39.0947 24.3578C39.593 26.0579 34.1078 27.0375 32.8439 26.7638L32.843 26.764Z" fill="black"/>
<path d="M34.786 26.7415C33.9375 26.863 33.1992 26.8892 32.8346 26.8112C32.1211 26.7516 28.6116 26.3357 28.6682 23.9848L28.6686 23.9622L28.6864 23.9479C28.7505 23.8963 28.8122 23.8793 28.8688 23.8956C28.9875 23.9292 29.0482 24.1013 29.1064 24.2674C29.1458 24.3783 29.1858 24.4937 29.2329 24.5322L29.2425 24.5426C29.5116 24.9514 29.9354 25.2161 30.2426 25.3665C32.3114 26.2878 34.955 26.1859 37.3131 25.0936L37.3225 25.0904C37.5665 25.0329 37.7904 24.8418 38.0072 24.658C38.3464 24.369 38.6978 24.0711 39.1168 24.3148L39.1335 24.3241L39.1388 24.3424C39.2289 24.6494 39.1397 24.9487 38.875 25.2333C38.1567 26.005 36.2967 26.5235 34.7857 26.7398L34.786 26.7415ZM28.765 24.0108C28.7342 26.2576 32.1574 26.6578 32.8461 26.7147L32.8526 26.7155C33.8198 26.925 37.7257 26.3279 38.8051 25.1683C39.0393 24.9161 39.123 24.6546 39.0524 24.3891C38.7005 24.1972 38.4088 24.4451 38.0711 24.732C37.8471 24.9223 37.6159 25.1189 37.3513 25.1839C34.9685 26.287 32.2969 26.3884 30.2038 25.4552L30.2111 25.437L30.2027 25.4544C29.8851 25.3002 29.4482 25.0265 29.167 24.6022C29.1025 24.5436 29.0602 24.4249 29.016 24.2993C28.9703 24.1694 28.9138 24.0084 28.8431 23.9878C28.8223 23.9818 28.7963 23.9891 28.7658 24.0097L28.765 24.0108Z" fill="black"/>
<path d="M30.8452 32.8491C30.2239 32.6696 29.6567 32.3314 29.2278 31.8424C28.8066 31.3622 28.5454 30.7434 28.4842 30.1077C28.4521 29.7824 28.4582 29.4589 28.5058 29.1348C28.5486 28.834 28.6348 28.5397 28.7443 28.2565C28.8525 27.9771 28.9878 27.6974 29.1486 27.4439C29.3165 27.1776 29.4966 26.9205 29.7062 26.6862C29.8177 26.5618 29.9319 26.4442 30.0526 26.3401C30.0697 26.3269 30.0847 26.312 30.0996 26.2964C30.1168 26.2776 30.132 26.2574 30.1504 26.2403C30.215 26.1804 30.3151 26.1787 30.3784 26.242C30.4387 26.3038 30.4404 26.4103 30.3758 26.4701C30.3638 26.4809 30.3509 26.4918 30.338 26.5027C30.3228 26.5166 30.3092 26.5294 30.2942 26.5442C30.2236 26.6257 30.1592 26.7126 30.0916 26.7955C29.9987 26.9109 29.9118 27.03 29.8268 27.1498C29.716 27.3166 29.6127 27.485 29.516 27.6615C29.4384 27.8145 29.3693 27.9691 29.3071 28.128C29.2512 28.2869 29.2035 28.4465 29.1627 28.6096C29.1239 28.7869 29.0961 28.9653 29.0761 29.1472C29.0649 29.3024 29.06 29.4577 29.0642 29.6134C29.0742 29.753 29.0896 29.8918 29.1129 30.0294C29.1345 30.1294 29.1585 30.2281 29.1851 30.3192C29.1869 30.3253 29.1895 30.3312 29.1914 30.3382L29.1946 30.3476C29.2305 30.4528 29.2715 30.5563 29.3167 30.6574C29.37 30.7645 29.4273 30.8684 29.489 30.9707C29.5476 31.0581 29.6101 31.1414 29.6761 31.2232C29.7475 31.3052 29.8219 31.3831 29.9004 31.4578C29.9905 31.5379 30.0843 31.6122 30.183 31.683C30.2786 31.7452 30.3763 31.8027 30.4763 31.857C30.5745 31.9053 30.6758 31.9496 30.7775 31.9911C30.9087 32.0365 31.041 32.0763 31.1751 32.1104C31.3242 32.1415 31.473 32.1645 31.6236 32.1809C31.7834 32.1923 31.9422 32.1967 32.1026 32.1936C32.3134 32.1824 32.5214 32.1581 32.6739 32.1308C32.8885 32.0893 33.0977 32.0358 33.3053 31.9708C33.5051 31.9016 33.7016 31.8219 33.894 31.7329C34.1 31.6311 34.2972 31.5188 34.4903 31.3963C34.675 31.2722 34.8531 31.1401 35.0241 30.9963C35.1875 30.85 35.345 30.7 35.4947 30.5394C35.6428 30.3745 35.7798 30.2012 35.9066 30.0203C36.01 29.8646 36.1075 29.706 36.1957 29.5397L36.1954 29.537C36.2815 29.3683 36.3589 29.1955 36.4194 29.0313C36.4213 29.0257 36.4233 29.0208 36.4252 29.0152C36.475 28.8706 36.5183 28.7244 36.5538 28.5747C36.585 28.4328 36.6079 28.2894 36.6226 28.1463C36.6348 28.0045 36.6397 27.8619 36.6348 27.7198C36.6271 27.5907 36.6133 27.4626 36.5921 27.3336C36.5702 27.2184 36.5423 27.1058 36.5083 26.994C36.4751 26.8948 36.4367 26.7973 36.4077 26.7337C36.4024 26.7218 36.3971 26.7099 36.3909 26.6981C36.3906 26.6963 36.3896 26.6956 36.3885 26.6939C36.3881 26.6913 36.3884 26.6931 36.3885 26.6939C36.3428 26.602 36.2928 26.5115 36.238 26.4254C36.2321 26.4163 36.2253 26.4064 36.2195 26.3973C36.1543 26.3018 36.1224 26.1925 36.14 26.076C36.1571 25.9678 36.2162 25.869 36.3043 25.8031C36.4822 25.6691 36.769 25.6968 36.8985 25.8879C36.9982 26.0345 37.0831 26.186 37.1448 26.3136C37.2163 26.4597 37.2738 26.6088 37.3053 26.7091C37.5817 27.5535 37.5193 28.4626 37.2273 29.2827C37.145 29.5095 37.0489 29.7285 36.9624 29.8945C36.6909 30.4287 36.3242 30.9105 35.8993 31.3329C35.4792 31.7509 34.9858 32.1117 34.4596 32.3813C33.8954 32.6709 33.2988 32.872 32.6703 32.9647L32.6624 32.9658C32.0619 33.0518 31.4322 33.0226 30.8467 32.8534L30.8452 32.8491Z" fill="black"/>
<path d="M39.1399 24.3441L39.1346 24.3259L39.1179 24.3166C38.6989 24.0729 38.3475 24.3708 38.0083 24.6598C37.7915 24.8436 37.5676 25.0347 37.3237 25.0922L37.3142 25.0954C34.9561 26.1877 32.3135 26.2903 30.2437 25.3683C29.9357 25.218 29.5127 24.9532 29.2436 24.5443L29.234 24.534C29.1868 24.4946 29.146 24.3803 29.1075 24.2692C29.0494 24.103 28.9886 23.931 28.8699 23.8974C28.8124 23.8812 28.7517 23.8989 28.6876 23.9497L28.6697 23.964L28.6694 23.9866C28.6423 25.0859 29.3954 25.7627 30.2781 26.1768C30.2276 26.1903 30.1795 26.2144 30.1499 26.2412C30.1316 26.2583 30.1164 26.2786 30.0992 26.2973C30.0843 26.313 30.0683 26.3279 30.0522 26.3411C29.9315 26.4451 29.8173 26.5627 29.7058 26.6871C29.4962 26.9214 29.317 27.1784 29.1482 27.4448C28.9874 27.6983 28.8521 27.978 28.7439 28.2574C28.6335 28.5408 28.5482 28.835 28.5054 29.1357C28.4579 29.4607 28.4517 29.7833 28.4838 30.1086C28.545 30.7443 28.8062 31.3631 29.2274 31.8433C29.6561 32.3315 30.2233 32.6696 30.8448 32.85C31.4294 33.0194 32.059 33.0486 32.6604 32.9625L32.6684 32.9613C33.2961 32.8697 33.8935 32.6675 34.4576 32.378C34.9848 32.1082 35.4783 31.7483 35.8974 31.3295C36.3223 30.9071 36.6889 30.4253 36.9604 29.8912C37.0469 29.7251 37.143 29.5062 37.2253 29.2793C37.5172 28.4584 37.5797 27.5501 37.3034 26.7058C37.2727 26.6053 37.2144 26.4564 37.1428 26.3103C37.1274 26.2781 37.1099 26.2445 37.0922 26.2091C37.8519 25.9539 38.512 25.6271 38.877 25.235C39.1418 24.9503 39.2307 24.6502 39.1408 24.344L39.1399 24.3441Z" fill="black"/>
<path d="M36.3875 26.6914C36.3877 26.6932 36.3889 26.6948 36.3899 26.6956C36.3961 26.7073 36.4014 26.7192 36.4067 26.7311C36.4357 26.7947 36.4742 26.8932 36.5073 26.9915C36.5413 27.1032 36.5692 27.2158 36.5911 27.3311C36.6123 27.46 36.6261 27.5882 36.6338 27.7172C36.6379 27.8595 36.6339 28.0019 36.6216 28.1438C36.607 28.2878 36.5831 28.4304 36.5528 28.5721C36.5173 28.7218 36.474 28.8681 36.4242 29.0126C36.4223 29.0183 36.4203 29.0231 36.4184 29.0288C36.3579 29.1929 36.2814 29.3657 36.1961 29.5342L36.1965 29.5369C36.1072 29.7024 36.0098 29.8619 35.9065 30.0177C35.7798 30.1994 35.6418 30.3719 35.4946 30.5367C35.3449 30.6973 35.1883 30.8472 35.024 30.9936C34.8537 31.1364 34.6757 31.2694 34.4902 31.3936C34.2972 31.517 34.0999 31.6284 33.8939 31.7302C33.7015 31.8192 33.505 31.8989 33.3052 31.9682C33.0976 32.0331 32.8883 32.0866 32.6738 32.1282C32.5222 32.1553 32.3133 32.1798 32.1025 32.191C31.942 32.194 31.7832 32.1897 31.6234 32.1782C31.4729 32.1618 31.3239 32.1379 31.175 32.1077C31.04 32.0737 30.9086 32.0338 30.7774 31.9884C30.6749 31.9479 30.5745 31.9035 30.4762 31.8544C30.3753 31.8001 30.2785 31.7426 30.1829 31.6803C30.0843 31.6104 29.9904 31.5353 29.9002 31.4551C29.8218 31.3804 29.7473 31.3025 29.676 31.2205C29.61 31.1387 29.5484 31.0553 29.4889 30.968C29.4272 30.8657 29.3699 30.7618 29.3166 30.6547C29.2712 30.5527 29.2303 30.4501 29.1945 30.345L29.1913 30.3355C29.1896 30.3294 29.1869 30.3235 29.185 30.3165C29.1585 30.2263 29.1353 30.1275 29.1128 30.0268C29.0895 29.8891 29.0732 29.7504 29.0641 29.6107C29.0607 29.4549 29.0656 29.2996 29.076 29.1445C29.096 28.9626 29.1248 28.785 29.1626 28.6069C29.2033 28.4429 29.2511 28.2843 29.307 28.1253C29.3692 27.9664 29.4383 27.8119 29.5159 27.6589C29.6117 27.4824 29.7159 27.3139 29.8267 27.1471C29.9116 27.0265 29.9986 26.9083 30.0914 26.7928C30.1591 26.7099 30.2235 26.623 30.2941 26.5415C30.3082 26.5268 30.3218 26.514 30.3378 26.5C30.3507 26.4891 30.3628 26.4783 30.3757 26.4674C30.4236 26.4235 30.4687 26.3285 30.4656 26.2557C31.4247 26.6607 32.4801 26.779 32.836 26.8094C33.2006 26.8873 33.9389 26.8612 34.7874 26.7397C35.2577 26.6724 35.7626 26.5757 36.2554 26.4509C36.3027 26.5282 36.3475 26.6076 36.388 26.6886L36.3875 26.6914Z" fill="white"/>
<path d="M9.75364 41.784C10.0055 41.0746 13.8505 40.4437 14.4996 40.1104C19.1802 38.8076 23.8672 37.5302 28.5543 36.2473C33.2468 34.9645 37.9419 33.6868 42.6355 32.4047C43.102 32.3488 43.8446 31.8159 44.0826 32.4561C44.1927 33.2628 42.1652 33.2485 41.5976 33.5584C37.6827 34.6223 33.7703 35.6849 29.8551 36.747C25.1568 38.0216 20.4594 39.2951 15.758 40.5539C14.8504 40.6287 9.84952 42.5169 9.75364 41.784Z" fill="black"/>
<path d="M10.5812 41.9639C10.2084 42.0173 9.92973 42.0156 9.79912 41.9304C9.74533 41.8956 9.71419 41.8485 9.70671 41.7899L9.70506 41.7784L9.70898 41.7679C9.88421 41.2747 11.6058 40.8438 12.9897 40.4975C13.6729 40.3264 14.2636 40.1786 14.4792 40.0682L14.4887 40.065C18.4297 38.9685 22.4419 37.8708 26.3221 36.8101L28.5443 36.2018C31.1797 35.481 33.8164 34.7628 36.4539 34.0436C38.5111 33.4825 40.5693 32.9212 42.6264 32.3592C42.7577 32.3422 42.9033 32.2924 43.0575 32.2396C43.452 32.1036 43.9428 31.933 44.1321 32.4409L44.1329 32.4463L44.1345 32.4514C44.2149 33.0383 43.3134 33.2125 42.5183 33.3661C42.1516 33.4367 41.8051 33.5044 41.6249 33.6025L41.6146 33.6067C37.6997 34.6706 33.7872 35.7332 29.8721 36.7953C25.3435 38.0239 20.525 39.3301 15.774 40.6023C15.4651 40.6284 14.6956 40.8597 13.8046 41.1265C12.6529 41.4721 11.3954 41.8492 10.5841 41.9653L10.5812 41.9639ZM9.80503 41.7885C9.81123 41.8129 9.82579 41.8325 9.85173 41.8496C10.2313 42.0954 12.2791 41.4813 13.774 41.0323C14.67 40.7631 15.4438 40.5303 15.7548 40.5056C20.4969 39.2347 25.3154 37.9285 29.8439 36.6999C33.7565 35.6382 37.668 34.5757 41.5813 33.5129C41.7761 33.4091 42.127 33.3408 42.4982 33.2696C43.2484 33.1242 44.0989 32.96 44.0375 32.4681C43.8921 32.084 43.5664 32.164 43.0877 32.3302C42.9284 32.3855 42.7767 32.4371 42.6435 32.4534C40.5933 33.0135 38.5361 33.5747 36.478 34.136C33.8414 34.8551 31.2048 35.5742 28.5684 36.2941L26.3462 36.9024C22.4678 37.9629 18.4582 39.0602 14.5181 40.1566C14.2896 40.2716 13.6972 40.4206 13.0122 40.5919C11.734 40.9122 9.98799 41.3493 9.80427 41.7895L9.80503 41.7885Z" fill="black"/>
<path d="M25.2549 30.2933C25.1574 29.7578 24.934 29.2384 24.5985 28.8083C24.416 28.575 24.2068 28.37 23.9697 28.1915C23.8636 28.1127 23.7538 28.0408 23.6404 27.9747L23.6384 27.9732L23.6285 27.9674C23.601 27.9515 23.5687 27.9344 23.5372 27.9163C23.5283 27.8986 23.5186 27.881 23.5072 27.8646C23.4225 27.7465 23.2881 27.6853 23.1512 27.6887C23.1241 27.6889 23.0973 27.691 23.0701 27.6967C23.0243 27.705 22.9789 27.7224 22.9372 27.7473C22.6366 27.8762 22.3334 27.9992 22.0325 28.1263C21.5814 28.3147 21.131 28.5021 20.6801 28.6923C19.6089 29.1457 18.5359 29.5994 17.4671 30.057C16.9145 30.2943 16.3626 30.5306 15.8109 30.7677C15.2489 31.0091 14.6851 31.2443 14.1262 31.4943C14.1246 31.4954 14.0939 31.5088 14.0633 31.5222L14.0184 31.5431C13.9411 31.5777 13.8356 31.6235 13.7325 31.6735C13.6352 31.72 13.5227 31.7614 13.4447 31.835C13.3465 31.9258 13.3825 32.0951 13.5112 32.1354C13.534 32.143 13.5578 32.145 13.5809 32.1426L13.5818 32.1425C13.5818 32.1425 13.5856 32.1438 13.5883 32.1434C13.5883 32.1434 13.5874 32.1435 13.5865 32.1436C13.5962 32.1423 13.6061 32.1417 13.6158 32.1403C13.6796 32.1312 13.7434 32.1094 13.8038 32.0899C13.8771 32.065 13.9523 32.0407 14.0254 32.0148C14.5932 31.8142 15.1572 31.5997 15.7208 31.3889C16.299 31.1723 16.8753 30.9552 17.4545 30.7394C17.5171 30.716 17.5796 30.6917 17.6415 30.6692C17.6105 30.7053 17.5805 30.7548 17.5601 30.8264C17.45 30.8467 17.3874 30.984 17.349 31.0754C17.2942 31.2043 17.2443 31.3353 17.2058 31.4709C17.122 31.7631 17.0686 32.0718 17.065 32.3751C17.0611 32.6694 17.072 32.967 17.1387 33.2557C17.2062 33.5506 17.3093 33.835 17.454 34.1008C17.745 34.6376 18.1849 35.0772 18.7142 35.3783C19.3336 35.7334 20.1096 35.87 20.8665 35.7969C20.9333 35.79 21 35.7823 21.0656 35.7729C22.1417 35.6188 23.1381 35.0722 23.8978 34.2991C24.3458 33.8364 24.7104 33.3024 24.9616 32.7079C24.9617 32.7088 24.9628 32.7041 24.9648 32.6993C24.9695 32.6878 24.9751 32.6761 24.9796 32.6637C25.1299 32.2924 25.2384 31.8955 25.2882 31.4852C25.3354 31.0889 25.3258 30.6872 25.2524 30.2946L25.2549 30.2933Z" fill="black"/>
<path d="M24.474 30.9719L24.4742 30.9737C24.4748 30.9899 24.4742 31.0054 24.4748 31.0215C24.4729 31.1348 24.4627 31.2845 24.4451 31.4334C24.4248 31.5755 24.394 31.7264 24.3568 31.8772C24.3098 32.0475 24.2529 32.212 24.1869 32.376C24.1217 32.5264 24.0497 32.674 23.9701 32.8183C23.8779 32.9761 23.7786 33.1286 23.6712 33.2751C23.5455 33.4386 23.4106 33.5953 23.2664 33.7433C23.1477 33.8607 23.0245 33.9723 22.8949 34.0776C22.7341 34.2046 22.5658 34.3227 22.3903 34.4292C22.2258 34.5241 22.0591 34.6094 21.8865 34.6857C21.7176 34.7559 21.5455 34.8167 21.371 34.8661C21.2019 34.9102 21.0315 34.9445 20.858 34.9703C20.713 34.9865 20.568 34.9964 20.4228 34.9982C20.2733 34.9961 20.1255 34.9866 19.9774 34.968C19.8525 34.9479 19.7287 34.9232 19.6058 34.8919C19.4721 34.8542 19.3428 34.8094 19.2151 34.7572C19.1108 34.7106 19.0104 34.6599 18.9112 34.6045C18.8182 34.5483 18.7273 34.4881 18.6394 34.4229C18.566 34.3647 18.4957 34.3034 18.426 34.2393C18.4176 34.2314 18.4093 34.2236 18.4018 34.2156C18.3316 34.1416 18.2639 34.0663 18.2002 33.9878L18.1969 33.9837C18.1926 33.9789 18.1892 33.974 18.1849 33.9692C18.1278 33.8924 18.0666 33.7999 18.007 33.7054C17.9501 33.6042 17.8981 33.5005 17.8497 33.3953C17.7887 33.2477 17.7366 33.0979 17.6929 32.9442C17.6639 32.8236 17.6394 32.7033 17.6201 32.5813C17.6047 32.4416 17.5958 32.3037 17.5929 32.164L17.5924 32.1605C17.5923 32.1533 17.5922 32.1461 17.592 32.1388C17.5957 31.9494 17.6125 31.7454 17.6377 31.5421C17.6518 31.4452 17.667 31.349 17.6857 31.2523C17.7017 31.1687 17.7203 31.0838 17.7215 30.9977C17.7223 30.9524 17.8505 30.6485 17.8153 30.6047C17.8153 30.6047 17.8153 30.6047 17.8144 30.6048C18.7829 30.242 19.7495 29.8723 20.7172 29.5042C21.2186 29.3131 21.7195 29.1184 22.219 28.9267C22.4676 28.8324 22.7131 28.7358 22.9606 28.6398C22.9906 28.6283 23.0205 28.6159 23.0504 28.6043C23.076 28.6251 23.1032 28.6447 23.1326 28.6604C23.1541 28.6717 23.1756 28.6831 23.1972 28.6954C23.2908 28.7489 23.3806 28.8083 23.4664 28.8711C23.5497 28.9351 23.631 29.0039 23.7074 29.077C23.7792 29.149 23.8479 29.225 23.9127 29.3052C23.9817 29.3956 24.0456 29.4886 24.1046 29.585C24.1601 29.6819 24.2096 29.7815 24.2549 29.8835C24.299 29.9892 24.3361 30.0969 24.369 30.207C24.4042 30.3393 24.4306 30.4729 24.45 30.6084C24.4637 30.7294 24.4729 30.851 24.475 30.9727L24.474 30.9719Z" fill="white"/>
<path d="M0.638626 22.7354C-0.203467 22.2197 2.57727 19.5277 3.05908 19.023C6.11377 16.3569 10.0905 13.6536 14.3192 14.0867C14.5669 14.1191 14.7384 14.3638 14.6784 14.6074C14.5319 15.1562 13.8644 14.799 13.504 14.8262C8.46728 15.1821 3.66413 18.5206 0.9195 22.6518C0.9195 22.6518 0.919373 22.6509 0.918361 22.6502C0.84702 22.7264 0.740744 22.7606 0.638626 22.7354Z" fill="black"/>
<path d="M0.752888 22.7888C0.71126 22.7948 0.668492 22.7927 0.626355 22.7825L0.612941 22.7772C0.510811 22.7141 0.450427 22.6206 0.435587 22.498C0.339825 21.7218 2.15677 19.8736 2.83984 19.1775C2.91725 19.0995 2.97948 19.0355 3.02274 18.9904C7.23844 15.3111 10.9338 13.6921 14.3232 14.0393C14.4576 14.0562 14.5785 14.1311 14.6553 14.2439C14.7308 14.3551 14.7568 14.4924 14.7245 14.62C14.6078 15.0551 14.1936 14.9779 13.8621 14.916C13.7294 14.8917 13.6049 14.8679 13.5074 14.8755C8.81524 15.2074 3.88952 18.2707 0.959607 22.6797L0.929886 22.7246L0.919634 22.7161C0.871058 22.7556 0.813241 22.7811 0.753014 22.7897L0.752888 22.7888ZM0.657327 22.6895C0.738438 22.7068 0.824093 22.6801 0.882784 22.6166L0.887464 22.6114C3.83382 18.1847 8.78218 15.1091 13.5006 14.7771C13.6105 14.7686 13.7415 14.7932 13.8808 14.8194C14.2783 14.8935 14.5456 14.9176 14.6313 14.5944C14.6567 14.4941 14.6357 14.385 14.5761 14.2968C14.5144 14.2072 14.4191 14.1476 14.3132 14.1338C10.9532 13.7896 7.28199 15.4007 3.09122 19.0583C3.05036 19.1012 2.98813 19.1653 2.91084 19.2441C2.23638 19.9309 0.44397 21.7547 0.533139 22.4849C0.5443 22.5755 0.585443 22.6419 0.658213 22.6894L0.657327 22.6895Z" fill="black"/>
<path d="M24.2905 26.5349C21.4498 24.0918 19.2492 20.7283 16.6705 17.944C16.2817 17.2106 13.5916 14.999 14.2139 14.4019C14.7633 13.6436 18.2156 18.7549 18.9681 19.3459C19.4006 20.1634 25.6773 26.4928 24.2904 26.5341L24.2905 26.5349Z" fill="black"/>
<path d="M24.3395 26.5793C24.3253 26.5813 24.3094 26.5836 24.2931 26.5832L24.2742 26.5841L24.2598 26.5717C22.4941 25.053 20.953 23.1523 19.4633 21.3139C18.5544 20.1922 17.6138 19.0325 16.6356 17.9768L16.6288 17.9669C16.5012 17.7258 16.1007 17.3023 15.6777 16.854C14.7669 15.8898 13.7337 14.7968 14.182 14.3675C14.2218 14.3111 14.2841 14.2787 14.3625 14.2774C14.9339 14.2661 16.3311 16.0392 17.5629 17.6036C18.2015 18.4151 18.7536 19.1152 19 19.3086L19.013 19.3239C19.1456 19.5743 19.8728 20.3921 20.7141 21.3382C22.93 23.83 24.7461 25.9345 24.5208 26.4566C24.4998 26.5057 24.4512 26.5642 24.3405 26.58L24.3395 26.5793ZM24.308 26.4853C24.4044 26.4769 24.4234 26.4326 24.4302 26.4172C24.6486 25.9096 22.2366 23.1972 20.6401 21.4021C19.7696 20.4231 19.0793 19.6479 18.9304 19.3782C18.6719 19.1694 18.1218 18.4708 17.4856 17.6635C16.3888 16.2714 14.8865 14.3642 14.3628 14.3741C14.315 14.3746 14.2806 14.3931 14.2534 14.4304C13.8688 14.8 14.9542 15.948 15.7468 16.7872C16.19 17.257 16.5734 17.6621 16.71 17.9155C17.6892 18.972 18.6289 20.1318 19.5377 21.2526C21.0207 23.082 22.5543 24.9748 24.308 26.4853Z" fill="black"/>
<path d="M24.573 26.6213C23.5195 19.3445 30.5874 10.3662 36.1194 6.05201C38.1881 4.41547 40.4365 2.99904 42.8284 1.88384C44.5116 1.10239 46.2645 0.467317 48.0733 0.0465695C49.0202 0.138783 48.5248 1.00326 47.7565 0.99666C38.9445 3.42324 31.3706 9.9974 27.2446 18.0908C26.1834 20.2492 25.4088 22.5664 25.0842 24.9267C24.8855 25.4206 25.2278 26.5357 24.5737 26.6203L24.573 26.6213Z" fill="black"/>
<path d="M24.5861 26.669C24.5861 26.669 24.5808 26.6698 24.5773 26.6703L24.5704 26.6225L24.5226 26.6293C23.9222 22.4799 25.9912 18.1246 27.8332 15.2009C29.9638 11.8192 33.0472 8.38704 36.0822 6.01925L36.0879 6.01481C38.2143 4.33296 40.4744 2.92931 42.8052 1.84184C44.5782 1.01861 46.346 0.39947 48.0596 0.00139975L48.0676 0.000258024L48.0757 1.76218e-06C48.4405 0.0354489 48.6506 0.196082 48.638 0.430169C48.6222 0.723473 48.2447 1.04776 47.7602 1.04752C39.1823 3.41165 31.5282 9.79123 27.285 18.1147C26.1636 20.3956 25.4383 22.6904 25.1297 24.9354L25.1268 24.9467C25.0601 25.1126 25.0577 25.3542 25.0546 25.6105C25.049 26.0767 25.0433 26.6045 24.5862 26.6699L24.5861 26.669ZM35.8676 6.31299C30.8461 10.3426 23.5786 19.1641 24.612 26.5659C24.9469 26.4872 24.9517 26.0599 24.9568 25.6091C24.9599 25.3465 24.9631 25.0975 25.0338 24.9157C25.3439 22.6623 26.0725 20.359 27.1973 18.0703C31.4548 9.7204 39.1341 3.32094 47.74 0.950986L47.7471 0.949971L47.7533 0.949083C48.1804 0.95212 48.5269 0.670232 48.5405 0.424251C48.5495 0.247611 48.3798 0.129101 48.0733 0.0970536C46.3686 0.493856 44.6102 1.10983 42.8457 1.92913C40.5208 3.01306 38.2673 4.41304 36.1466 6.09046L35.8665 6.31223L35.8676 6.31299Z" fill="black"/>
<path d="M9.75875 41.3422C9.54628 41.2659 9.41524 41.0136 9.50363 40.7975C9.50363 40.7975 9.50439 40.7965 9.50426 40.7956C9.31309 36.1773 4.07649 27.3147 1.01008 23.7371C0.97198 23.6982 0.933883 23.6594 0.898949 23.6237C0.896798 23.6213 0.89376 23.619 0.891609 23.6166C0.899076 23.6246 0.907429 23.6324 0.914897 23.6404C0.667704 23.3784 0.396489 23.1823 0.111612 22.998C0.112498 22.9979 0.114269 22.9976 0.115155 22.9975C1.8961 21.3461 13.0997 41.1052 9.75888 41.3431L9.75875 41.3422Z" fill="black"/>
<path d="M9.8225 41.3847C9.80301 41.3875 9.78353 41.3903 9.76379 41.3913L9.74443 41.3886C9.62446 41.3462 9.5241 41.2512 9.47067 41.1305C9.43078 41.0413 9.42 40.947 9.43794 40.8577L9.38125 40.8658L9.45449 40.7839L9.44499 40.7365L9.45524 40.7386C9.22652 36.2178 4.21507 27.5517 0.975888 23.771L0.881594 23.6742C0.881594 23.6742 0.877417 23.6703 0.875266 23.6679C0.871975 23.6639 0.867924 23.6608 0.863748 23.6569C0.610733 23.3921 0.328763 23.1966 0.0857764 23.0398L0.000225061 22.9851L0.0908121 22.955C0.264873 22.8008 0.517688 22.818 0.843816 23.0063C2.29753 23.8484 4.92247 27.8273 6.87882 31.3976C8.80947 34.9209 10.744 39.2417 10.3837 40.8036C10.3046 41.1476 10.1158 41.3436 9.82262 41.3856L9.8225 41.3847ZM9.76692 41.2932C10.0436 41.269 10.2149 41.1017 10.2892 40.781C10.5809 39.5164 9.2092 35.8507 6.79405 31.4431C4.48778 27.2343 2.02105 23.7985 0.796012 23.089C0.537843 22.9398 0.337155 22.908 0.197743 22.9948C0.435163 23.1506 0.7022 23.3429 0.944964 23.5992L1.0466 23.703L1.02054 23.7294L1.04875 23.7054C4.30313 27.5038 9.3447 36.2289 9.55356 40.7625L9.56976 40.7683L9.55636 40.801L9.55762 40.8098L9.55535 40.8129L9.55891 40.8883L9.53398 40.8719C9.51882 40.9428 9.52694 41.0185 9.55897 41.0907C9.6005 41.1851 9.67695 41.2582 9.76794 41.294L9.76692 41.2932Z" fill="black"/>
<path d="M54.062 5.17151C53.8534 5.0911 53.7228 4.82871 53.8237 4.61814C53.8306 4.60358 53.8376 4.58903 53.8437 4.5746C53.8367 4.58916 53.8279 4.6094 53.8222 4.62016C53.8222 4.62016 53.8215 4.62206 53.8208 4.62307C54.2039 2.09081 49.8776 0.97571 47.9331 0.803066C47.7965 0.732249 47.5533 0.788755 47.5202 0.608204C47.5209 0.505967 47.6199 0.458361 47.7034 0.479847C50.2034 -0.0633356 55.4446 1.68453 54.6104 4.93031C54.536 5.14885 54.2718 5.25446 54.062 5.17151Z" fill="black"/>
<path d="M54.2816 5.24304C54.201 5.25458 54.1193 5.2455 54.0446 5.21642C53.925 5.17027 53.8236 5.06819 53.774 4.94243C53.7644 4.9194 53.7573 4.89511 53.7521 4.87145L53.7276 4.92106L53.7427 4.81857C53.7351 4.74645 53.7457 4.67533 53.7734 4.60991C53.8557 4.05491 53.7098 3.53441 53.3375 3.06167C52.2644 1.69596 49.5144 0.991489 47.9288 0.850625L47.9108 0.845062C47.8708 0.824575 47.8135 0.81561 47.7581 0.807275C47.6435 0.789342 47.5002 0.767367 47.4722 0.615917C47.4718 0.549995 47.4962 0.499501 47.5394 0.466211C47.5841 0.431781 47.6445 0.417719 47.7031 0.429216C49.4262 0.0596118 52.4315 0.77362 53.8861 2.28448C54.6368 3.06457 54.9039 3.98349 54.6578 4.94154C54.6184 5.05745 54.5338 5.1482 54.4194 5.20163C54.3745 5.22252 54.3285 5.23632 54.2807 5.24317L54.2816 5.24304ZM53.887 4.59545L53.8677 4.63708C53.8288 4.71947 53.8271 4.81462 53.8637 4.90609C53.9035 5.00705 53.9847 5.08851 54.0795 5.12556C54.1734 5.16273 54.2821 5.15802 54.3787 5.11345C54.4686 5.07167 54.5343 5.00079 54.5644 4.91423C54.8049 3.98049 54.553 3.11724 53.8162 2.35232C52.3799 0.861448 49.4105 0.158564 47.7135 0.527148L47.702 0.528796L47.6908 0.526774C47.6589 0.518686 47.6236 0.524644 47.5992 0.543504C47.5789 0.559074 47.5693 0.580334 47.5688 0.608424C47.5824 0.678771 47.6552 0.694566 47.7734 0.711992C47.8325 0.720706 47.8945 0.73081 47.9467 0.754962C49.5508 0.898605 52.3242 1.61509 53.4148 3.0018C53.7951 3.48605 53.95 4.01883 53.875 4.58723L53.8885 4.59342L53.8888 4.59519L53.887 4.59545Z" fill="black"/>
<path d="M13.5863 32.1428C13.5863 32.1428 13.5872 32.1426 13.5881 32.1425C13.5854 32.1429 13.5836 32.1431 13.5819 32.1434L13.581 32.1435C13.5576 32.1442 13.5338 32.1421 13.5111 32.1354C13.3824 32.0951 13.3465 31.9258 13.4446 31.8349C13.5236 31.7613 13.6351 31.72 13.7324 31.6735C13.8357 31.6244 13.9411 31.5777 14.0184 31.5431L14.0633 31.5222C14.0939 31.5088 14.1245 31.4954 14.1261 31.4942C14.6851 31.2443 15.2488 31.009 15.8108 30.7677C16.3626 30.5306 16.9144 30.2943 17.467 30.057C18.5358 29.5994 19.6079 29.1458 20.68 28.6923C21.13 28.5022 21.5804 28.3148 22.0325 28.1263C22.3333 27.9992 22.6366 27.8762 22.9372 27.7473C22.9788 27.7224 23.0233 27.7052 23.07 27.6967C23.0974 27.6919 23.1249 27.6888 23.1511 27.6887C23.288 27.6853 23.4224 27.7465 23.5071 27.8646C23.5275 27.8933 23.5438 27.9253 23.5567 27.9587C23.557 27.9605 23.5571 27.9613 23.5583 27.963C23.5731 28.0034 23.5811 28.0465 23.5827 28.0896C23.5883 28.2045 23.5508 28.3211 23.4712 28.403C23.4283 28.4507 23.373 28.4875 23.3081 28.5077C23.2969 28.5111 23.2865 28.5144 23.2751 28.5169C23.1681 28.5521 23.0636 28.5987 22.9582 28.6391C22.7107 28.7351 22.4652 28.8317 22.2166 28.926C21.7162 29.1179 21.2162 29.3124 20.7148 29.5035C19.6288 29.9165 18.5441 30.333 17.4561 30.7382C16.8769 30.954 16.3006 31.1712 15.7224 31.3877C15.1579 31.5987 14.5948 31.8131 14.027 32.0137C13.9538 32.0395 13.8787 32.0638 13.8054 32.0888C13.7441 32.1084 13.6812 32.1301 13.6174 32.1392C13.6077 32.1406 13.5979 32.142 13.5881 32.1425L13.5863 32.1428Z" fill="black"/>
<path d="M20.8684 35.7949C20.1116 35.868 19.3364 35.7314 18.7161 35.3764C18.1868 35.0753 17.7471 34.6366 17.4559 34.0989C17.3121 33.833 17.209 33.5486 17.1406 33.2538C17.0741 32.9659 17.063 32.6675 17.0669 32.3731C17.0704 32.069 17.1229 31.7605 17.2077 31.469C17.2463 31.3343 17.2954 31.2034 17.3509 31.0735C17.3893 30.9821 17.4519 30.8448 17.562 30.8245C17.6035 30.8177 17.6522 30.8297 17.6776 30.8622C17.7128 30.9059 17.7203 30.9519 17.7196 30.9972C17.7183 31.0832 17.6997 31.1681 17.6837 31.2518C17.665 31.3484 17.6498 31.4446 17.6357 31.5415C17.6107 31.7458 17.5938 31.9497 17.5901 32.1383C17.5902 32.1455 17.5903 32.1527 17.5905 32.1599L17.591 32.1635C17.5938 32.3031 17.6027 32.4411 17.6182 32.5807C17.6374 32.7027 17.6619 32.823 17.6909 32.9436C17.7337 33.0975 17.7868 33.2471 17.8477 33.3948C17.8962 33.4999 17.9481 33.6037 18.0051 33.7049C18.0638 33.7995 18.1257 33.8909 18.1829 33.9686C18.1863 33.9736 18.1906 33.9784 18.1949 33.9832L18.1982 33.9872C18.2628 34.0657 18.3296 34.141 18.3999 34.215C18.4082 34.2229 18.4157 34.2309 18.424 34.2387C18.4929 34.303 18.5631 34.3643 18.6374 34.4224C18.7254 34.4875 18.8162 34.5477 18.9093 34.604C19.0085 34.6594 19.1097 34.7099 19.2131 34.7566C19.3418 34.8096 19.471 34.8535 19.6039 34.8914C19.7267 34.9226 19.8496 34.9475 19.9754 34.9674C20.1234 34.9851 20.2714 34.9956 20.4208 34.9977C20.5669 34.9957 20.711 34.9859 20.856 34.9697C21.0296 34.9449 21.1999 34.9096 21.369 34.8655C21.5445 34.816 21.7155 34.7545 21.8845 34.6851C22.0571 34.6089 22.2247 34.5234 22.3883 34.4286C22.5638 34.3221 22.7313 34.2041 22.8929 34.0771C23.0225 33.9717 23.1456 33.8592 23.2645 33.7428C23.4096 33.5946 23.5436 33.4389 23.6692 33.2745C23.7766 33.1281 23.8759 32.9756 23.9681 32.8177C24.0478 32.6735 24.1198 32.5267 24.185 32.3755C24.2511 32.2123 24.3087 32.0468 24.3549 31.8766C24.392 31.7258 24.4228 31.5749 24.4432 31.4328C24.4616 31.2838 24.4709 31.1342 24.4728 31.021C24.4723 31.0048 24.4728 30.9893 24.4723 30.9731L24.472 30.9714C24.47 30.8497 24.4607 30.7281 24.447 30.6071C24.4276 30.4716 24.4012 30.338 24.366 30.2056C24.334 30.0954 24.296 29.9879 24.2519 29.8821C24.2066 29.7802 24.1569 29.6797 24.1016 29.5837C24.0425 29.4864 23.9786 29.3934 23.9097 29.3039C23.845 29.2245 23.7772 29.1484 23.7044 29.0757C23.628 29.0025 23.5467 28.9337 23.4634 28.8697C23.3767 28.8071 23.2878 28.7476 23.1943 28.6941C23.1726 28.6818 23.1511 28.6704 23.1296 28.659C23.0308 28.6063 22.9533 28.5261 22.9153 28.4186C22.8776 28.3128 22.8849 28.1933 22.9344 28.0914C23.0352 27.8862 23.2956 27.792 23.5023 27.8971C23.5462 27.9197 23.5894 27.9443 23.6278 27.9659L23.6377 27.9717L23.6397 27.9732C23.7532 28.0401 23.8629 28.1121 23.969 28.19C24.2051 28.3686 24.4154 28.5744 24.5978 28.8068C24.9332 29.2369 25.1567 29.7562 25.2542 30.2918C25.3265 30.6836 25.3363 31.0863 25.2899 31.4825C25.2402 31.8927 25.1316 32.2896 24.9814 32.6609C24.9767 32.6724 24.9712 32.6841 24.9666 32.6965C24.9646 32.7013 24.9626 32.7061 24.9633 32.7051C24.7121 33.2987 24.3476 33.8336 23.8996 34.2963C23.139 35.0695 22.1434 35.616 21.0673 35.7701C21.0009 35.7796 20.9351 35.7872 20.8683 35.7941L20.8684 35.7949Z" fill="black"/>
<path d="M21.4518 35.405C21.3989 35.4017 21.3458 35.3967 21.2933 35.3897C22.1655 35.1564 22.9644 34.6697 23.5987 34.0239C23.9451 33.6661 24.2412 33.2658 24.4741 32.8284C24.4465 33.0394 24.3904 33.2472 24.3133 33.4471C24.0873 34.0091 23.6948 34.4874 23.206 34.842C22.9596 35.021 22.6863 35.1641 22.3996 35.2639C22.2414 35.32 22.0738 35.3621 21.9038 35.3864C21.7532 35.408 21.6015 35.4152 21.4518 35.405Z" fill="black"/>
<path d="M20.6439 35.1682C20.6384 35.1681 20.6321 35.1681 20.6267 35.1679C20.611 35.1467 20.5951 35.1246 20.5802 35.1023C20.4174 34.8617 20.3308 34.5848 20.2935 34.2992C20.2558 34.0108 20.3005 33.717 20.3718 33.4383C20.4302 33.2212 20.521 33.0157 20.6281 32.8169C21.0787 32.0184 21.8849 31.3806 22.8031 31.241L22.7526 31.2483C23.0329 31.2045 23.3106 31.2063 23.5863 31.2762C23.8449 31.3459 24.0904 31.4698 24.2788 31.6624C24.3187 31.6567 24.3604 31.658 24.4023 31.6665C24.4952 31.6839 24.5713 31.729 24.6348 31.7941C24.6188 31.8777 24.5994 31.9636 24.5782 32.0489C24.531 32.2184 24.4743 32.3837 24.4082 32.5469C24.3485 32.6856 24.2821 32.8216 24.2099 32.9549C24.2108 32.9358 24.2115 32.9158 24.2115 32.8968C24.2079 32.8214 24.201 32.7473 24.1903 32.673C24.1826 32.6316 24.1741 32.5912 24.1629 32.5512C24.1501 32.5124 24.1357 32.4747 24.1204 32.4371C24.1036 32.4269 24.0865 32.4149 24.0709 32.4008C23.9673 32.3144 23.9143 32.1846 23.9186 32.0502C23.9186 32.0502 23.9185 32.0494 23.9183 32.0485C23.8942 32.0375 23.87 32.0265 23.8451 32.0165C23.7925 31.9969 23.7378 31.9803 23.6832 31.9655C23.628 31.9527 23.5716 31.9436 23.5153 31.9353C23.4447 31.9283 23.3721 31.926 23.3006 31.9254C23.2107 31.9292 23.1205 31.9367 23.0311 31.9495C22.9588 31.9626 22.8878 31.9782 22.8165 31.9974C22.6995 32.0323 22.5852 32.0739 22.4737 32.1224C22.3765 32.1689 22.2832 32.2184 22.1918 32.274C22.1048 32.3298 22.0202 32.3889 21.939 32.4529C21.855 32.5228 21.7759 32.5956 21.7004 32.6742C21.6293 32.7522 21.5623 32.8332 21.4986 32.9182C21.4414 32.9987 21.3883 33.0822 21.3389 33.167C21.294 33.2512 21.253 33.3366 21.2168 33.4249C21.1892 33.4976 21.1653 33.5706 21.1445 33.6459C21.1279 33.7196 21.1139 33.7921 21.102 33.8671C21.0966 33.9239 21.0921 33.9806 21.0912 34.0376C21.0915 34.0521 21.0917 34.0665 21.0921 34.0818C21.0945 34.1239 21.0979 34.1668 21.1021 34.2087C21.1114 34.2607 21.1222 34.3107 21.1341 34.3623C21.1472 34.4038 21.1631 34.4449 21.1788 34.4851C21.179 34.4869 21.1802 34.4886 21.1813 34.4902C21.199 34.5256 21.2175 34.56 21.2378 34.5942C21.2584 34.6247 21.2798 34.6542 21.3021 34.6835C21.3237 34.7084 21.347 34.7322 21.3703 34.756C21.4003 34.7824 21.43 34.8071 21.4615 34.8315C21.4875 34.8486 21.5133 34.8648 21.54 34.8808C21.58 34.9013 21.6207 34.9208 21.6621 34.9384C21.6993 34.952 21.7363 34.9639 21.7749 34.9746C21.7785 34.975 21.7815 34.9764 21.7851 34.9768C21.7205 34.9987 21.6554 35.018 21.5904 35.0372C21.4214 35.0813 21.2501 35.1158 21.0776 35.1423C20.9326 35.1585 20.7876 35.1684 20.6423 35.1702L20.6439 35.1682Z" fill="black"/>
<path d="M21.7847 34.9759C21.72 34.9978 21.655 35.0171 21.59 35.0363C21.4209 35.0804 21.2496 35.1149 21.0772 35.1414C20.9322 35.1576 20.7872 35.1675 20.6419 35.1694C20.6365 35.1692 20.6301 35.1692 20.6247 35.1691C20.609 35.1479 20.5932 35.1257 20.5782 35.1035C20.4154 34.8628 20.3288 34.586 20.2915 34.3003C20.2539 34.012 20.2986 33.7182 20.3698 33.4395C20.4282 33.2224 20.519 33.0168 20.6261 32.818C21.0767 32.0196 21.8829 31.3818 22.8011 31.2422L22.7506 31.2494C23.0309 31.2057 23.3086 31.2075 23.5844 31.2774C23.8429 31.347 24.0884 31.471 24.2769 31.6636C24.3167 31.6579 24.3585 31.6592 24.4004 31.6676C24.4932 31.6851 24.5693 31.7302 24.6328 31.7952C24.6168 31.8789 24.5975 31.9648 24.5762 32.0501C24.5291 32.2195 24.4723 32.3849 24.4062 32.548C24.3465 32.6867 24.2801 32.8228 24.2079 32.956" fill="black"/>
<path d="M24.2597 32.9467C24.2606 32.9276 24.2613 32.9076 24.2613 32.8887C24.2578 32.8132 24.2508 32.7392 24.2401 32.6648C24.2324 32.6235 24.2239 32.5831 24.2128 32.5431C24.2 32.5043 24.1855 32.4666 24.1702 32.429C24.1534 32.4188 24.1363 32.4067 24.1207 32.3927C24.0171 32.3063 23.9642 32.1765 23.9684 32.0421C23.9684 32.0421 23.9683 32.0412 23.9682 32.0404C23.944 32.0294 23.9198 32.0184 23.8949 32.0084C23.8424 31.9888 23.7876 31.9722 23.733 31.9574C23.6779 31.9445 23.6214 31.9354 23.5651 31.9272C23.4945 31.9202 23.4219 31.9179 23.3504 31.9173C23.2606 31.9211 23.1703 31.9286 23.0809 31.9414C23.0086 31.9545 22.9377 31.9701 22.8663 31.9893C22.7493 32.0241 22.635 32.0658 22.5236 32.1143C22.4263 32.1608 22.333 32.2103 22.2416 32.2658C22.1547 32.3217 22.07 32.3808 21.9888 32.4448C21.9048 32.5147 21.8258 32.5875 21.7503 32.6661C21.6792 32.744 21.6121 32.825 21.5484 32.9101C21.4912 32.9906 21.4381 33.0741 21.3888 33.1589C21.3439 33.2431 21.3028 33.3285 21.2666 33.4168C21.2391 33.4894 21.2152 33.5625 21.1943 33.6378C21.1778 33.7115 21.1637 33.784 21.1519 33.8589C21.1464 33.9158 21.1419 33.9724 21.141 34.0295C21.1413 34.0439 21.1415 34.0584 21.1419 34.0737C21.1443 34.1158 21.1478 34.1587 21.152 34.2006C21.1612 34.2526 21.172 34.3026 21.1839 34.3542C21.1971 34.3957 21.2129 34.4368 21.2286 34.477C21.2288 34.4788 21.23 34.4804 21.2311 34.4821C21.2488 34.5175 21.2673 34.5519 21.2876 34.5861C21.3082 34.6166 21.3296 34.646 21.3519 34.6754C21.3735 34.7003 21.3968 34.7241 21.4201 34.7479C21.4501 34.7743 21.4799 34.799 21.5114 34.8234C21.5373 34.8405 21.5631 34.8566 21.5898 34.8727C21.6298 34.8932 21.6706 34.9127 21.7119 34.9302C21.7492 34.9439 21.7861 34.9558 21.8247 34.9665C21.8284 34.9669 21.8313 34.9683 21.835 34.9687" fill="black"/>
<path d="M24.6156 33.7211C24.6191 33.7133 24.6217 33.7057 24.6253 33.698C24.6183 33.7143 24.6115 33.7316 24.6045 33.748C24.6079 33.7393 24.6121 33.7297 24.6156 33.7211Z" fill="black"/>
<path d="M20.1509 33.2576C20.1509 33.2576 20.1491 33.2644 20.1487 33.2682C20.1461 33.276 20.1445 33.2846 20.142 33.2933C20.145 33.2817 20.1479 33.2692 20.151 33.2585L20.1509 33.2576Z" fill="black"/>
<path d="M20.4094 32.6376C20.4094 32.6376 20.4057 32.6435 20.4045 32.6473C20.3981 32.6591 20.3917 32.6708 20.3853 32.6826C20.3931 32.6679 20.4008 32.6533 20.4102 32.6374L20.4094 32.6376Z" fill="black"/>
<path d="M30.6459 30.0088C30.6459 30.0088 30.6477 30.0086 30.6485 30.0084L30.6503 30.0082C30.6503 30.0082 30.6494 30.0083 30.6485 30.0084C30.6537 30.0068 30.6596 30.0041 30.6647 30.0025C30.6588 30.0052 30.6519 30.007 30.646 30.0097C30.6418 30.0112 30.6376 30.0136 30.6333 30.0151C30.6376 30.0136 30.6419 30.0121 30.646 30.0097L30.6459 30.0088Z" fill="black"/>
<path d="M32.1659 32.641C32.0055 32.644 31.8467 32.6397 31.6877 32.6281C31.5372 32.6117 31.3875 32.5888 31.2393 32.5576C31.1052 32.5235 30.9722 32.4847 30.8408 32.4384C30.7391 32.3969 30.638 32.3536 30.5396 32.3044C30.4398 32.2509 30.3421 32.1935 30.2464 32.1312C30.1486 32.0603 30.0539 31.9862 29.9646 31.9049C29.8861 31.8303 29.8109 31.7534 29.7394 31.6705C29.6745 31.5895 29.6119 31.5062 29.5524 31.4189C29.4908 31.3166 29.4334 31.2127 29.3801 31.1056C29.3576 31.0555 29.3368 31.0051 29.3161 30.9548C29.3343 30.8862 29.3589 30.8185 29.3895 30.7544C29.3372 30.6227 29.3456 30.467 29.4367 30.3518C29.6883 30.032 30.0325 29.8164 30.4071 29.6679C30.4011 29.6696 30.3951 29.6723 30.389 29.6741C30.4062 29.668 30.4224 29.6612 30.4396 29.6551C30.4396 29.6551 30.4414 29.6548 30.4423 29.6547C30.4423 29.6547 30.4414 29.6548 30.4405 29.655C30.9266 29.4769 31.439 29.4135 31.955 29.4318C32.2468 29.4434 32.5396 29.4873 32.8218 29.5644C33.0907 29.6371 33.3551 29.7348 33.5968 29.8701C33.7363 29.9478 33.8665 30.0367 33.9901 30.1365C33.9799 30.128 33.9687 30.1197 33.9586 30.1121C34.1734 30.2865 34.3472 30.4903 34.4757 30.7376C34.6236 31.0256 34.6571 31.3733 34.5716 31.6856C34.553 31.7515 34.5297 31.8154 34.5023 31.8772C34.3256 31.9874 34.1458 32.0891 33.9576 32.182C33.7652 32.271 33.5687 32.3507 33.3679 32.4192C33.1594 32.4843 32.951 32.5376 32.7374 32.5799C32.7021 32.5859 32.6642 32.5922 32.6243 32.5979C32.4897 32.6172 32.3284 32.6331 32.1653 32.6429L32.1659 32.641Z" fill="black"/>
</svg>
