<svg width="21" height="19" viewBox="0 0 21 19" fill="none" xmlns="http://www.w3.org/2000/svg">
<path fill-rule="evenodd" clip-rule="evenodd" d="M13.8171 10.0938H3.28125C2.919 10.0938 2.625 9.82775 2.625 9.5C2.625 9.17225 2.919 8.90625 3.28125 8.90625H13.8171C14.1794 8.90625 14.4734 9.17225 14.4734 9.5C14.4734 9.82775 14.1794 10.0938 13.8171 10.0938Z" fill="#17301C"/>
<path fill-rule="evenodd" clip-rule="evenodd" d="M11.2556 12.4014C11.0876 12.4014 10.9188 12.3436 10.791 12.2265C10.5346 11.9937 10.5364 11.6185 10.7928 11.3873L12.8875 9.49995L10.7928 7.61183C10.5364 7.38066 10.5346 7.00541 10.791 6.77266C11.0474 6.53991 11.4621 6.53991 11.7185 6.77108L14.2814 9.07958C14.4056 9.19041 14.4748 9.34241 14.4748 9.49995C14.4748 9.65749 14.4056 9.80949 14.2814 9.92033L11.7185 12.228C11.5908 12.3436 11.4228 12.4014 11.2556 12.4014Z" fill="#17301C"/>
<path fill-rule="evenodd" clip-rule="evenodd" d="M14.911 17.4167H10.6366C8.5025 17.4167 6.76562 15.8452 6.76562 13.9136V13.1678C6.76562 12.8401 7.05962 12.5741 7.42188 12.5741C7.78412 12.5741 8.07812 12.8401 8.07812 13.1678V13.9136C8.07812 15.1897 9.22612 16.2292 10.6366 16.2292H14.911C16.3276 16.2292 17.48 15.1874 17.48 13.9049V5.0865C17.48 3.81033 16.3311 2.77087 14.9206 2.77087H10.6463C9.2305 2.77087 8.07812 3.81271 8.07812 5.09362V5.83225C8.07812 6.16 7.78412 6.426 7.42188 6.426C7.05962 6.426 6.76562 6.16 6.76562 5.83225V5.09362C6.76562 3.158 8.50688 1.58337 10.6463 1.58337H14.9206C17.0547 1.58337 18.7925 3.15483 18.7925 5.0865V13.9049C18.7925 15.8413 17.0504 17.4167 14.911 17.4167Z" fill="#17301C"/>
</svg>
