<svg width="16" height="16" viewBox="0 0 16 16" fill="none" xmlns="http://www.w3.org/2000/svg">
<path d="M7.99966 2.01031C8.18213 1.98518 8.37375 2.03527 8.52114 2.16851L13.7887 6.93511C14.0524 7.17372 14.0728 7.58041 13.8356 7.84527C13.5967 8.1119 13.1871 8.13404 12.9215 7.8941L12.4948 7.50738V13.0005C12.4945 13.5525 12.0468 14.0004 11.4948 14.0005H4.47329C3.92119 14.0005 3.47358 13.5526 3.47329 13.0005V7.5357L3.07778 7.8941C2.81222 8.1343 2.40168 8.11199 2.16274 7.84527C1.92571 7.5804 1.94702 7.17365 2.21059 6.93511L7.4772 2.16851C7.62475 2.03497 7.81693 1.98501 7.99966 2.01031ZM4.76235 6.3687V12.7046H11.2057V6.34136L7.99868 3.43902L4.76235 6.3687Z" fill="#5F6368"/>
</svg>
