<svg width="19" height="19" viewBox="0 0 19 19" fill="none" xmlns="http://www.w3.org/2000/svg">
<path fill-rule="evenodd" clip-rule="evenodd" d="M6.06878 2.77081C4.06586 2.77081 2.77148 4.14277 2.77148 6.26681V12.7331C2.77148 14.8572 4.06586 16.2291 6.06878 16.2291H12.9309C14.9347 16.2291 16.2298 14.8572 16.2298 12.7331V6.26681C16.2298 4.14277 14.9347 2.77081 12.9317 2.77081H6.06878ZM12.9309 17.4166H6.06878C3.38582 17.4166 1.58398 15.5341 1.58398 12.7331V6.26681C1.58398 3.4659 3.38582 1.58331 6.06878 1.58331H12.9317C15.6147 1.58331 17.4173 3.4659 17.4173 6.26681V12.7331C17.4173 15.5341 15.6147 17.4166 12.9309 17.4166Z" fill="#17301C"/>
<path fill-rule="evenodd" clip-rule="evenodd" d="M8.56086 11.9724C8.40965 11.9724 8.25686 11.9146 8.14128 11.7982L6.26186 9.91959C6.0299 9.68763 6.0299 9.31238 6.26186 9.08043C6.49382 8.84847 6.86907 8.84847 7.10103 9.08043L8.56086 10.5387L11.8985 7.2018C12.1305 6.96984 12.5057 6.96984 12.7377 7.2018C12.9697 7.43376 12.9697 7.80901 12.7377 8.04097L8.98044 11.7982C8.86486 11.9146 8.71286 11.9724 8.56086 11.9724Z" fill="#17301C"/>
</svg>
