<svg width="19" height="19" viewBox="0 0 19 19" fill="none" xmlns="http://www.w3.org/2000/svg">
<g clip-path="url(#clip0_2468_6630)">
<path d="M3.95703 11.875H3.16536C2.74544 11.875 2.34271 11.7082 2.04578 11.4113C1.74885 11.1144 1.58203 10.7116 1.58203 10.2917V3.16671C1.58203 2.74678 1.74885 2.34405 2.04578 2.04712C2.34271 1.75019 2.74544 1.58337 3.16536 1.58337H10.2904C10.7103 1.58337 11.113 1.75019 11.4099 2.04712C11.7069 2.34405 11.8737 2.74678 11.8737 3.16671V3.95837M8.70703 7.12504H15.832C16.7065 7.12504 17.4154 7.83392 17.4154 8.70837V15.8334C17.4154 16.7078 16.7065 17.4167 15.832 17.4167H8.70703C7.83258 17.4167 7.1237 16.7078 7.1237 15.8334V8.70837C7.1237 7.83392 7.83258 7.12504 8.70703 7.12504Z" stroke="#1BA5F5" stroke-width="2" stroke-linecap="round" stroke-linejoin="round"/>
</g>
<defs>
<clipPath id="clip0_2468_6630">
<rect width="19" height="19" fill="white"/>
</clipPath>
</defs>
</svg>
