<svg width="42" height="42" viewBox="0 0 42 42" fill="none" xmlns="http://www.w3.org/2000/svg">
<path d="M22.75 3.5H10.5C9.57174 3.5 8.6815 3.86875 8.02513 4.52513C7.36875 5.1815 7 6.07174 7 7V35C7 35.9283 7.36875 36.8185 8.02513 37.4749C8.6815 38.1313 9.57174 38.5 10.5 38.5H31.5C32.4283 38.5 33.3185 38.1313 33.9749 37.4749C34.6313 36.8185 35 35.9283 35 35V15.75M22.75 3.5L35 15.75M22.75 3.5V15.75H35" stroke="#979797" stroke-linecap="round" stroke-linejoin="round"/>
<path d="M12.5488 19.3271H11.4092V18.8672H12.5488C12.7695 18.8672 12.9482 18.832 13.085 18.7617C13.2217 18.6914 13.3213 18.5938 13.3838 18.4688C13.4482 18.3438 13.4805 18.2012 13.4805 18.041C13.4805 17.8945 13.4482 17.7568 13.3838 17.6279C13.3213 17.499 13.2217 17.3955 13.085 17.3174C12.9482 17.2373 12.7695 17.1973 12.5488 17.1973H11.541V21H10.9756V16.7344H12.5488C12.8711 16.7344 13.1436 16.79 13.3662 16.9014C13.5889 17.0127 13.7578 17.167 13.873 17.3643C13.9883 17.5596 14.0459 17.7832 14.0459 18.0352C14.0459 18.3086 13.9883 18.542 13.873 18.7354C13.7578 18.9287 13.5889 19.0762 13.3662 19.1777C13.1436 19.2773 12.8711 19.3271 12.5488 19.3271ZM15.915 21H15.0244L15.0303 20.54H15.915C16.2197 20.54 16.4736 20.4766 16.6768 20.3496C16.8799 20.2207 17.0322 20.041 17.1338 19.8105C17.2373 19.5781 17.2891 19.3066 17.2891 18.9961V18.7354C17.2891 18.4912 17.2598 18.2744 17.2012 18.085C17.1426 17.8936 17.0566 17.7324 16.9434 17.6016C16.8301 17.4688 16.6914 17.3682 16.5273 17.2998C16.3652 17.2314 16.1787 17.1973 15.9678 17.1973H15.0068V16.7344H15.9678C16.2471 16.7344 16.502 16.7812 16.7324 16.875C16.9629 16.9668 17.1611 17.1006 17.3271 17.2764C17.4951 17.4502 17.624 17.6611 17.7139 17.9092C17.8037 18.1553 17.8486 18.4326 17.8486 18.7412V18.9961C17.8486 19.3047 17.8037 19.583 17.7139 19.8311C17.624 20.0771 17.4941 20.2871 17.3242 20.4609C17.1562 20.6348 16.9531 20.7686 16.7148 20.8623C16.4785 20.9541 16.2119 21 15.915 21ZM15.3262 16.7344V21H14.7607V16.7344H15.3262ZM19.2637 16.7344V21H18.6982V16.7344H19.2637ZM21.0508 18.6533V19.1162H19.1406V18.6533H21.0508ZM21.3408 16.7344V17.1973H19.1406V16.7344H21.3408ZM11.6611 28H10.7705L10.7764 27.54H11.6611C11.9658 27.54 12.2197 27.4766 12.4229 27.3496C12.626 27.2207 12.7783 27.041 12.8799 26.8105C12.9834 26.5781 13.0352 26.3066 13.0352 25.9961V25.7354C13.0352 25.4912 13.0059 25.2744 12.9473 25.085C12.8887 24.8936 12.8027 24.7324 12.6895 24.6016C12.5762 24.4688 12.4375 24.3682 12.2734 24.2998C12.1113 24.2314 11.9248 24.1973 11.7139 24.1973H10.7529V23.7344H11.7139C11.9932 23.7344 12.248 23.7812 12.4785 23.875C12.709 23.9668 12.9072 24.1006 13.0732 24.2764C13.2412 24.4502 13.3701 24.6611 13.46 24.9092C13.5498 25.1553 13.5947 25.4326 13.5947 25.7412V25.9961C13.5947 26.3047 13.5498 26.583 13.46 26.8311C13.3701 27.0771 13.2402 27.2871 13.0703 27.4609C12.9023 27.6348 12.6992 27.7686 12.4609 27.8623C12.2246 27.9541 11.958 28 11.6611 28ZM11.0723 23.7344V28H10.5068V23.7344H11.0723ZM17.7285 25.7324V26.002C17.7285 26.3223 17.6885 26.6094 17.6084 26.8633C17.5283 27.1172 17.4131 27.333 17.2627 27.5107C17.1123 27.6885 16.9316 27.8242 16.7207 27.918C16.5117 28.0117 16.2773 28.0586 16.0176 28.0586C15.7656 28.0586 15.5342 28.0117 15.3232 27.918C15.1143 27.8242 14.9326 27.6885 14.7783 27.5107C14.626 27.333 14.5078 27.1172 14.4238 26.8633C14.3398 26.6094 14.2979 26.3223 14.2979 26.002V25.7324C14.2979 25.4121 14.3389 25.126 14.4209 24.874C14.5049 24.6201 14.623 24.4043 14.7754 24.2266C14.9277 24.0469 15.1084 23.9102 15.3174 23.8164C15.5283 23.7227 15.7598 23.6758 16.0117 23.6758C16.2715 23.6758 16.5059 23.7227 16.7148 23.8164C16.9258 23.9102 17.1064 24.0469 17.2568 24.2266C17.4092 24.4043 17.5254 24.6201 17.6055 24.874C17.6875 25.126 17.7285 25.4121 17.7285 25.7324ZM17.1689 26.002V25.7266C17.1689 25.4727 17.1426 25.248 17.0898 25.0527C17.0391 24.8574 16.9639 24.6934 16.8643 24.5605C16.7646 24.4277 16.6426 24.3271 16.498 24.2588C16.3555 24.1904 16.1934 24.1562 16.0117 24.1562C15.8359 24.1562 15.6768 24.1904 15.5342 24.2588C15.3936 24.3271 15.2725 24.4277 15.1709 24.5605C15.0713 24.6934 14.9941 24.8574 14.9395 25.0527C14.8848 25.248 14.8574 25.4727 14.8574 25.7266V26.002C14.8574 26.2578 14.8848 26.4844 14.9395 26.6816C14.9941 26.877 15.0723 27.042 15.1738 27.1768C15.2773 27.3096 15.3994 27.4102 15.54 27.4785C15.6826 27.5469 15.8418 27.5811 16.0176 27.5811C16.2012 27.5811 16.3643 27.5469 16.5068 27.4785C16.6494 27.4102 16.7695 27.3096 16.8672 27.1768C16.9668 27.042 17.042 26.877 17.0928 26.6816C17.1436 26.4844 17.1689 26.2578 17.1689 26.002ZM21.1504 26.6436H21.7129C21.6836 26.9131 21.6064 27.1543 21.4814 27.3672C21.3564 27.5801 21.1797 27.749 20.9512 27.874C20.7227 27.9971 20.4375 28.0586 20.0957 28.0586C19.8457 28.0586 19.6182 28.0117 19.4131 27.918C19.21 27.8242 19.0352 27.6914 18.8887 27.5195C18.7422 27.3457 18.6289 27.1377 18.5488 26.8955C18.4707 26.6514 18.4316 26.3799 18.4316 26.0811V25.6562C18.4316 25.3574 18.4707 25.0869 18.5488 24.8447C18.6289 24.6006 18.7432 24.3916 18.8916 24.2178C19.042 24.0439 19.2227 23.9102 19.4336 23.8164C19.6445 23.7227 19.8818 23.6758 20.1455 23.6758C20.4678 23.6758 20.7402 23.7363 20.9629 23.8574C21.1855 23.9785 21.3584 24.1465 21.4814 24.3613C21.6064 24.5742 21.6836 24.8213 21.7129 25.1025H21.1504C21.123 24.9033 21.0723 24.7324 20.998 24.5898C20.9238 24.4453 20.8184 24.334 20.6816 24.2559C20.5449 24.1777 20.3662 24.1387 20.1455 24.1387C19.9561 24.1387 19.7891 24.1748 19.6445 24.2471C19.502 24.3193 19.3818 24.4219 19.2842 24.5547C19.1885 24.6875 19.1162 24.8467 19.0674 25.0322C19.0186 25.2178 18.9941 25.4238 18.9941 25.6504V26.0811C18.9941 26.29 19.0156 26.4863 19.0586 26.6699C19.1035 26.8535 19.1709 27.0146 19.2607 27.1533C19.3506 27.292 19.4648 27.4014 19.6035 27.4814C19.7422 27.5596 19.9062 27.5986 20.0957 27.5986C20.3359 27.5986 20.5273 27.5605 20.6699 27.4844C20.8125 27.4082 20.9199 27.2988 20.9922 27.1562C21.0664 27.0137 21.1191 26.8428 21.1504 26.6436ZM12.6104 30.7344V35H12.0537V30.7344H12.6104ZM13.9814 30.7344V31.1973H10.6855V30.7344H13.9814ZM14.9805 30.7344L16.0059 32.3691L17.0312 30.7344H17.6904L16.3428 32.8467L17.7227 35H17.0576L16.0059 33.333L14.9541 35H14.2891L15.6689 32.8467L14.3213 30.7344H14.9805ZM19.9521 30.7344V35H19.3955V30.7344H19.9521ZM21.3232 30.7344V31.1973H18.0273V30.7344H21.3232Z" fill="#979797"/>
</svg>
