<svg width="25" height="25" viewBox="0 0 25 25" fill="none" xmlns="http://www.w3.org/2000/svg">
<path d="M13.543 2.08334H6.2513C5.69877 2.08334 5.16886 2.30284 4.77816 2.69354C4.38746 3.08424 4.16797 3.61414 4.16797 4.16668V20.8333C4.16797 21.3859 4.38746 21.9158 4.77816 22.3065C5.16886 22.6972 5.69877 22.9167 6.2513 22.9167H18.7513C19.3038 22.9167 19.8337 22.6972 20.2244 22.3065C20.6151 21.9158 20.8346 21.3859 20.8346 20.8333V9.37501M13.543 2.08334L20.8346 9.37501M13.543 2.08334V9.37501H20.8346" stroke="#1BA5F5" stroke-width="2" stroke-linecap="round" stroke-linejoin="round"/>
<path d="M7.79711 11.4731H7.22728V11.2431H7.79711C7.90746 11.2431 7.99681 11.2255 8.06517 11.1904C8.13353 11.1552 8.18334 11.1064 8.21459 11.0439C8.24681 10.9814 8.26293 10.9101 8.26293 10.83C8.26293 10.7568 8.24681 10.6879 8.21459 10.6235C8.18334 10.559 8.13353 10.5073 8.06517 10.4682C7.99681 10.4282 7.90746 10.4081 7.79711 10.4081H7.2932V12.3095H7.01049V10.1767H7.79711C7.95824 10.1767 8.09447 10.2045 8.2058 10.2602C8.31713 10.3159 8.4016 10.393 8.45922 10.4916C8.51683 10.5893 8.54564 10.7011 8.54564 10.8271C8.54564 10.9638 8.51683 11.0805 8.45922 11.1772C8.4016 11.2739 8.31713 11.3476 8.2058 11.3984C8.09447 11.4482 7.95824 11.4731 7.79711 11.4731ZM9.48021 12.3095H9.0349L9.03783 12.0795H9.48021C9.63256 12.0795 9.75951 12.0478 9.86107 11.9843C9.96264 11.9199 10.0388 11.83 10.0896 11.7148C10.1413 11.5986 10.1672 11.4628 10.1672 11.3076V11.1772C10.1672 11.0551 10.1526 10.9467 10.1233 10.852C10.094 10.7563 10.051 10.6757 9.99437 10.6103C9.93773 10.5439 9.8684 10.4936 9.78637 10.4594C9.70531 10.4252 9.61205 10.4081 9.50658 10.4081H9.02611V10.1767H9.50658C9.64623 10.1767 9.77367 10.2001 9.8889 10.247C10.0041 10.2929 10.1033 10.3598 10.1863 10.4477C10.2703 10.5346 10.3347 10.6401 10.3796 10.7641C10.4245 10.8871 10.447 11.0258 10.447 11.1801V11.3076C10.447 11.4619 10.4245 11.601 10.3796 11.725C10.3347 11.8481 10.2698 11.9531 10.1848 12.04C10.1008 12.1269 9.99926 12.1938 9.88012 12.2407C9.76195 12.2866 9.62865 12.3095 9.48021 12.3095ZM9.18578 10.1767V12.3095H8.90306V10.1767H9.18578ZM11.1545 10.1767V12.3095H10.8718V10.1767H11.1545ZM12.0481 11.1362V11.3676H11.093V11.1362H12.0481ZM12.1931 10.1767V10.4081H11.093V10.1767H12.1931ZM7.35326 16.3095H6.90795L6.91088 16.0795H7.35326C7.5056 16.0795 7.63256 16.0478 7.73412 15.9843C7.83568 15.9199 7.91185 15.83 7.96264 15.7148C8.01439 15.5986 8.04027 15.4628 8.04027 15.3076V15.1772C8.04027 15.0551 8.02562 14.9467 7.99633 14.852C7.96703 14.7563 7.92406 14.6757 7.86742 14.6103C7.81078 14.5439 7.74144 14.4936 7.65941 14.4594C7.57836 14.4252 7.4851 14.4081 7.37963 14.4081H6.89916V14.1767H7.37963C7.51928 14.1767 7.64672 14.2001 7.76195 14.247C7.87719 14.2929 7.97631 14.3598 8.05931 14.4477C8.1433 14.5346 8.20775 14.6401 8.25267 14.7641C8.2976 14.8871 8.32006 15.0258 8.32006 15.1801V15.3076C8.32006 15.4619 8.2976 15.601 8.25267 15.725C8.20775 15.8481 8.14281 15.9531 8.05785 16.04C7.97387 16.1269 7.8723 16.1938 7.75316 16.2407C7.635 16.2866 7.5017 16.3095 7.35326 16.3095ZM7.05883 14.1767V16.3095H6.77611V14.1767H7.05883ZM10.387 15.1757V15.3105C10.387 15.4706 10.3669 15.6142 10.3269 15.7411C10.2869 15.8681 10.2292 15.976 10.154 16.0649C10.0788 16.1537 9.98851 16.2216 9.88305 16.2685C9.77855 16.3154 9.66137 16.3388 9.53148 16.3388C9.40551 16.3388 9.28978 16.3154 9.18431 16.2685C9.07982 16.2216 8.989 16.1537 8.91185 16.0649C8.83568 15.976 8.7766 15.8681 8.73461 15.7411C8.69262 15.6142 8.67162 15.4706 8.67162 15.3105V15.1757C8.67162 15.0156 8.69213 14.8725 8.73314 14.7465C8.77514 14.6196 8.83422 14.5117 8.91039 14.4228C8.98656 14.3329 9.07689 14.2646 9.18139 14.2177C9.28685 14.1708 9.40258 14.1474 9.52855 14.1474C9.65844 14.1474 9.77562 14.1708 9.88012 14.2177C9.98558 14.2646 10.0759 14.3329 10.1511 14.4228C10.2273 14.5117 10.2854 14.6196 10.3254 14.7465C10.3664 14.8725 10.387 15.0156 10.387 15.1757ZM10.1072 15.3105V15.1728C10.1072 15.0458 10.094 14.9335 10.0676 14.8359C10.0422 14.7382 10.0046 14.6562 9.95482 14.5898C9.90502 14.5234 9.84398 14.4731 9.77172 14.4389C9.70043 14.4047 9.61937 14.3876 9.52855 14.3876C9.44066 14.3876 9.36107 14.4047 9.28978 14.4389C9.21947 14.4731 9.15892 14.5234 9.10814 14.5898C9.05834 14.6562 9.01976 14.7382 8.99242 14.8359C8.96508 14.9335 8.9514 15.0458 8.9514 15.1728V15.3105C8.9514 15.4384 8.96508 15.5517 8.99242 15.6503C9.01976 15.748 9.05883 15.8305 9.10961 15.8979C9.16137 15.9643 9.2224 16.0146 9.29271 16.0488C9.364 16.0829 9.44359 16.1 9.53148 16.1C9.62328 16.1 9.70482 16.0829 9.77611 16.0488C9.8474 16.0146 9.90746 15.9643 9.95629 15.8979C10.0061 15.8305 10.0437 15.748 10.0691 15.6503C10.0945 15.5517 10.1072 15.4384 10.1072 15.3105ZM12.0979 15.6313H12.3791C12.3645 15.7661 12.3259 15.8867 12.2634 15.9931C12.2009 16.0995 12.1125 16.184 11.9983 16.2465C11.884 16.308 11.7414 16.3388 11.5705 16.3388C11.4455 16.3388 11.3318 16.3154 11.2292 16.2685C11.1277 16.2216 11.0403 16.1552 10.967 16.0693C10.8938 15.9824 10.8371 15.8784 10.7971 15.7573C10.758 15.6352 10.7385 15.4995 10.7385 15.35V15.1376C10.7385 14.9882 10.758 14.853 10.7971 14.7319C10.8371 14.6098 10.8943 14.5053 10.9685 14.4184C11.0437 14.3315 11.134 14.2646 11.2395 14.2177C11.345 14.1708 11.4636 14.1474 11.5954 14.1474C11.7566 14.1474 11.8928 14.1777 12.0041 14.2382C12.1155 14.2988 12.2019 14.3828 12.2634 14.4902C12.3259 14.5966 12.3645 14.7202 12.3791 14.8608H12.0979C12.0842 14.7612 12.0588 14.6757 12.0217 14.6044C11.9846 14.5322 11.9319 14.4765 11.8635 14.4374C11.7952 14.3984 11.7058 14.3788 11.5954 14.3788C11.5007 14.3788 11.4172 14.3969 11.345 14.433C11.2737 14.4692 11.2136 14.5204 11.1648 14.5869C11.1169 14.6533 11.0808 14.7328 11.0564 14.8256C11.032 14.9184 11.0198 15.0214 11.0198 15.1347V15.35C11.0198 15.4545 11.0305 15.5527 11.052 15.6445C11.0745 15.7363 11.1081 15.8168 11.1531 15.8862C11.198 15.9555 11.2551 16.0102 11.3245 16.0502C11.3938 16.0893 11.4758 16.1088 11.5705 16.1088C11.6907 16.1088 11.7864 16.0898 11.8577 16.0517C11.9289 16.0136 11.9827 15.9589 12.0188 15.8876C12.0559 15.8163 12.0823 15.7309 12.0979 15.6313ZM7.82787 18.1767V20.3095H7.54955V18.1767H7.82787ZM8.51342 18.1767V18.4081H6.86547V18.1767H8.51342ZM9.01293 18.1767L9.52562 18.9941L10.0383 18.1767H10.3679L9.69408 19.2328L10.384 20.3095H10.0515L9.52562 19.476L8.99974 20.3095H8.66722L9.35717 19.2328L8.68334 18.1767H9.01293ZM11.4988 18.1767V20.3095H11.2204V18.1767H11.4988ZM12.1843 18.1767V18.4081H10.5364V18.1767H12.1843Z" fill="#1BA5F5"/>
</svg>
