<svg width="19" height="19" viewBox="0 0 19 19" fill="none" xmlns="http://www.w3.org/2000/svg">
<path d="M18.7434 3.81712C16.7771 3.81482 15.1832 2.22105 15.1812 0.254867C15.1812 0.114172 15.067 0 14.9263 0C14.7868 0 14.6726 0.114172 14.6726 0.254867C14.6703 2.22116 13.0765 3.81506 11.1103 3.81712C10.9696 3.81712 10.8555 3.9313 10.8555 4.07199C10.8555 4.21153 10.9696 4.32571 11.1103 4.32571C13.0766 4.32801 14.6705 5.92178 14.6726 7.88914C14.6726 8.02869 14.7868 8.14286 14.9275 8.14286C15.0682 8.14286 15.1812 8.02869 15.1812 7.88914C15.1835 5.92169 16.7773 4.32807 18.7446 4.32571C18.8842 4.32571 18.9983 4.21153 18.9983 4.07199C18.9983 3.9313 18.8842 3.81712 18.7446 3.81712H18.7434Z" fill="#DBF9FF"/>
<path d="M9.50056 19C9.58639 19.0012 9.6697 18.9694 9.73028 18.9128C9.79087 18.8563 9.82495 18.7785 9.82368 18.6984C9.82495 17.1787 10.4725 15.7227 11.6236 14.6482C12.7747 13.5737 14.3348 12.9694 15.9631 12.9683C16.1411 12.9683 16.2863 12.8328 16.2863 12.6667C16.2863 12.5006 16.1411 12.3651 15.9631 12.3651C14.3349 12.3639 12.7748 11.7596 11.6236 10.6852C10.4724 9.61082 9.82494 8.15475 9.82368 6.63496C9.82368 6.46885 9.67853 6.33337 9.50056 6.33337C9.32259 6.33337 9.17743 6.46885 9.17743 6.63496C9.17617 8.15466 8.52866 9.61073 7.37753 10.6852C6.2264 11.7597 4.66632 12.3639 3.03797 12.3651C2.86 12.3651 2.71484 12.5006 2.71484 12.6667C2.71484 12.8328 2.86 12.9683 3.03797 12.9683C4.66623 12.9695 6.2263 13.5738 7.37753 14.6482C8.52876 15.7226 9.17617 17.1786 9.17743 18.6984C9.17617 18.7785 9.21025 18.8563 9.27084 18.9128C9.33142 18.9694 9.41473 19.0012 9.50056 19Z" fill="#DBF9FF"/>
<path d="M6.04545 6.00428C4.61504 6.00171 3.45679 4.67799 3.45455 3.04324C3.45455 2.86203 3.32522 2.71423 3.16667 2.71423C3.00811 2.71423 2.87879 2.86203 2.87879 3.04324C2.87654 4.67799 1.71829 6.00171 0.287879 6.00428C0.129321 6.00428 0 6.15207 0 6.33328C0 6.51449 0.129321 6.66229 0.287879 6.66229C1.71829 6.66486 2.87654 7.98857 2.87879 9.62332C2.87879 9.80453 3.00811 9.95233 3.16667 9.95233C3.32522 9.95233 3.45455 9.80453 3.45455 9.62332C3.45679 7.98857 4.61504 6.66485 6.04545 6.66229C6.20401 6.66229 6.33333 6.51449 6.33333 6.33328C6.33333 6.15207 6.20401 6.00428 6.04545 6.00428Z" fill="#DBF9FF"/>
</svg>
