<?xml version="1.0" encoding="UTF-8"?>
<svg id="Vector_layer" data-name="Vector layer" xmlns="http://www.w3.org/2000/svg" viewBox="0 0 677.91 214.61">
  <defs>
    <style>
      .cls-1, .cls-2, .cls-3, .cls-4 {
        stroke-width: 0px;
      }

      .cls-5 {
        stroke: #000;
        stroke-linecap: round;
        stroke-linejoin: round;
        stroke-width: .75px;
      }

      .cls-5, .cls-2 {
        fill: none;
      }

      .cls-3 {
        fill: #fff;
      }

      .cls-4 {
        fill: #1ba5f5;
      }
    </style>
  </defs>
  <path class="cls-3" d="m261.78,91.8c-1.1-4.16-5.93-9.89-6.96-12.55-1.66-3.3-2.86-6.96-3.33-10.39-2.76-27.9,29.53-44.48,56.39-42.21,14.91,1.2,28.86,10.95,34.55,24.6,3.13,10.09-5.63,21.74-8.36,31.33l-72.34,9.22h.03Z"/>
  <path class="cls-3" d="m418.88,85.41c-.83-1.36-2.26-2.9-2.93-3.96-12.58-15.45-16.91-33.66-7.29-44.54,24.8-29.26,103.07-14.31,71.34,33.92-2.5,3.6-5.69,6.09-7.06,9.49,0,0-54.06,5.09-54.06,5.09Z"/>
  <g>
    <g>
      <path class="cls-1" d="m662.69,99.29c7.42,12.45-9.32,34.09-16.51,44.97-24.63,35.22-43.81,60.32-88.35,38.55-13.95-6.49-27.6-15.71-41.01-22.87-10.12-5.36-20.47-9.92-31.49-10.59-26.63-2-38.58,22.74-59.59,32.92-49.74,18.54-68.08-76-133.99-7.99-12.88,12.12-27,24.33-45.67,24.1-47.47.63-52-78.86-96.44-68.31-29.66,10.19-47.37,48.4-78.96,52.2-30.43,3.33-49.04-29.03-50.9-55.96-4.13-37.32,13.62-81.36,51.6-93.15,35.65-11.88,69.88-8.02,99.4,16.31,12.22,9.45,20.61,19.44,31.96,30.46,4.46,4.46,9.55,9.15,13.22,14.25.2.27.37.57.53.8-4.53-4.43-8.95-8.69-12.08-11.32h-.1c-1.73.1-.8,7.32,3.26,12.22.7.9,1.46,1.76,2.26,2.56-1.4-.63-2.83-1.43-4.23-2.33-2.4-1.46-4.73-3.1-6.96-4.83-22.67-17.74-41.15-39.85-68.34-50.2-32.99-12.62-72.71,6.09-91.21,34.72-9.39,15.08-9.92,34.26-6.26,51.63,3.6,16.18,9.39,40.98,28.63,43.18,34.02,2.86,76.67-77.73,119.48-47.7,14.88,11.72,23.34,30.06,35.52,44.14,15.55,18.94,32.82,20.97,53.7,7.96,13.52-8.12,26.2-19.87,39.52-28,65.45-42.48,77.23,52.6,128.37,12.62,25.27-20.11,43.21-36.49,75.57-16.84,17.51,10.62,31.83,26.9,52.2,32.02,28.96,7.59,55.16-13.88,71.67-37.18,12.02-16.51,15.51-30.13-10.45-22.87-56.53,17.04-85.16,6.46-137.62-15.41-14.88-5.13-30.26-6.79-45.87-3.99-16.91,2.7-32.99,10.32-49.9,10.72-5.36.1-10.55-.6-15.78-1.46-36.69-6.19-75.67-10.45-118.11-.5-4.13.7-26,7.66-27.86,5.49-.63-.73,1.13-2.6,6.82-6.16,27.9-16.61,66.78-22.27,101.67-18.74,34.32,4.06,41.68,16.31,78.53,3.1,58.96-21.71,110.56,34.69,169.21,23.14,17.74-3.7,34.09-12.45,51.97-15.75,8.06-1.36,18.48-1.7,22.57,4.03l.1.17-.03-.1Z"/>
      <path class="cls-4" d="m626.97,114.67c25.97-7.26,22.47,6.36,10.45,22.87-16.51,23.3-42.71,44.78-71.67,37.18-20.37-5.13-34.69-21.37-52.2-32.02-32.39-19.64-50.33-3.26-75.57,16.84-51.13,39.98-62.92-55.09-128.37-12.62-13.32,8.12-26,19.87-39.52,28-20.87,13.02-38.15,10.99-53.7-7.96-12.18-14.11-20.67-32.42-35.52-44.14-42.78-30.03-85.46,50.57-119.48,47.7-19.24-2.2-25.03-27-28.63-43.18-3.66-17.38-3.1-36.55,6.26-51.63,18.51-28.6,58.22-47.31,91.21-34.72,27.2,10.39,45.67,32.46,68.34,50.2,2.26,1.73,4.56,3.33,6.96,4.83,1.4.9,2.83,1.7,4.23,2.33,5.56,5.69,13.52,9.95,21.11,12.02.7,0,.67-.37.33-.87l.57-.1c1.86,2.16,23.74-4.79,27.86-5.49,42.44-9.95,81.43-5.69,118.11.5,5.23.87,10.42,1.56,15.78,1.46,16.94-.37,32.99-7.99,49.9-10.72,15.61-2.8,30.99-1.13,45.87,3.99,52.46,21.87,81.09,32.46,137.62,15.41l.03.1Z"/>
      <path class="cls-1" d="m231.25,109.61c.33.5.37.87-.33.87-7.59-2.06-15.55-6.33-21.11-12.02,5.73,2.66,10.62,2.73,6.66-3.46,4.69,4.59,9.52,9.39,13.15,12.82.37.4,1.23,1.2,1.63,1.83v-.03Z"/>
      <path class="cls-1" d="m216.47,94.96c3.93,6.19-.93,6.13-6.66,3.46-.8-.83-1.56-1.66-2.26-2.56-4.06-4.89-4.96-12.12-3.26-12.25h.1c3.16,2.7,7.56,6.92,12.08,11.39v-.03Z"/>
    </g>
    <path class="cls-5" d="m216.47,94.96c-.17-.27-.33-.53-.53-.8-3.63-5.09-8.72-9.79-13.22-14.25-11.35-11.02-19.74-21.01-31.96-30.46-29.53-24.3-63.75-28.2-99.4-16.31-37.98,11.82-55.73,55.86-51.6,93.21,1.86,26.93,20.47,59.29,50.9,55.96,31.56-3.8,49.3-42.01,78.96-52.2,44.44-10.59,48.97,68.94,96.44,68.31,18.68.23,32.76-11.98,45.67-24.1,65.91-68.01,84.26,26.53,133.99,7.99,21.01-10.19,32.96-34.92,59.59-32.92,11.05.67,21.41,5.23,31.49,10.59,13.42,7.16,27.06,16.38,41.01,22.87,44.51,21.77,63.72-3.33,88.35-38.55,7.19-10.89,23.94-32.52,16.51-44.97l-.1-.17c-4.09-5.73-14.51-5.39-22.57-4.03-17.88,3.33-34.22,12.05-51.97,15.75-58.69,11.55-110.26-44.84-169.21-23.14-36.82,13.22-44.18.97-78.53-3.1-34.92-3.53-73.77,2.13-101.67,18.74-5.69,3.56-7.46,5.43-6.82,6.16,1.86,2.16,23.74-4.79,27.86-5.49,42.44-9.95,81.43-5.69,118.11.5,5.23.87,10.42,1.56,15.78,1.46,16.94-.37,32.99-7.99,49.9-10.72,15.61-2.8,30.99-1.13,45.87,3.99,52.46,21.87,81.09,32.46,137.62,15.41,25.97-7.26,22.47,6.36,10.45,22.87-16.51,23.3-42.71,44.78-71.67,37.18-20.37-5.13-34.69-21.37-52.2-32.02-32.39-19.64-50.33-3.26-75.57,16.84-51.13,39.98-62.92-55.09-128.37-12.62-13.32,8.12-26,19.87-39.52,28-20.87,13.02-38.15,10.99-53.7-7.96-12.18-14.11-20.67-32.42-35.52-44.14-42.78-30.03-85.46,50.57-119.48,47.7-19.24-2.2-25.03-27-28.63-43.18-3.66-17.38-3.1-36.55,6.26-51.63,18.51-28.6,58.22-47.31,91.21-34.72,27.2,10.39,45.67,32.46,68.34,50.2,2.26,1.73,4.56,3.33,6.96,4.83,1.4.9,2.83,1.7,4.23,2.33"/>
  </g>
  <g>
    <path class="cls-1" d="m425.83,85.24c-12.48-.6,9.09-5.83,3.33-.23-1,.57-2.2.4-3.33.23Z"/>
    <path class="cls-1" d="m427.4,86.07c-.57,0-1.13-.07-1.63-.13-3.63-.17-4.46-.73-4.56-1.53-.13-.93.97-1.46,1.8-1.76,1.8-.7,6.59-1.63,7.66,0,.47.77.13,1.7-1,2.83l-.13.1c-.67.37-1.4.47-2.06.47l-.07.03Zm-4.49-1.9c.43.13,1.3.27,2.93.37h.07c.97.13,2,.27,2.8-.13.73-.73.73-1.03.73-1.03-.03-.03-.43-.23-1.43-.27-1.9,0-4.16.6-5.09,1.07Z"/>
  </g>
  <g>
    <path class="cls-1" d="m464.02,82.94c-1.07-2.36,9.09,0,11.58-5.16-2.03,4.16-7.12,9.35-11.58,5.16Z"/>
    <path class="cls-1" d="m467.55,85.21c-1.43,0-2.8-.6-4.03-1.73l-.17-.23c-.23-.53-.13-.93,0-1.2.47-.83,1.76-.97,3.7-1.17,2.76-.3,6.59-.73,7.89-3.4l1.27.6c-1.5,3.06-4.46,6.42-7.66,7.02-.33.07-.7.1-1.03.1h.03Zm-2.8-2.53c1.1.93,2.3,1.3,3.6,1.07,1.4-.27,2.8-1.2,3.99-2.46-1.66.6-3.5.8-5.06.97-.87.1-2.03.23-2.5.43h-.03Z"/>
  </g>
  <g>
    <path class="cls-1" d="m418.11,82.28s-.13-.1-.23-.17c.4.3.8.57,1.23.83-.33-.2-.67-.43-1-.67Z"/>
    <path class="cls-1" d="m418.74,83.54c-.37-.23-.7-.47-1.03-.7l-.23-.2.83-1.13c.4.3.8.57,1.2.83l-.77,1.17v.03Z"/>
  </g>
  <g>
    <path class="cls-1" d="m426.27,90.67c-9.52-1.43-22.84-11.88-20.11-20.04,2.6,15.15,63.82,15.01,20.11,20.04Z"/>
    <path class="cls-1" d="m426.27,91.37h-.1c-6.99-1.07-15.61-6.72-19.21-12.62-1.8-2.96-2.3-5.83-1.46-8.36l.9-2.63.47,2.73c1.2,6.96,16.28,10.65,26.27,13.12,7.29,1.8,9.62,2.43,9.52,3.86-.07,1.2-1.3,2.16-16.31,3.89h-.1.03Zm-19.74-18.01c.1,1.46.67,3.03,1.63,4.66,3.4,5.56,11.52,10.92,18.11,11.95,10.49-1.2,13.92-2.03,14.81-2.56-1-.63-4.86-1.6-8.29-2.43-9.12-2.23-22.34-5.46-26.27-11.62Z"/>
  </g>
  <g>
    <path class="cls-1" d="m447.97,86.47c-3.7-10.12,12.98-3.76,18.51-4.66-4.73,2.8-13.85,11.02-18.51,4.66Z"/>
    <path class="cls-1" d="m452.43,89.5c-1.9,0-3.63-.73-5.03-2.63l-.1-.17c-.83-2.26-.77-3.93.17-5.09,1.96-2.43,7.09-1.7,12.08-1,2.7.37,5.26.73,6.79.5l3.73-.63-3.26,1.9c-.83.47-1.8,1.17-2.86,1.86-3.3,2.23-7.72,5.26-11.55,5.26h.03Zm-3.83-3.36c3.46,4.56,9.89.17,14.58-3.03.27-.2.57-.37.83-.57-1.4-.1-3-.3-4.63-.53-4.16-.6-9.35-1.3-10.79.5-.6.73-.6,1.96,0,3.63Z"/>
  </g>
  <g>
    <path class="cls-1" d="m426.63,90.3c-13.88-5.39-26.07-23.84-5.76-6.19,7.82-5.56,17.61,4.63,5.76,6.19Z"/>
    <path class="cls-1" d="m426.53,91.03l-.17-.07c-8.32-3.23-16.88-11.62-16.98-13.95,0-.43.2-.77.53-.93.47-.23,1.7-.83,10.99,7.19,3.46-2.2,7.29-1.66,9.62-.1,1.7,1.17,2.56,2.8,2.2,4.26-.27,1.07-1.36,2.96-6.06,3.56h-.17l.03.03Zm-15.45-13.45c1.43,2.33,8.09,9.02,15.65,12.02,2.7-.37,4.39-1.27,4.69-2.46.2-.9-.4-1.96-1.63-2.8-2.03-1.36-5.46-1.8-8.49.37l-.43.33-.4-.37c-5.76-4.99-8.29-6.59-9.35-7.09h-.03Z"/>
  </g>
  <g>
    <path class="cls-1" d="m427.37,86.94c-4.36-.47-8.26-3.06-11.22-6.09,3,5.86,25.3-2.13,11.22,6.09Z"/>
    <path class="cls-1" d="m427.53,87.67h-.23c-3.43-.4-6.96-2.1-10.12-4.86-.73-.4-1.3-.93-1.66-1.63l-2.13-4.16,3.26,3.33c.43.47.9.9,1.36,1.3,2.2,1.1,6.42.87,9.42.7,3.23-.2,4.86-.3,5.19.8.27.87-.4,1.76-4.93,4.43l-.2.13.03-.03Zm-6.72-3.93c2.1,1.33,4.29,2.16,6.42,2.46,2.43-1.43,3.43-2.2,3.83-2.56-.77-.07-2.26,0-3.53.07-2.1.13-4.56.27-6.72.03Z"/>
  </g>
  <g>
    <path class="cls-1" d="m470.64,50.19c-14.02-11.45-39.62-5.46-51.5,7.12-8.96,9.52-8.59,20.57,1.07,30.29l.2.13c5.09,2.4,7.59,3.23,8.92,3.23.63,0,1-.2,1.27-.47.6-.67.3-1.7-.53-3.16,1.03.57,2.13,1.1,3.33,1.66l.23.07c1.33.1,2.66.13,4.06.13,5.99,0,12.38-.87,18.08-2.7.2,1.5,1,2.83,2.3,3.7l.27.1c9.69,1.66,16.98-5.93,19.91-14.18,3.13-8.89,2.06-20.81-7.66-25.93h.07Z"/>
    <path class="cls-1" d="m305.16,48.02c-15.18-4.39-37.82,10.55-42.38,24.5-1.5,4.56-2.13,12.75,10.02,17.11,1.23.73,2.76,1.33,4.66,1.76h.27c4.13-.6,9.12-.47,14.41-.33,6.92.17,14.35.37,20.44-1.2,0,0,0,.03-.03.07l-.7.93,1.17.17c1.17.17,2.3.27,3.4.27,5.66,0,10.19-2.23,12.95-6.46,4.49-6.89,3.73-18.04-1.83-26.5-5.16-7.86-13.32-11.58-22.4-10.32h.03Z"/>
  </g>
  <g>
    <path class="cls-2" d="m480,70.79c31.73-48.24-46.54-63.22-71.34-33.92-9.59,10.89-5.29,29.13,7.29,44.54.7,1.07,2.1,2.6,2.93,3.96l54.06-5.09c1.36-3.4,4.56-5.86,7.06-9.49Z"/>
    <path class="cls-1" d="m447.77,8.61c-7.29.37-14.91,1-21.94,2.86-15.55,4.09-28.26,18.11-31.93,32.22-4.09,14.15.3,30.29,14.78,39.45,1.53.9,3.26,1.9,4.86,2.73h-.43c.43.17.8.27,1.2.4,1.9.93,3.6,1.56,4.66,1.4,8.3,2.46,12.45,3.7,12.45,3.7h13.52l18.34-1.33,9.42-3.7c.33.9.93,1.53,1.86,1.8,2.53.6,5.53-.17,7.66-1.36,1.43-.83,3.4-3.26,5.73-5.13,33.39-27.83-3.33-75.27-40.18-73.04Zm-28.9,76.8c-.83-1.36-2.26-2.9-2.93-3.96-12.58-15.45-16.91-33.66-7.29-44.54,24.8-29.26,103.07-14.31,71.34,33.92-2.5,3.6-5.69,6.09-7.06,9.49,0,0-54.06,5.09-54.06,5.09Z"/>
  </g>
  <g>
    <path class="cls-2" d="m342.44,51.22c-5.69-13.65-19.64-23.4-34.55-24.6-26.9-2.26-59.16,14.31-56.39,42.21.47,3.43,1.66,7.06,3.33,10.39,1.03,2.7,5.86,8.39,6.96,12.55l72.34-9.22c2.73-9.59,11.49-21.24,8.36-31.33h-.03Z"/>
    <path class="cls-2" d="m294.97,18.83c-9.35.6-18.61,2.56-26.83,5.83,8.26-3.16,17.51-5.13,26.83-5.83Z"/>
    <path class="cls-1" d="m344.24,30.01c-27.23-22.64-104.56-14.15-105.6,27.03h0v.77c0,1.9.13,3.86.5,5.86.53,3.33,1.53,6.86,3.06,10.59,2.63,5.86,11.25,21.71,17.41,22.07h.13c1.93-.67,2.46-2.03,2.23-3.73h34.02l30.26-1.83,7.36-4.33c.4,4.99,5.63,5.99,9.32.87,12.55-17.28,20.24-42.71,1.33-57.33l-.03.03Zm-76.1-5.36c8.22-3.3,17.48-5.26,26.83-5.83-9.32.7-18.58,2.7-26.83,5.83Zm-6.36,67.15c-1.1-4.16-5.93-9.89-6.96-12.55-1.66-3.3-2.86-6.96-3.33-10.39-2.76-27.9,29.53-44.48,56.39-42.21,14.91,1.2,28.86,10.95,34.55,24.6,3.13,10.09-5.63,21.74-8.36,31.33l-72.34,9.22h.03Z"/>
  </g>
</svg>