<?xml version="1.0" encoding="UTF-8"?>
<svg id="Vector_layer" data-name="Vector layer" xmlns="http://www.w3.org/2000/svg" viewBox="0 0 664.26 437.5">
  <defs>
    <style>
      .cls-1 {
        fill: #c4dd9c;
      }

      .cls-1, .cls-2, .cls-3 {
        stroke-width: 0px;
      }

      .cls-3 {
        fill: #fff;
      }

      .cls-4 {
        stroke: #000;
        stroke-linecap: round;
        stroke-linejoin: round;
        stroke-width: .75px;
      }
    </style>
  </defs>
  <path class="cls-1" d="m638.67,76.15c-.42.68-.64,1.45-.67,2.26l-.33,1.11.35-.51c.02.27.07.54.13.82.08.34.21.68.35,1-3.51.89-8.09,2.94-12.42,4.98-1.07.5-1.92.9-2.49,1.14-52.62,29.22-84.67,83.84-106.73,128.18l-.7,1.47c-.54,1.14-1.1,2.3-1.63,3.51l-.03.08c-18.71,43.03-37.32,93.74-33.75,144-1.47.1-3,.39-4.42.67-1.79.35-3.49.66-4.96.64-23.65,2.96-47.3,5.91-70.96,8.86-30.31,3.78-60.62,7.56-90.93,11.35l-25.55,3.21c-44.61,5.6-90.74,11.38-136.08,17.27l-.11.02c-2.56.88-9.32,1.58-17.16,2.39-10.87,1.13-23.56,2.44-31.35,4.83.54-1.35,1.19-3.15,2.03-5.56,5.88-16.92-8.1-67.58-23.88-109.62-15.99-42.6-38.73-90.78-53.48-102.4-.31-.25-.61-.45-.92-.66l2.73-2.77c39.39-44.15,98.74-70.24,151.19-66.47,1.09.07,2.44.53,3.86,1.01,1,.34,2.07.7,3.14.94,1.7,6.18,8.03,15.15,13.84,23.38,3.98,5.63,7.73,10.95,8.76,13.82l.06.12c9.15,13.23,17.71,27.55,26,41.4,13.57,22.7,27.61,46.17,44.74,65.77l.14.16.21.02c.18.02.36.03.52.03,1.03,0,1.62-.39,1.98-.81,0,.55-.03,1.1-.03,1.65h.54s0,.54,0,.54c.03,0,.06,0,.1,0,5.16,0,6.06-5.83,6.86-10.98.44-2.83.61-4.12,1.36-6.07l.84-2.33c6.97-24.35,18.33-47.54,34.35-71,60.14-85.37,154.93-143.83,253.57-156.4,2.32.34,4.52-.04,6.32-.83,17.52,4.87,43.23,16.43,52.2,31.96,3.36,5.82,4.16,11.81,2.37,17.82Z"/>
  <g>
    <path class="cls-4" d="m481.34,364.98c-3.75-49.33,14.1-99.65,33.66-144.61,0,0,0,0,0,0,.78-1.76,1.59-3.41,2.35-5.02,24.7-49.66,56.86-100.38,106.5-127.94,3.39-1.39,21.02-10.8,20.02-4.18,0,0,0,0,0,0-4.87,2.87-10.49,4.57-15.39,7.53,0,0,0,0,0,0-76.57,50.1-118.45,142.49-135.66,229.64h0c-1.63,10.46-2.82,21.06-3.13,31.65.36,5.7.69,19.65-8.37,12.94Z"/>
    <path class="cls-4" d="m485.5,367.31c-1.28,0-2.79-.63-4.49-1.89l-.2-.15-.02-.25c-3.84-50.54,14.88-101.58,33.7-144.85l.03-.08c.54-1.21,1.09-2.37,1.63-3.51l.7-1.47c22.05-44.34,54.1-98.96,106.73-128.18.57-.24,1.42-.64,2.49-1.14,7.15-3.36,15-6.79,17.55-4.89.47.35.99,1.05.79,2.41l-.04.26-.22.13c-2.4,1.41-5.01,2.56-7.54,3.67-2.63,1.16-5.36,2.35-7.84,3.85-90.07,58.94-123.5,168.95-135.4,229.28-1.82,11.67-2.84,22-3.12,31.56.54,8.42-.51,13.44-3.1,14.85-.5.27-1.05.41-1.65.41Zm-3.64-2.62c2.02,1.45,3.63,1.87,4.77,1.26,1.23-.67,3.2-3.36,2.53-13.87.28-9.65,1.31-20.03,3.14-31.77,9.28-47.02,25.06-91.58,45.63-128.89,24.07-43.65,54.44-77.67,90.27-101.12l.19.29-.18-.3s0,0,0,0h0c2.54-1.53,5.3-2.75,7.97-3.92,2.41-1.06,4.91-2.15,7.19-3.47.06-.8-.27-1.04-.39-1.13-2.25-1.67-12.19,3.01-16.44,5.01-1.09.51-1.95.92-2.48,1.13-52.3,29.04-84.24,83.49-106.22,127.68l-.69,1.46c-.54,1.14-1.1,2.3-1.64,3.52h0c-18.74,43.09-37.38,93.89-33.64,144.12Z"/>
  </g>
  <g>
    <path class="cls-2" d="m372,288.1c-17.42-3.99-44.87-15.61-41.24-37.26,3.58-2.11,2.87,5.5,4.45,7.23,2.12,4.51,5.91,8.18,9.96,10.92,0,0,0,0,0,0,23.18,14.58,53.51,15.93,79.12,8.24,7.38-.67,14.16-11.02,20.69-5.85,2.82,19.6-59.42,21.75-72.97,16.72Z"/>
    <path class="cls-2" d="m393.55,290.94c-9.58,0-17.79-.88-21.7-2.32-7.8-1.79-45.97-11.95-41.62-37.87l.04-.25.22-.13c.79-.47,1.5-.56,2.1-.29,1.26.56,1.66,2.56,2.04,4.49.26,1.29.52,2.63.98,3.13l.09.13c2.33,4.95,6.6,8.55,9.76,10.7,21.43,13.47,50.84,16.53,78.66,8.18l.11-.02c2.79-.25,5.57-2.01,8.26-3.7,4.21-2.66,8.57-5.4,12.82-2.04l.17.13.03.21c.51,3.54-.95,6.71-4.33,9.44-9.17,7.4-30.57,10.19-47.63,10.19Zm-62.29-39.75c-3.9,24.81,33.34,34.66,40.87,36.38l.07.02c10.37,3.85,54.53,3.43,68.31-7.69,2.99-2.42,4.33-5.18,3.97-8.23-3.59-2.68-7.21-.4-11.4,2.24-2.78,1.75-5.65,3.56-8.68,3.86-28.11,8.43-57.83,5.32-79.51-8.32l.11-.19-.12.18c-3.27-2.21-7.67-5.93-10.11-11.07-.62-.75-.9-2.13-1.19-3.59-.3-1.51-.67-3.38-1.42-3.72-.22-.1-.52-.06-.89.12Z"/>
  </g>
  <path class="cls-2" d="m340.25,352.27c-6.59-2.97-12.33-7.61-16.3-13.7-3.9-5.98-5.81-13.24-5.48-20.37.16-3.65.74-7.22,1.78-10.73.95-3.26,2.37-6.38,4.03-9.34,1.64-2.92,3.58-5.8,5.76-8.35,2.28-2.68,4.68-5.24,7.37-7.5,1.43-1.2,2.88-2.32,4.38-3.28.21-.12.4-.26.59-.41.22-.18.42-.38.65-.54.81-.56,1.92-.42,2.52.38.57.78.42,1.96-.39,2.52-.15.1-.31.2-.47.3-.19.13-.36.25-.55.39-.91.79-1.76,1.65-2.64,2.46-1.21,1.13-2.36,2.31-3.49,3.5-1.49,1.67-2.9,3.37-4.25,5.17-1.1,1.57-2.11,3.17-3.05,4.83-.87,1.67-1.65,3.36-2.36,5.1-.71,1.9-1.3,3.83-1.81,5.81-.37,1.7-.67,3.41-.87,5.14-.11,1.56-.16,3.12-.12,4.68.08,1.14.19,2.27.34,3.32.01.07.03.14.04.22l.02.11c.23,1.22.52,2.43.86,3.62.42,1.27.89,2.51,1.41,3.74.51,1.06,1.07,2.08,1.67,3.09.66,1.02,1.36,2,2.11,2.95.87,1.03,1.79,2,2.77,2.94.96.84,1.95,1.63,2.97,2.39,1.01.69,2.06,1.34,3.12,1.96,1.38.71,2.78,1.36,4.21,1.95,1.6.58,3.21,1.07,4.85,1.49,1.75.38,3.5.68,5.28.9,2.35.21,4.69.27,6.42.21,2.44-.12,4.84-.38,7.24-.77,2.32-.45,4.62-1.02,6.89-1.7,2.44-.8,4.8-1.73,7.13-2.78,2.24-1.08,4.42-2.26,6.54-3.58,2.04-1.36,4.02-2.77,5.93-4.31,1.9-1.59,3.69-3.29,5.38-5.09,1.39-1.56,2.72-3.16,3.96-4.86v-.03c1.22-1.73,2.35-3.52,3.28-5.24.03-.06.06-.11.09-.17.78-1.52,1.49-3.07,2.12-4.67.57-1.52,1.05-3.07,1.44-4.63.36-1.55.64-3.12.81-4.7.12-1.44.17-2.88.14-4.34-.06-1.31-.19-2.6-.39-3.89-.21-1.15-.48-2.29-.7-3.04-.04-.14-.08-.28-.13-.42,0-.02-.01-.03-.02-.05,0-.01,0-.03,0,0-.36-1.09-.77-2.17-1.24-3.21-.05-.11-.11-.23-.16-.34-.57-1.16-.75-2.42-.37-3.68.36-1.17,1.17-2.17,2.25-2.76,2.18-1.2,5.31-.44,6.44,1.88.87,1.78,1.57,3.59,2.05,5.1.56,1.73.96,3.47,1.15,4.63,1.72,9.78-.41,19.74-4.94,28.35-1.27,2.38-2.68,4.65-3.9,6.35-3.85,5.48-8.67,10.23-14.04,14.23-5.31,3.96-11.34,7.17-17.59,9.32-6.7,2.31-13.62,3.59-20.72,3.62h-.09c-6.78,0-13.7-1.32-19.91-4.12Z"/>
  <path class="cls-4" d="m445.51,271.3l-.03-.21-.17-.13c-4.25-3.36-8.61-.62-12.82,2.04-2.69,1.69-5.47,3.45-8.26,3.7l-.11.02c-27.82,8.35-57.22,5.3-78.66-8.18-3.17-2.15-7.43-5.75-9.76-10.7l-.09-.13c-.46-.51-.73-1.84-.98-3.13-.38-1.93-.78-3.93-2.04-4.49-.61-.27-1.31-.17-2.1.29l-.22.13-.04.25c-2.04,12.12,5.22,20.8,14.33,26.78-.58.07-1.15.26-1.52.51-.23.16-.43.36-.65.54-.19.15-.39.29-.59.41-1.5.96-2.95,2.08-4.38,3.28-2.69,2.26-5.08,4.82-7.37,7.5-2.18,2.55-4.12,5.43-5.76,8.35-1.67,2.96-3.08,6.08-4.03,9.34-1.04,3.52-1.62,7.08-1.78,10.73-.33,7.13,1.58,14.39,5.48,20.37,3.97,6.08,9.71,10.72,16.3,13.7,6.2,2.8,13.12,4.12,19.91,4.12h.09c7.09-.02,14.02-1.31,20.72-3.62,6.26-2.15,12.29-5.35,17.59-9.32,5.37-4,10.19-8.75,14.04-14.23,1.22-1.7,2.63-3.97,3.9-6.35,4.53-8.62,6.66-18.57,4.94-28.35-.18-1.16-.59-2.9-1.15-4.63-.12-.38-.26-.78-.4-1.2,8.81-1.62,16.63-4.19,21.29-7.95,3.38-2.73,4.84-5.91,4.33-9.44Z"/>
  <path class="cls-3" d="m411.33,292.92s0,0,0,0c0,.02.01.04.02.05.05.14.09.28.13.42.22.75.49,1.9.7,3.04.2,1.29.33,2.58.39,3.89.03,1.46-.02,2.9-.14,4.34-.18,1.58-.45,3.15-.81,4.7-.39,1.57-.88,3.11-1.44,4.63-.63,1.6-1.34,3.15-2.12,4.67-.03.06-.06.11-.09.17-.93,1.72-2.05,3.51-3.26,5.24v.03c-1.25,1.69-2.58,3.3-3.97,4.86-1.69,1.81-3.49,3.5-5.38,5.09-1.91,1.54-3.88,2.95-5.93,4.31-2.11,1.31-4.29,2.5-6.54,3.58-2.33,1.06-4.69,1.98-7.13,2.78-2.27.68-4.57,1.25-6.89,1.7-2.4.39-4.8.65-7.24.77-1.72.06-4.07,0-6.42-.21-1.78-.22-3.53-.52-5.28-.9-1.64-.42-3.25-.92-4.85-1.49-1.44-.59-2.83-1.24-4.21-1.95-1.07-.61-2.11-1.26-3.12-1.96-1.03-.76-2.01-1.55-2.97-2.39-.98-.93-1.9-1.91-2.77-2.94-.75-.95-1.45-1.93-2.11-2.95-.6-1.01-1.15-2.03-1.67-3.09-.52-1.23-.99-2.47-1.41-3.74-.34-1.2-.63-2.4-.86-3.62l-.02-.11c-.01-.07-.03-.14-.04-.22-.15-1.04-.25-2.17-.34-3.32-.04-1.56,0-3.12.12-4.68.21-1.73.51-3.44.87-5.14.51-1.98,1.11-3.9,1.81-5.81.71-1.75,1.49-3.43,2.36-5.1.94-1.66,1.95-3.26,3.05-4.83,1.34-1.8,2.76-3.5,4.25-5.17,1.13-1.2,2.28-2.37,3.49-3.5.88-.81,1.73-1.67,2.64-2.46.18-.14.35-.26.55-.39.16-.1.31-.2.47-.3.6-.41,1.25-1.39,1.33-2.2,9.97,6,21.46,8.98,25.35,9.88,3.91,1.44,12.12,2.32,21.7,2.32,5.31,0,11.05-.27,16.7-.87.4.93.77,1.88,1.09,2.84Z"/>
  <g>
    <path class="cls-4" d="m92.76,417.71c3.91-7.45,47.45-8.34,55.16-11,53.85-7,107.73-13.71,161.62-20.48,53.95-6.76,107.92-13.46,161.88-20.21,5.25.12,14.31-4.6,15.93,2.86-.05,8.35-18.89,6.21-27.24,7.74-2.24.41-4.47.83-6.73,1.11-43.42,5.37-86.82,10.73-130.24,16.09-54,6.66-107.99,13.31-162,19.79-10.16-.61-68.48,12.36-68.38,4.1Z"/>
    <path class="cls-4" d="m101.63,421.02c-4.21,0-7.29-.46-8.6-1.61-.54-.47-.81-1.04-.8-1.7v-.13s.06-.11.06-.11c2.72-5.18,22.45-7.22,38.31-8.86,7.83-.81,14.6-1.51,17.16-2.39l.11-.02c45.34-5.89,91.47-11.68,136.08-17.27l25.55-3.21c30.3-3.8,60.61-7.57,90.93-11.35,23.65-2.95,47.31-5.9,70.96-8.86,1.48.02,3.17-.3,4.96-.64,4.58-.88,10.28-1.99,11.57,3.93v.06s.01.06.01.06c-.04,6.62-10.29,7.12-19.33,7.56-4.17.2-8.11.4-10.26,1.2l-.12.03c-45,5.57-89.97,11.13-134.97,16.68-52.05,6.42-107.43,13.24-162.01,19.79-3.46-.2-12.34,1.14-22.62,2.68-13.29,2-27.8,4.18-36.96,4.18Zm-8.31-3.17c.03.28.16.52.42.75,3.81,3.32,27.44-.23,44.69-2.83,10.34-1.56,19.27-2.91,22.75-2.69,54.48-6.55,109.86-13.37,161.91-19.79,44.97-5.55,89.93-11.11,134.91-16.67,2.32-.84,6.31-1.04,10.53-1.24,8.53-.42,18.2-.89,18.3-6.43-1-4.48-4.73-4.11-10.29-3.03-1.85.36-3.61.69-5.11.66-23.57,2.95-47.22,5.9-70.88,8.85-30.31,3.78-60.62,7.56-90.93,11.35l-25.55,3.21c-44.59,5.59-90.69,11.38-136.02,17.27-2.71.91-9.5,1.62-17.35,2.43-14.65,1.52-34.66,3.59-37.39,8.17Z"/>
  </g>
  <path class="cls-2" d="m282.46,315.14c-.23-6.08-1.88-12.18-4.91-17.47-1.65-2.87-3.64-5.47-5.98-7.82-1.05-1.04-2.15-2.01-3.3-2.92l-.02-.02-.1-.08c-.28-.22-.61-.46-.93-.71-.07-.21-.15-.42-.25-.62-.75-1.44-2.14-2.33-3.66-2.51-.3-.04-.6-.06-.91-.04-.52.02-1.05.14-1.55.35-3.53.95-7.08,1.83-10.61,2.76-5.29,1.37-10.57,2.73-15.86,4.12-12.57,3.32-25.16,6.64-37.71,10.01-6.49,1.75-12.97,3.49-19.45,5.24-6.6,1.78-13.21,3.49-19.79,5.37-.02.01-.38.11-.74.21l-.53.16c-.91.26-2.15.6-3.37.99-1.15.36-2.46.64-3.44,1.33-1.23.85-1.1,2.78.26,3.43.24.12.5.18.76.19h.01s.04.02.07.02c0,0-.01,0-.02,0,.11,0,.22.01.33.01.72,0,1.46-.14,2.16-.26.85-.16,1.72-.31,2.57-.48,6.6-1.32,13.18-2.8,19.75-4.24,6.74-1.48,13.46-2.97,20.21-4.44.73-.16,1.46-.33,2.18-.48-.4.35-.81.85-1.15,1.61-1.25.05-2.16,1.47-2.73,2.42-.81,1.34-1.57,2.71-2.21,4.15-1.39,3.1-2.47,6.43-2.99,9.78-.51,3.25-.86,6.56-.58,9.86.28,3.37.97,6.68,2.15,9.85,2.37,6.4,6.54,11.96,11.92,16.13,6.29,4.91,14.66,7.65,23.15,8.04.75.03,1.5.05,2.24.05,12.15,0,24.04-4.47,33.67-11.82,5.69-4.41,10.57-9.74,14.29-15.92,0,.01.02-.04.05-.09.07-.12.15-.24.22-.37,2.25-3.87,4.08-8.09,5.28-12.55,1.15-4.31,1.68-8.77,1.49-13.23Z"/>
  <path class="cls-3" d="m272.73,321.41v.02c-.02.18-.05.35-.07.53-.2,1.25-.55,2.89-.98,4.51-.45,1.54-1.03,3.16-1.68,4.77-.79,1.81-1.68,3.54-2.67,5.25-.96,1.56-1.99,3.08-3.1,4.55-1.27,1.6-2.61,3.13-4.03,4.58-1.65,1.61-3.39,3.13-5.22,4.54-1.5,1.11-3.04,2.15-4.64,3.11-1.98,1.15-4.03,2.19-6.14,3.09-1.97.79-3.95,1.47-5.98,2.04-1.98.51-3.98.91-5.99,1.18-1.94.22-3.88.33-5.84.34-1.63-.05-3.25-.17-4.86-.38-1.65-.26-3.27-.6-4.88-1.04-1.35-.42-2.68-.89-3.99-1.43-1.42-.63-2.78-1.33-4.11-2.11-1.08-.68-2.11-1.4-3.12-2.17-.94-.77-1.85-1.58-2.72-2.44-.72-.76-1.4-1.55-2.07-2.37-.08-.1-.16-.2-.23-.3-.66-.93-1.29-1.87-1.87-2.84l-.03-.05c-.04-.06-.07-.12-.11-.18-.51-.94-1.04-2.06-1.55-3.2-.47-1.21-.88-2.44-1.25-3.68-.44-1.73-.78-3.47-1.02-5.24-.13-1.38-.21-2.75-.23-4.13.05-1.57.17-3.11.36-4.66v-.04c.01-.08.02-.16.03-.24.34-2.09.85-4.32,1.45-6.53.31-1.05.63-2.09.99-3.13.31-.9.65-1.81.8-2.76.08-.5,1.98-3.66,1.66-4.2,0,0,0,0-.01,0,11.29-2.48,22.57-5.04,33.86-7.58,5.85-1.32,11.7-2.68,17.53-4.01,2.9-.65,5.77-1.33,8.66-2,.35-.08.7-.17,1.05-.25.25.27.52.53.82.75.22.16.44.32.66.49.95.74,1.85,1.54,2.7,2.37.82.84,1.61,1.73,2.34,2.66.68.91,1.32,1.86,1.91,2.85.62,1.11,1.18,2.24,1.68,3.4.46,1.16.85,2.34,1.19,3.54.32,1.24.56,2.49.75,3.76.18,1.52.26,3.04.26,4.57-.04,1.36-.13,2.72-.3,4.07Z"/>
  <g>
    <path class="cls-4" d="m22.09,192.52c-8.5-7.04,26.53-32.42,32.66-37.24,38.02-24.66,86.3-48.27,132.4-36.78,2.69.75,4.2,3.73,3.15,6.33-2.49,5.84-9.31.83-13.34.56-56.29-4.04-114.72,25.29-151.63,66.65,0,0,0-.01-.01-.02-.91.73-2.14.94-3.23.5Z"/>
    <path class="cls-4" d="m23.27,193.3c-.47,0-.94-.09-1.39-.27l-.14-.08c-1.03-.86-1.55-1.99-1.52-3.37.17-8.74,23.2-26.31,31.86-32.93.98-.74,1.77-1.35,2.32-1.78,52.47-34.03,95.92-46.09,132.87-36.88,1.46.4,2.68,1.42,3.35,2.79.66,1.35.73,2.91.17,4.27-1.98,4.63-6.44,3.12-10.01,1.91-1.43-.48-2.77-.94-3.86-1.01-52.44-3.76-111.79,22.33-151.19,66.47l-.4.45-.1-.11c-.6.36-1.28.55-1.96.55Zm-.9-1.25c.87.32,1.86.16,2.61-.45l.06-.05c39.61-44.31,99.23-70.5,151.96-66.7,1.23.08,2.64.56,4.14,1.07,4.28,1.45,7.2,2.14,8.66-1.3.44-1.07.38-2.31-.14-3.38-.54-1.09-1.5-1.9-2.65-2.22-36.63-9.13-79.8,2.88-131.96,36.71-.52.41-1.31,1.02-2.29,1.77-8.55,6.53-31.27,23.87-31.44,32.09-.02,1.02.33,1.82,1.06,2.46Z"/>
  </g>
  <g>
    <path class="cls-4" d="m277.74,272.02c-27.56-31.53-46.58-72.23-70.7-107.12-3.14-8.73-29.4-37.46-21.57-43.08,7.28-7.52,37.38,54.5,44.77,62.23,3.49,9.73,62.91,89.7,47.5,87.96Z"/>
    <path class="cls-4" d="m278.21,272.59c-.16,0-.34,0-.52-.03l-.21-.02-.14-.16c-17.13-19.6-31.17-43.07-44.74-65.77-8.28-13.85-16.16-26.83-25.31-40.06l-.75-1.47c-1.03-2.87-4.79-8.19-8.76-13.82-8.55-12.11-18.25-25.84-12.61-29.88.53-.56,1.27-.82,2.14-.71,6.34.78,18.99,22.61,30.14,41.87,5.78,9.99,11.15,17.98,13.57,21.94l.19.42c1.07,2.98,7.37,12.15,15.18,23.95,20.57,31.08,37.33,57.24,34.01,62.66-.31.51-.94,1.08-2.19,1.08Zm-.2-1.09c1.08.06,1.36-.4,1.46-.56,3.22-5.27-19.17-39.1-33.99-61.49-8.08-12.21-14.49-21.88-15.71-25.1-2.53-2.72-7.51-11.32-13.27-21.26-9.93-17.14-23.53-40.62-29.34-41.34-.53-.07-.94.08-1.3.45-4.84,3.48,5.35,17.9,12.79,28.44,4.16,5.9,7.76,10.99,8.87,14.01,9.16,13.24,17.72,27.56,26,41.4,13.51,22.59,27.48,45.96,44.49,65.45Z"/>
  </g>
  <g>
    <path class="cls-4" d="m280.7,273.43s0,0,0,0c-.13-82.18,92.29-170.32,160.33-209.29,0,0,0,0,0,0,25.48-14.83,52.6-26.94,80.83-35.49,19.86-5.98,40.26-10.23,60.94-12.02,10.33,2.52,3.48,11.3-5.01,10.01-101.34,12.89-195.55,73.63-254.02,156.64-15.16,22.2-27.4,46.61-34.73,72.21-2.98,5.15-.96,18.03-8.33,17.93Z"/>
    <path class="cls-4" d="m280.79,273.97s-.06,0-.1,0l-.4-.27-.14-.27c-.07-46.86,29.72-91.77,54.73-121.2,28.93-34.04,68.48-67.13,105.81-88.52l.07-.04c26.19-15.24,53.42-27.19,80.93-35.53,20.92-6.3,41.46-10.35,61.05-12.04h.09s.09.01.09.01c3.98.97,6.05,3.08,5.54,5.65-.64,3.22-5.33,6.21-10.69,5.44-98.65,12.57-193.44,71.03-253.57,156.4-16.02,23.46-27.45,47.16-34.42,71.51l-.96,2.28c-.81,2.49-.73,2.78-1.17,5.61-.8,5.15-1.7,10.98-6.86,10.98Zm157.06-207.35c-61.94,36.63-156.32,122.72-156.61,206.25,3.83-.34,4.56-5.06,5.33-10.04.45-2.9.88-5.65,1.95-7.55,7-24.44,18.71-48.77,34.78-72.31,60.33-85.64,155.43-144.28,254.4-156.87h.08s.07,0,.07,0c4.72.71,9-1.86,9.54-4.56.38-1.94-1.31-3.52-4.65-4.36-19.49,1.69-39.92,5.72-60.74,11.99-27.44,8.31-54.59,20.23-80.71,35.43l-3.45,2.01Z"/>
  </g>
  <g>
    <path class="cls-4" d="m93.52,412.84c-2.23-1.18-3.28-4.18-1.96-6.43,0,0,0,0,0,0,0,0,.01-.01.01-.02,0,0,0,0,0,0,5.2-51.4-38.7-157.75-66.96-202.19,0,0,0,0,0,0-.36-.49-.72-.98-1.05-1.43-.02-.03-.05-.06-.07-.09.07.1.15.2.22.3-2.32-3.29-5.01-5.89-7.87-8.38.01,0,.03,0,.04,0,22.32-15.45,114.98,220.91,77.64,218.25Z"/>
    <path class="cls-4" d="m94.15,413.41c-.22,0-.44,0-.66-.02l-.21-.06c-1.26-.66-2.22-1.87-2.62-3.29-.3-1.05-.27-2.11.07-3.07h0l.3-.79.08-.5h0c4.63-50.38-37.09-154.2-66.94-201.16l-.89-1.22h0s-.04-.05-.06-.08c-.03-.05-.07-.09-.11-.14h0c-2.38-3.33-5.19-5.94-7.63-8.06l-.86-.74,1.05-.19c2.17-1.43,4.94-.84,8.25,1.76,14.75,11.62,37.49,59.8,53.48,102.4,15.78,42.04,30.34,92.91,23.88,109.62-1.42,3.68-3.82,5.55-7.13,5.55Zm-2.45-3.64c.53,1.8,2.51,2.84,4.31,2.29,1.88-.58,3.29-2.09,4.26-4.59,5.23-13.53-4.14-56.26-23.88-108.85-18.85-50.22-40.7-92.14-53.13-101.93-2.62-2.06-4.79-2.73-6.47-1.99,2.38,2.1,5.03,4.65,7.31,7.87l.96,1.31-.33.25.35-.22c29.99,47.18,71.95,151.7,67.08,202.19v-.06h0l-.09.44h0l-.31.79h0c-.28.76-.31,1.61-.07,2.46,0,.01,0,.02,0,.03ZM23.92,202.34l-.41.36h0s.41-.36.41-.36Z"/>
  </g>
  <g>
    <path class="cls-4" d="m640.97,82.81c-2.18-1.22-3.21-4.33-1.76-6.5.1-.15.2-.3.29-.45-.1.15-.23.36-.31.47,0,0-.01.02-.02.03,8.25-27.41-37.85-46.6-59.09-51.59-1.4-1-4.18-.76-4.26-2.81.17-1.13,1.34-1.5,2.23-1.13,28.52-2.05,83.74,25.59,69.37,60.18,0,0,0,0,0,0-1.17,2.3-4.26,3.05-6.45,1.8Z"/>
    <path class="cls-4" d="m643.28,83.95c-.91,0-1.8-.23-2.58-.67-1.25-.7-2.21-1.99-2.56-3.46-.07-.27-.11-.55-.13-.82h0v-.61c.01-.81.24-1.58.66-2.26,1.79-6.01,1-12-2.37-17.82-9.71-16.81-39.02-28.96-56.34-33.03l-.19-.09c-.41-.29-1.03-.48-1.63-.66-1.24-.38-2.79-.85-2.86-2.57.1-.73.45-1.25.98-1.55.55-.31,1.24-.37,1.87-.15,19.65-1.36,51.77,11.3,65.47,30.32,7.07,9.82,8.57,20.41,4.33,30.62-.62,1.22-1.7,2.09-3.05,2.5-.53.16-1.06.24-1.6.24Zm-3.46-7.89l-.46.97c-.43,1.13-.42,1.47-.16,2.54.28,1.18,1.05,2.21,2.04,2.77h0c.98.56,2.19.68,3.33.34,1.06-.32,1.9-1,2.37-1.91,4.14-9.95,2.72-19.9-4.22-29.53-13.53-18.77-45.27-31.25-64.63-29.86h-.13s-.12-.04-.12-.04c-.34-.14-.74-.13-1.04.04-.25.14-.39.36-.44.67.04.8.82,1.09,2.1,1.47.64.19,1.31.4,1.85.75,17.52,4.13,47.07,16.45,56.94,33.52,3.44,5.96,4.31,12.1,2.58,18.27h0Z"/>
  </g>
  <path class="cls-4" d="m150.43,317.12s.01,0,.02,0c-.03,0-.05,0-.07,0h-.01c-.26-.03-.52-.09-.76-.2-1.36-.65-1.49-2.58-.26-3.43.99-.69,2.29-.97,3.44-1.33,1.22-.38,2.46-.73,3.37-.99l.53-.16c.36-.1.72-.2.74-.21,6.58-1.88,13.19-3.59,19.79-5.37,6.48-1.75,12.96-3.49,19.45-5.24,12.55-3.37,25.13-6.69,37.71-10.01,5.28-1.39,10.56-2.75,15.86-4.12,3.53-.93,7.08-1.81,10.61-2.76.5-.21,1.02-.33,1.55-.35.31-.01.62,0,.91.04,1.52.18,2.91,1.07,3.66,2.51.18.35.31.73.4,1.12,0,.02,0,.03.01.05.1.47.12.96.07,1.44-.12,1.28-.72,2.51-1.73,3.29-.55.46-1.22.78-1.97.9-.13.02-.25.04-.38.05-1.24.22-2.47.57-3.7.85-2.89.67-5.76,1.35-8.66,2-5.84,1.33-11.68,2.69-17.53,4.01-12.67,2.85-25.33,5.74-38.01,8.5-6.75,1.47-13.47,2.96-20.21,4.44-6.58,1.44-13.15,2.92-19.75,4.24-.85.17-1.72.32-2.57.48-.71.12-1.44.26-2.16.26-.11,0-.22,0-.33-.01Z"/>
  <path class="cls-4" d="m225.2,369.06c-8.49-.39-16.85-3.13-23.15-8.04-5.38-4.17-9.55-9.72-11.92-16.13-1.17-3.17-1.86-6.48-2.15-9.85-.28-3.29.07-6.61.58-9.86.52-3.36,1.59-6.69,2.99-9.78.64-1.43,1.39-2.8,2.21-4.15.57-.95,1.48-2.37,2.73-2.42.47-.01.99.2,1.22.6.32.54.33,1.06.25,1.56-.15.95-.49,1.86-.8,2.76-.36,1.04-.68,2.08-.99,3.13-.6,2.22-1.11,4.45-1.45,6.53-.01.08-.02.16-.03.24v.04c-.19,1.55-.31,3.09-.36,4.66.02,1.38.1,2.75.23,4.13.23,1.77.58,3.51,1.02,5.24.37,1.24.78,2.47,1.25,3.68.5,1.14,1.04,2.25,1.55,3.2.03.06.07.12.11.18l.03.05c.59.97,1.21,1.91,1.87,2.84.08.1.15.2.23.3.66.82,1.34,1.61,2.07,2.37.87.86,1.78,1.67,2.72,2.44,1.01.77,2.05,1.49,3.12,2.17,1.34.79,2.7,1.48,4.11,2.11,1.31.54,2.63,1.01,3.99,1.43,1.61.43,3.23.78,4.88,1.04,1.62.21,3.23.33,4.86.38,1.96,0,3.9-.12,5.84-.34,2.02-.27,4.01-.68,5.99-1.18,2.03-.57,4.02-1.25,5.98-2.04,2.11-.9,4.15-1.94,6.14-3.09,1.6-.96,3.14-2.01,4.64-3.11,1.84-1.41,3.57-2.92,5.22-4.54,1.42-1.45,2.76-2.98,4.03-4.58,1.11-1.47,2.14-2.98,3.1-4.55.99-1.7,1.89-3.44,2.67-5.25.65-1.61,1.23-3.23,1.68-4.77.44-1.62.78-3.26.98-4.51.02-.18.05-.35.07-.53v-.02c.17-1.35.26-2.71.3-4.07,0-1.53-.08-3.05-.26-4.57-.18-1.27-.43-2.52-.75-3.76-.34-1.2-.73-2.39-1.19-3.54-.5-1.17-1.06-2.3-1.68-3.4-.59-.98-1.22-1.93-1.91-2.85-.73-.93-1.52-1.82-2.34-2.66-.86-.83-1.75-1.63-2.7-2.37-.22-.17-.44-.33-.66-.49-1.01-.74-1.74-1.75-1.99-3-.25-1.23.02-2.54.73-3.59,1.44-2.11,4.47-2.74,6.59-1.25.45.32.89.66,1.28.96l.1.08.02.02c1.15.92,2.25,1.89,3.3,2.92,2.33,2.35,4.33,4.96,5.98,7.82,3.03,5.29,4.68,11.39,4.91,17.47.18,4.45-.35,8.92-1.49,13.23-1.2,4.46-3.03,8.68-5.28,12.55-.07.12-.15.24-.22.37-.03.05-.06.1-.05.09-3.72,6.17-8.6,11.51-14.29,15.92-9.64,7.35-21.52,11.82-33.67,11.82-.75,0-1.49-.02-2.24-.05Z"/>
  <path class="cls-2" d="m232.27,365.67c-.58-.12-1.16-.26-1.73-.42,10.02-1.2,19.63-5.32,27.67-11.46,4.4-3.41,8.31-7.37,11.58-11.84-.64,2.29-1.59,4.5-2.76,6.59-3.39,5.86-8.49,10.53-14.46,13.68-3.01,1.59-6.26,2.74-9.59,3.39-1.84.37-3.76.57-5.68.57-1.7,0-3.39-.16-5.03-.51Z"/>
  <path class="cls-2" d="m223.71,361.76c-.06-.01-.13-.02-.19-.03-.14-.26-.28-.53-.41-.8-1.42-2.92-1.94-6.12-1.9-9.34.04-3.25,1-6.43,2.23-9.4.99-2.31,2.32-4.44,3.82-6.47,6.25-8.12,16.18-13.9,26.56-13.99h-.57c3.17-.04,6.24.42,9.18,1.63,2.75,1.18,5.27,2.94,7.05,5.37.45,0,.91.08,1.36.24,1,.34,1.77.96,2.37,1.78-.31.9-.66,1.82-1.03,2.73-.79,1.8-1.68,3.54-2.67,5.24-.88,1.44-1.83,2.84-2.84,4.2.04-.21.08-.43.11-.64.08-.84.12-1.67.12-2.51-.02-.47-.05-.93-.11-1.39-.08-.45-.18-.89-.29-1.33-.17-.14-.34-.3-.49-.48-1.01-1.12-1.39-2.64-1.13-4.12,0,0,0-.01,0-.02-.25-.16-.5-.32-.76-.47-.55-.3-1.13-.57-1.71-.82-.59-.23-1.2-.42-1.81-.6-.77-.19-1.57-.33-2.36-.45-1-.1-2.01-.16-3.02-.16-.82.03-1.63.09-2.45.19-1.35.2-2.68.48-3.99.84-1.15.36-2.26.76-3.36,1.23-1.05.48-2.08,1-3.08,1.58-1.04.64-2.03,1.32-2.99,2.07-.91.75-1.78,1.54-2.62,2.38-.76.8-1.48,1.64-2.16,2.5-.63.86-1.22,1.74-1.76,2.66-.42.76-.8,1.53-1.15,2.33-.3.79-.57,1.57-.82,2.38-.15.62-.29,1.24-.39,1.87-.02.16-.04.32-.06.49-.04.47-.07.95-.09,1.42.02.59.06,1.16.11,1.75.08.48.19.96.3,1.43,0,.02.01.04.02.06.14.42.29.83.46,1.24.18.37.37.73.57,1.09.2.31.42.61.64.91.29.34.58.66.89.98.26.23.52.45.79.67.41.29.83.57,1.26.83.39.21.78.4,1.19.58.04.01.07.03.11.04-.75.14-1.5.25-2.25.36-1.94.22-3.89.33-5.84.35-1.63-.05-3.25-.17-4.86-.38Z"/>
  <path class="cls-2" d="m236.66,361.45c-.75.14-1.5.25-2.25.36-1.94.22-3.89.33-5.84.35-1.63-.05-3.25-.17-4.86-.38-.06-.01-.13-.02-.19-.03-.14-.26-.28-.53-.41-.8-1.42-2.92-1.94-6.12-1.9-9.34.04-3.25,1-6.43,2.23-9.4.99-2.31,2.32-4.44,3.82-6.47,6.25-8.12,16.18-13.9,26.56-13.99h-.57c3.17-.04,6.24.42,9.18,1.63,2.75,1.18,5.27,2.94,7.05,5.37.45,0,.91.08,1.36.24,1,.34,1.77.96,2.37,1.78-.31.9-.66,1.82-1.03,2.73-.79,1.8-1.68,3.54-2.67,5.24-.88,1.44-1.83,2.84-2.84,4.2"/>
  <path class="cls-4" d="m267.24,342.91c.04-.21.08-.43.11-.64.08-.84.12-1.67.12-2.51-.02-.47-.05-.93-.11-1.39-.08-.45-.18-.89-.29-1.33-.17-.14-.34-.3-.49-.48-1.01-1.12-1.39-2.64-1.13-4.12,0,0,0-.01,0-.02-.25-.16-.5-.32-.76-.47-.55-.3-1.13-.57-1.71-.82-.59-.23-1.2-.42-1.81-.6-.77-.19-1.57-.33-2.36-.45-1-.1-2.01-.16-3.02-.16-.82.03-1.63.09-2.45.19-1.35.2-2.68.48-3.99.84-1.15.36-2.26.76-3.36,1.23-1.05.48-2.08,1-3.08,1.58-1.04.64-2.03,1.32-2.99,2.07-.91.75-1.78,1.54-2.62,2.38-.76.8-1.48,1.64-2.16,2.5-.63.86-1.22,1.74-1.76,2.66-.42.76-.8,1.53-1.15,2.33-.3.79-.57,1.57-.82,2.38-.15.62-.29,1.24-.39,1.87-.02.16-.04.32-.06.49-.04.47-.07.95-.09,1.42.02.59.06,1.16.11,1.75.08.48.19.96.3,1.43,0,.02.01.04.02.06.14.42.29.83.46,1.24.18.37.37.73.57,1.09.2.31.42.61.64.91.29.34.58.66.89.98.26.23.52.45.79.67.41.29.83.57,1.26.83.39.21.78.4,1.19.58.04.01.07.03.11.04"/>
  <path class="cls-2" d="m269.94,352.04c.05-.08.09-.16.14-.24-.1.17-.2.35-.3.52.05-.09.11-.19.16-.28Z"/>
  <path class="cls-2" d="m221.28,339.85s-.03.07-.04.11c-.04.08-.07.17-.11.26.05-.12.1-.25.15-.36Z"/>
  <path class="cls-2" d="m225.13,333.4s-.05.06-.07.1c-.09.12-.18.24-.27.36.11-.15.22-.3.35-.46Z"/>
  <path class="cls-2" d="m342.57,320.52h0s0,0,0,0c0,0,.02,0,.03,0,0,0,0,0,0,0,0,0,.02,0,.02,0,0,0-.01,0-.02,0,.06-.01.13-.03.19-.04-.07.02-.15.03-.22.05-.05.01-.1.03-.15.04.05-.01.1-.02.15-.04Z"/>
  <path class="cls-2" d="m355.2,352.06c-1.78-.22-3.53-.52-5.27-.9-1.64-.42-3.26-.91-4.85-1.49-1.43-.59-2.84-1.23-4.22-1.95-1.06-.62-2.11-1.26-3.12-1.96-1.02-.75-2.01-1.54-2.97-2.38-.97-.94-1.9-1.91-2.76-2.95-.75-.95-1.46-1.92-2.12-2.95-.59-1-1.15-2.02-1.67-3.08-.52-1.23-.99-2.47-1.41-3.74-.17-.59-.32-1.18-.47-1.77.31-.73.69-1.44,1.13-2.1-.37-1.54-.03-3.25,1.16-4.38,3.29-3.14,7.44-4.98,11.82-6.03-.07.01-.14.03-.21.04.2-.04.39-.09.59-.13,0,0,.02,0,.03,0,0,0-.01,0-.02,0,5.66-1.2,11.43-1.09,17.11-.07,3.21.59,6.38,1.54,9.38,2.84,2.86,1.23,5.63,2.73,8.09,4.61,1.42,1.08,2.72,2.27,3.93,3.57-.1-.11-.21-.22-.31-.32,2.1,2.27,3.7,4.8,4.73,7.74,1.18,3.42,1,7.32-.44,10.64-.31.7-.67,1.37-1.07,2.01-2.13.94-4.28,1.78-6.51,2.51-2.27.68-4.57,1.25-6.9,1.69-2.41.39-4.8.65-7.23.78-.4.01-.83.02-1.28.02-1.52,0-3.33-.08-5.15-.23Z"/>
</svg>