<?xml version="1.0" encoding="UTF-8"?>
<svg id="Vector_layer" data-name="Vector layer" xmlns="http://www.w3.org/2000/svg" viewBox="0 0 750.49 575.67">
  <defs>
    <style>
      .cls-1 {
        fill: #ff008f;
      }

      .cls-1, .cls-2, .cls-3 {
        stroke-width: 0px;
      }

      .cls-4 {
        stroke-width: .75px;
      }

      .cls-4, .cls-5 {
        fill: none;
        stroke: #000;
        stroke-linecap: round;
        stroke-linejoin: round;
      }

      .cls-3 {
        fill: #fff;
      }

      .cls-5 {
        stroke-width: .1px;
      }
    </style>
  </defs>
  <polygon class="cls-2" points="236.58 174.38 236.15 172.85 236.26 173.07 236.22 172.82 236.29 172.82 236.4 173.03 236.44 173.4 236.4 173.03 236.91 174.31 236.58 174.38"/>
  <polygon class="cls-2" points="236.47 174.42 236.47 173.58 235.67 173.58 235.67 172.78 236.47 172.78 236.47 173.58 237.28 173.58 237.28 174.42 236.47 174.42"/>
  <polygon class="cls-2" points="236.69 174.38 236.47 173.73 236.51 173.87 236.07 172.85 236.33 172.78 236.77 174.34 236.62 174.05 236.69 174.38 236.69 174.38"/>
  <g>
    <path class="cls-2" d="m571.09,209.78s0,.07.04.11c0,0,0-.07-.04-.11Z"/>
    <polygon class="cls-2" points="570.39 210.22 570.58 210.11 570.36 210.18 571.81 209.46 571.89 209.57 570.39 210.22"/>
  </g>
  <path class="cls-2" d="m290.73,476.32h-.22l-.18-.11.22-.33.22-.51v-.65h.29v.04h0l.15.07-.44.69v.8h-.04Zm-.04-.65l-.22.62.29-.76s-.07.15-.07.15Z"/>
  <polygon class="cls-2" points="290.62 476.35 290.33 476.17 286.8 473.33 291.24 474.86 291.05 475.3 291.35 474.93 291.05 475.3 290.62 476.35"/>
  <polygon class="cls-2" points="290.8 476.43 290.58 476.32 291.24 475.33 291.38 474.93 291.42 474.93 291.31 475.23 291.45 474.97 291.31 475.26 291.53 475.01 291.27 475.37 290.8 476.43"/>
  <g>
    <g>
      <path class="cls-2" d="m716.78,235.76c5.79,1.02,8.95,2.07,8.3,3.53v.07c-.33.58-1.16,1.2-2.55,1.93-.95.47-2.11.98-3.53,1.53-2.73,1.06-6.22,2.22-10.08,3.49-7.71,2.55-16.12,5.46-23.91,8.7-93.19,39.22-126.04,107.81-104.98,204.89,1.71,8.11,4.33,15.83,6.04,23.72,1.6,8.51,2.55,15.21-1.56,16.05-3.49,1.06-12.84-6.66-17.07-11.06-22.27-22.63-56.76-50-92.82-49.38-34.64.18-56.22,31.91-68.41,60.73-4.69,10.33-8.26,20.67-11.86,31.07-2.44,7.02-6.8,17.1-11.21,17.1-4.08,1.24-12.7-6-17.47-10.01-6.37-5.49-14.34-11.57-22.92-17.72-8.88-6.4-18.3-12.88-26.78-18.85-11.06-7.68-21.25-15.46-33.04-20.67-38.35-17.14-79.14,4.4-111.89,25.87-6.88,4.37-13.43,9.06-20.19,13.21-9.24,5.49-15.06,7.13-13.43-3.42.98-5.68,3.27-12.52,5.2-18.41,8.99-27.44,14.45-54.11,16.26-79.69.4-6.48.76-13.86-1.46-19.76-9.24-27.69-84.74-4.22-106.29-.22-39.73,7.5-9.97-12.37,4.11-22.05,26.16-18.12,120.51-94.46,115.09-131.72-3.53-22.6-38.93-43.77-58.76-52.54-4.77-2.22-10.88-5.13-14.74-7.82-1.78-1.35-3.2-2.29-4.08-4.18-1.42-6.55,18.74-5.97,25-6.19,79.18-.4,174.18-24.56,209.77-106.94,4.29-9.39,7.28-17.9,10.08-26.45,1.53-4.77,8.41-26.49,13.94-15.36,1.93,4.62,2.4,11.39,2.77,17.28.58,11.97.44,24.23,2.58,36.02,5.53,37.59,31.47,69.61,70.37,73.86,48.94,4.26,97.52-12.34,142.96-27.94,7.93-2.73,16.08-5.68,23.87-8.3,5.86-1.6,12.81-4.66,18.01-2.55,6.37,4.55-10.12,22.71-14.77,29.95-5.13,7.06-10.3,14.48-14.05,21.9-7.06,13.57-10.55,32.27,1.56,43.85,7.75,7.6,20.34,10.55,34.6,13.54,15.06,3.09,30.49,5.2,45.7,7.06,16.85,2.15,35.44,3.49,51.6,5.97v-.11Zm-34.13,12.66c2.33-1.09,4.4-2.26,4.11-3.24,0-.07,0-.11-.07-.18-.04-.07-.11-.15-.22-.22-.07-.07-.15-.15-.29-.22h0c-.25-.15-.58-.29-1.02-.44-.44-.15-1.02-.29-1.71-.4-7.53-.98-15.65-1.64-23.94-2.37h-.47c-17.83-1.71-36.57-3.6-52.58-8.81-.8-.25-1.6-.55-2.37-.8s-1.53-.58-2.33-.87c-9.72-3.82-18.41-9.13-25.29-16.77-1.64-1.89-3.13-3.93-4.4-6.08-.33-.55-.62-1.06-.91-1.64-.22-.4-.44-.8-.62-1.24-.04-.11-.11-.22-.15-.29-.18-.4-.4-.8-.58-1.24-3.53-8.15-4.29-17.21-2.47-26.49q1.21-6.19,0,0c1.09-5.13,3.02-10.33,5.31-15.36,0-.11.07-.22.11-.33.11-.18.18-.4.29-.58.29-.76.69-1.64,1.06-2.51.07-.18.18-.36.29-.58,3.27-6.84,8.66-16.92,2.66-18.45l-.44-.11h-.07c-1.78-.4-4.37-.18-8.08.84h-.11c-4.48,1.02-9.31,2.69-13.72,4.08-11.1,3.35-22.38,6.73-33.69,9.68-1.16.29-2.33.58-3.46.87-6.95,1.67-13.94,3.2-20.92,4.48-7.53,1.35-14.92,2.29-22.27,2.95-.36,0-.73.07-1.09.11-1.2.11-2.44.18-3.64.29-5.49.36-10.95.58-16.52.73-3.09.07-6.15.18-9.24.25-4.62.04-9.28,0-14.01,0h-.44c-2.29-.11-4.58-.29-6.88-.58-.44-.04-.87-.11-1.31-.18-6.8-1.06-13.32-3.17-19.58-6.08-.73-.33-1.49-.69-2.22-1.06-.15-.07-.29-.15-.4-.18-.51-.25-1.02-.51-1.49-.8-.4-.18-.8-.44-1.2-.65-.62-.36-1.24-.69-1.86-1.06-.62-.36-1.24-.73-1.86-1.13-8.59-5.28-16.52-11.93-23.72-19.21l-.18-.18c-3.57-3.64-6.88-7.46-10.01-11.35-.36-.47-.73-.95-1.09-1.46-.11-.15-.22-.29-.33-.44-.29-.4-.58-.84-.91-1.24-3.27-4.77-6.26-9.86-8.73-14.88-.91-1.89-1.75-3.82-2.55-5.82-.65-1.6-1.27-3.06-1.89-4.37-.11-.22-.22-.47-.29-.69-1.2-2.69-2.4-4.51-3.6-5.6-.51-.47-1.06-.84-1.64-1.06-.11-.04-.18-.07-.29-.11-.07-.04-.15-.07-.25-.07s-.22-.04-.36-.07c-.29-.04-.58-.04-.91,0-.15,0-.25,0-.36.07-.15,0-.29.04-.44.11-.29.07-.58.18-.91.33-.95.44-1.96,1.09-3.02,2-.55.47-1.16,1.02-1.78,1.64-.22.18-.4.4-.62.62-.87.87-1.75,1.82-2.69,2.84-.18.22-.36.44-.51.62-.07.07-.15.18-.22.25-3.71,4.11-7.57,8.55-11.5,12.84-.33.36-.65.73-1.02,1.09-5.57,5.82-11.46,11.5-17.5,16.92l-.07.07c-4.98,4.37-10.15,8.62-15.32,12.74-1.02.8-2.07,1.64-3.09,2.44-.11.11-.22.18-.33.25-5.68,4.48-11.21,8.7-16.99,12.55-.29.22-.58.4-.91.58-8.95,5.71-18.3,10.44-28.27,14.08-.18.04-.36.11-.55.18-7.31,2.47-14.85,4.37-22.45,5.89h-.18c-1.13.22-2.29.44-3.42.65-1.02.18-2.07.4-3.09.58-3.57.65-7.17,1.24-10.81,1.75-2.33.33-4.66.65-7.02.95-1.16.15-2.37.29-3.53.44-1.64.18-3.27.4-4.91.58-6.7.73-13.43,1.35-20.01,2h-.18c-.95.07-1.89.18-2.84.25-.36,0-.73.07-1.13.11h-.25c-.44,0-.84.07-1.24.11-3.75.4-7.2.91-9.82,1.71h-.15c-1.89.51-3.27,1.13-3.82,1.86-.22.22-.4.47-.55.69-.15.22-.25.47-.33.69-.04.11-.07.18-.07.29-.07.29-.07.62,0,.98,0,.25.07.51.18.76.51,1.53,1.93,3.09,3.68,4.58.58.51,1.2,1.02,1.82,1.49.22.18.44.33.65.51,1.2.91,2.4,1.75,3.49,2.55.58.4,1.16.84,1.71,1.24.15.11.29.22.4.29s.22.15.29.25c2.87,2.15,5.79,4.33,8.66,6.59.22.18.44.36.65.51,4.58,3.68,9.02,7.5,13.17,11.46.69.65,1.35,1.27,1.96,1.93.22.25.44.47.69.73,2.51,2.66,4.84,5.46,6.99,8.41.73,1.06,1.35,2.15,1.93,3.24,2.47,4.88,3.38,9.93,3.2,15.06v.07c-.22,3.78-1.06,7.79-2.37,12.12-1.71,4.98-3.71,9.82-6,14.55,0,.07-.07.15-.15.25-2,3.97-4.18,7.79-6.19,11.39-6.88,11.28-14.92,21.61-23.72,31.26-.65.73-1.35,1.49-2.04,2.22-.69.73-1.38,1.46-2.07,2.18-9.28,9.53-19.25,18.41-29.36,26.64-.22.18-.44.36-.65.51-1.2.98-2.4,1.93-3.6,2.87-1.49,1.2-3.02,2.37-4.55,3.53l-.18.15c-.36.29-.73.58-1.13.84-.84.62-1.67,1.24-2.51,1.86-2.15,1.6-4.33,3.17-6.51,4.73-.8.58-1.6,1.16-2.4,1.71-.07.04-.11.07-.18.15-.29.22-.58.4-.87.62-.11.07-.25.18-.36.29-.15.07-.25.18-.36.29-.25.18-.55.36-.8.58-.44.29-.87.62-1.27.91-2.98,2.15-6.44,4.66-7.57,6.62-.04.04-.07.11-.07.15-.25.44-.4.8-.4,1.13,0,.44.25.8.73,1.09h.07c.15.04.25.11.4.15.18.07.4.15.62.18.15.04.29.07.44.11.07,0,.15.04.22.04.4.07.76.15,1.2.15,1.16.11,2.4.07,3.6.04,4.26-.11,10.37-.73,16.85-1.35,5.02-.44,10.22-.91,14.92-1.09h.8c3.24,0,6.62-.15,10.04-.15,3.75,0,7.5.18,11.06.58.95.07,1.86.18,2.77.36.18,0,.36.07.55.11,3.53.73,6.88,1.93,9.93,3.89,3.31,2.26,5.93,5.39,7.97,9.24.04.07.07.18.15.25,1.2,2.4,2.22,5.06,3.09,7.86.15.47.29.98.44,1.46.15.47.25.98.4,1.49.22.8.4,1.64.58,2.44.47,2.22.87,4.44,1.24,6.66.04.18.07.4.07.58.18,1.13.33,2.26.47,3.42.07.69.15,1.35.22,2,.33,2.95.51,5.82.65,8.41.07,1.27.11,2.51.15,3.78.07,3.38.04,6.8-.07,10.19-.04,1.06-.07,2.15-.15,3.2-.04,1.06-.15,2.15-.18,3.2-.07,1.06-.15,2.15-.25,3.2-.07.84-.15,1.64-.22,2.47l-.11.98c-.51,4.84-1.2,9.68-2,14.45-.04.36-.11.73-.18,1.06-.87,4.37-1.89,9.24-2.44,13.5v.22c-.36,2.51-.55,4.98-.22,7.1.15,1.24.47,2.22.98,2.95,0,.04.04.11.07.15.15.15.29.29.44.44,0,0,.07.04.11.07.33.25.73.44,1.2.47h.15c.44.11.95.11,1.53,0,.55-.04,1.13-.18,1.78-.36,1.49-.4,3.27-1.09,5.31-2.04.15-.07.29-.15.44-.18,2.87-1.35,5.79-2.91,7.93-4.04,1.75-.91,3.49-1.78,5.28-2.66,12.99-6.11,26.96-11.28,41.12-14.08.73-.15,1.46-.29,2.18-.4,12.44-2.18,25.03-2.51,37.33-.18.07,0,.15,0,.22.04,5.64,1.16,11.17,2.91,16.56,5.39.62.29,1.24.58,1.86.91,1.16.58,2.33,1.2,3.49,1.86,1.86,1.06,3.71,2.15,5.53,3.27.91.58,1.86,1.16,2.77,1.75s1.82,1.2,2.77,1.82c4.58,3.06,9.21,6.29,13.97,9.53,1.89,1.31,3.82,2.58,5.79,3.86l3.64,2.4c5.42,3.57,10.95,7.13,16.37,10.73l2.73,1.78c2.15,1.46,4.26,2.91,6.37,4.37.55.36,1.06.73,1.6,1.09h0c1.06.73,2.11,1.49,3.13,2.22,1.2.87,2.4,1.71,3.57,2.55.98.73,1.93,1.38,2.87,2.04,1.35.95,2.62,1.82,3.86,2.62.44.29.91.58,1.35.84h0c2.55,1.6,4.84,2.77,6.88,3.31.33.11.62.15.91.22s.62.11.91.15c.22,0,.44.04.69,0h1.09c2.4-.29,4.26-1.89,5.82-4.62,1.67-2.69,3.2-6.7,4.66-12.23,0-.15.07-.29.15-.44.98-3.17,2.04-6.55,3.2-9.86.07-.22.15-.47.25-.73,1.93-5.09,4.22-10.12,6.84-14.88,2.98-5.35,6.4-10.44,10.15-15.36.04-.07.11-.15.18-.25,5.68-6.88,11.75-13.46,18.23-19.43.47-.44.98-.87,1.46-1.31,5.46-4.73,11.21-9.02,17.14-12.84,2.07-1.35,4.18-2.55,6.29-3.68,7.86-4.04,16.19-6.88,25.03-8.04.4-.07.8-.11,1.2-.15,7.53-.8,15.17-.36,22.81,1.27.18,0,.36.07.55.15,7.17,1.67,14.15,4.33,20.89,7.6.25.11.55.25.8.4.47.22.98.47,1.49.73,1.89.95,3.75,1.96,5.6,2.98.65.36,1.31.73,1.93,1.09,4.69,2.73,9.39,5.79,13.83,8.7,3.17,2.18,6.59,4.58,9.75,6.37,3.13,1.89,5.42,2.73,7.13,2.66.4,0,.8,0,1.13-.07,1.46-.4,2.37-1.75,2.84-3.97.07-.22.11-.47.15-.73.15-.58.18-1.24.25-1.89.15-1.38.15-2.98.07-4.66,0-.65,0-1.35-.07-2.04v-.18c-.15-3.27-.44-7.06-.73-11.06-.22-2.55-.4-5.09-.51-7.68-.44-13.14.11-25.98,1.64-38.39.11-.8.22-1.6.33-2.4.44-3.17.95-6.29,1.53-9.42,1.24-6.84,2.8-13.57,4.73-20.19.55-1.89,1.13-3.75,1.75-5.64.4-1.2.8-2.4,1.2-3.57,3.31-9.39,7.35-18.34,12.15-26.74l.15-.25c.44-.8.87-1.64,1.35-2.4,4.62-7.86,10.01-15.25,16.12-22.12,8.62-9.21,18.41-16.48,29.15-22.78.25-.15.47-.29.73-.44,7.28-4.11,14.85-7.71,22.34-11.13,8.73-3.89,18.38-7.5,23.72-10.01.22-.11.44-.22.62-.29h.04Z"/>
      <path class="cls-1" d="m686.72,245.19c.07.22,0,.47-.22.76-.62.69-1.49,1.24-2.51,1.75-.4.22-.87.44-1.38.73-.22.07-.44.18-.62.29-1.53.65-3.06,1.31-4.15,1.78-15.14,6.04-29.22,11.97-41.92,19.32-.25.15-.47.29-.73.44-9.64,5.49-18.7,11.83-26.38,19.72l-.22.25c-.87.91-1.71,1.86-2.55,2.8-5.97,6.37-11.35,13.64-16.12,22.12-5.53,9.28-10.01,19.14-13.61,29.4-.44,1.2-.84,2.4-1.2,3.57-.62,1.86-1.2,3.71-1.75,5.64-2.8,9.5-4.88,19.39-6.26,29.62-.11.8-.22,1.6-.33,2.4-1.67,12.66-2.26,25.58-1.64,38.39.18,6.19.62,12.44,1.24,18.74v.18c0,.69.07,1.38.07,2.04v1.78c0,1.06,0,2-.11,2.87-.04.65-.11,1.31-.25,1.89,0,.25-.07.51-.15.73-.58,2.47-1.78,4-3.97,4.04-1.93-.04-4.4-1.13-7.13-2.66-.25-.15-.47-.29-.73-.47-2.84-1.82-5.86-3.82-8.99-5.89-2.51-1.75-4.88-3.38-6.73-4.44-2.33-1.46-4.69-2.87-7.06-4.26-.65-.36-1.31-.73-1.93-1.09-1.89-1.06-3.75-2.07-5.6-2.98-.76-.36-1.49-.73-2.26-1.09-6.95-3.53-13.94-6.08-20.89-7.6-.18-.04-.36-.11-.55-.15-4.26-.95-8.55-1.56-12.92-1.71-3.35-.11-6.66.07-9.86.44-.4,0-.8.07-1.2.15-8.44,1.06-16.85,3.71-25.03,8.04-8.37,4.29-16.19,9.97-23.47,16.48-.47.44-.98.87-1.46,1.31-6.66,5.89-12.81,12.41-18.23,19.43-.07.07-.15.15-.18.25-3.82,4.8-7.24,9.97-10.15,15.36-1.27,2.26-2.44,4.55-3.53,6.88-1.2,2.51-2.33,5.24-3.31,8.01-.11.25-.18.51-.25.73-1.2,3.24-2.26,6.55-3.2,9.86-.04.15-.11.29-.15.44-.8,2.58-1.56,5.02-2.33,7.13-.73,1.96-1.49,3.71-2.33,5.13-2.04,3.27-4.29,4.62-6.95,4.62h-.69c-.29,0-.58-.07-.91-.15-.29-.04-.62-.15-.91-.22s-.62-.18-.91-.29c-1.78-.58-3.78-1.64-5.97-2.98h0c-.44-.25-.87-.55-1.35-.84-1.24-.8-2.51-1.67-3.86-2.62-.95-.65-1.89-1.35-2.87-2.04-1.16-.84-2.37-1.67-3.57-2.55-1.06-.73-2.07-1.49-3.13-2.22h0c-2.62-1.82-5.28-3.64-7.97-5.46l-2.73-1.78c-5.42-3.6-10.92-7.17-16.37-10.73l-3.64-2.4c-1.93-1.31-3.89-2.58-5.79-3.86-4.77-3.24-9.39-6.51-13.97-9.53-.91-.62-1.82-1.24-2.77-1.82-.91-.58-1.82-1.2-2.77-1.75-1.82-1.16-3.68-2.22-5.53-3.27-1.16-.65-2.33-1.27-3.49-1.86-.62-.29-1.24-.62-1.86-.91-2.95-1.42-5.93-2.62-8.99-3.6-2.51-.73-5.06-1.31-7.6-1.78-.07,0-.15,0-.22-.04-12.19-2.47-24.82-2.07-37.33.18-.73.15-1.46.25-2.18.4-14.15,2.73-28.05,7.79-41.12,14.08-4.26,2-8.37,4.11-12.37,6.26-.29.15-.58.29-.84.4-.15.07-.29.15-.44.18-1.89.87-3.71,1.6-5.31,2.04-.65.15-1.24.29-1.78.36-.58.07-1.09.07-1.53,0h-.15c-.44-.07-.87-.22-1.2-.47,0,0-.07,0-.11-.07-.18-.15-.36-.33-.55-.58-.51-.87-.8-1.86-.98-2.95-.25-1.93-.11-4.37.22-7.1v-.22c.51-3.42,1.38-6.91,1.78-9.79.22-1.24.44-2.47.65-3.71.07-.36.15-.73.18-1.06.65-3.31,1.2-6.26,1.27-8.37.29-2.04.51-4.04.73-6.11l.11-.98c.07-.8.15-1.64.22-2.47.11-1.06.18-2.15.25-3.2s.15-2.15.18-3.2c.07-1.06.11-2.15.15-3.2.15-3.42.15-6.8.07-10.19-.07-4.08-.33-8.15-.8-12.19-.07-.65-.15-1.35-.22-2-.15-1.13-.29-2.26-.47-3.42,0-.18,0-.4-.07-.58-.33-2.22-.73-4.44-1.24-6.66-.18-.84-.36-1.64-.58-2.44-.11-.51-.25-.98-.4-1.49-.15-.47-.25-.98-.44-1.46-.87-2.87-1.86-5.53-3.09-7.86-.04-.07-.07-.18-.15-.25-1.67-3.27-3.78-6.11-6.33-8.11-.55-.4-1.09-.8-1.64-1.13-2.77-1.89-6.04-3.2-9.93-3.89-.18,0-.36-.07-.55-.11-4.48-.87-9.17-1.02-13.83-.95-3.38-.04-6.73,0-10.04.15h-.8c-4.69.15-9.9.62-14.92,1.09-6.44.58-12.55,1.24-16.85,1.35-1.24,0-2.44.07-3.6-.04-.4,0-.8-.07-1.2-.15-.07,0-.15,0-.22-.04-.15,0-.29-.04-.44-.11-.22-.04-.44-.11-.62-.18-.15,0-.29-.11-.44-.15-.84-.58-.87-1.35-.4-2.26,0,0,0-.07.07-.15.65-1.02,2-2.33,3.89-3.86,1.2-.91,2.4-1.86,3.68-2.8.44-.29.84-.62,1.27-.91.29-.18.55-.4.8-.58.11-.11.25-.18.36-.29.4-.29.8-.58,1.24-.91.07-.04.11-.07.18-.15.8-.58,1.6-1.13,2.4-1.71,2.18-1.56,4.37-3.13,6.51-4.73.84-.58,1.67-1.2,2.51-1.86.36-.29.73-.55,1.13-.84l.18-.15c1.53-1.16,3.06-2.33,4.55-3.53.47-.36.98-.73,1.46-1.13.73-.58,1.46-1.16,2.15-1.75.22-.15.44-.33.65-.51,10.26-8.3,20.19-17.1,29.36-26.64.69-.73,1.38-1.46,2.07-2.18s1.38-1.46,2.04-2.22c11.9-12.84,22.38-27,29.95-42.65.04-.11.11-.18.15-.25,4.33-8.51,8.01-17.68,8.37-26.67v-.07c.25-4.58-.4-8.81-2.18-12.88-.29-.73-.65-1.46-1.02-2.15-.58-1.09-1.2-2.15-1.93-3.24-1.93-2.91-4.33-5.71-6.99-8.41-.25-.22-.47-.47-.69-.73-4.66-4.84-9.86-9.24-15.14-13.43-.22-.15-.44-.33-.65-.51-2.95-2.37-5.97-4.62-8.95-6.84-.15-.11-.25-.22-.4-.29-.51-.4-1.09-.8-1.71-1.24-1.09-.76-2.29-1.64-3.49-2.55-.22-.15-.44-.33-.65-.51-.62-.47-1.24-.98-1.82-1.49-2.04-1.78-3.2-3.27-3.68-4.58-.11-.25-.18-.51-.18-.76-.04-.33-.04-.65,0-.98,0-.11.04-.18.07-.29.07-.22.18-.47.33-.69.73-1.09,2.26-1.93,4.33-2.55h.15c3.13-.87,7.53-1.46,11.03-1.82h.25c1.31-.15,2.66-.25,3.97-.36h.18c6.59-.58,13.28-1.24,20.01-2,1.64-.18,3.27-.36,4.91-.58,1.2-.15,2.37-.29,3.53-.44,2.37-.29,4.69-.58,7.02-.95,3.64-.51,7.24-1.09,10.81-1.75,1.06-.18,2.07-.36,3.09-.58,1.16-.22,2.29-.44,3.42-.65h.18c7.86-1.38,15.32-3.35,22.45-5.89.18-.07.36-.15.55-.18,10.55-3.49,19.65-8.37,28.27-14.08.29-.18.58-.36.91-.58,5.82-3.75,11.46-7.97,16.99-12.55.11-.07.22-.15.33-.25,1.02-.8,2.04-1.6,3.09-2.44,5.2-4,10.3-8.3,15.32-12.74l.07-.07c3.86-3.38,7.6-6.88,11.24-10.44,2.07-2.04,4.18-4.18,6.26-6.44.36-.36.69-.73,1.02-1.09,4-4.22,7.86-8.51,11.5-12.84.07-.07.15-.18.22-.25.87-.95,1.71-1.89,2.55-2.8.22-.22.44-.44.65-.69l.62-.62c.62-.62,1.2-1.16,1.78-1.64,1.09-.91,2.11-1.6,3.02-2,.33-.15.62-.25.91-.33.15,0,.29-.07.44-.11.15,0,.25-.04.36-.07h.91c.11,0,.25,0,.36.07.07,0,.15,0,.25.07.11,0,.18.07.29.11.58.22,1.13.58,1.64,1.06,1.24,1.16,2.4,3.06,3.6,5.6.11.22.22.44.29.69.15.36.29.73.47,1.13,1.09,2.87,2.44,5.97,3.97,9.06,2.4,5.13,5.24,10.04,8.73,14.88.29.4.58.84.91,1.24.11.15.22.29.33.44,2.07,2.87,4.26,5.57,6.55,8.01,1.49,1.64,3.02,3.2,4.58,4.77l.18.18c7.13,7.31,15.06,13.97,23.72,19.21.62.4,1.24.76,1.86,1.13.62.36,1.24.73,1.86,1.06.4.22.8.44,1.2.65.51.29,1.02.55,1.49.8.15.07.25.15.4.18.73.4,1.46.73,2.22,1.06,6.26,2.95,12.77,5.06,19.58,6.08.44.07.87.15,1.31.18,2.26.33,4.58.51,6.88.58h.44c4.66.22,9.31.15,14.01,0,8.62-.07,17.14-.33,25.76-.95,1.2-.07,2.44-.18,3.64-.29.36,0,.73-.07,1.09-.11,7.6-.62,15.28-1.6,23.29-3.13,6.62-1.16,13.28-2.62,19.87-4.29,1.16-.29,2.33-.58,3.46-.87,10.41-2.62,20.74-5.64,30.86-8.81.91-.29,1.86-.58,2.84-.87,4.51-1.35,8.99-2.69,13.43-4,.11,0,.18-.04.29-.07h.11c2.84-.65,5.53-1.02,7.82-.87h.36c.15,0,.29.07.44.11,5.86,1.78.73,11.17-2.66,18.45-.11.18-.18.36-.29.58-.55,1.16-1.02,2.22-1.35,3.09-2.58,5.2-4.4,10.48-5.42,15.68q-.68,3.47,0,0c-.22.91-.36,1.82-.51,2.73-1.35,8.19-.25,16.41,2.98,23.76.18.44.36.84.58,1.24.04.11.11.22.15.29.18.44.4.84.62,1.24.29.55.58,1.09.91,1.64,3.49,6,8.73,11.43,15.76,15.9,4.26,2.77,8.95,5.06,13.94,6.95.76.29,1.53.58,2.33.87.76.29,1.56.58,2.37.8,16.26,5.46,34.89,7.2,52.58,8.77h.47c8.95.91,17.61,1.67,25.65,2.84.44.15.76.29,1.02.44h0c.11.07.22.15.29.22s.15.15.22.22c0,.07.07.11.07.18v.11Z"/>
      <path class="cls-2" d="m677.88,250.5c1.06-.51,2.62-1.13,4.15-1.78-5.35,2.51-14.99,6.08-23.72,10.01-7.5,3.42-15.06,7.02-22.34,11.13,12.7-7.31,26.78-13.28,41.92-19.32v-.04Z"/>
      <path class="cls-2" d="m606.38,232.53c16.01,5.2,34.75,7.1,52.58,8.77-17.68-1.53-36.31-3.31-52.58-8.77Z"/>
      <path class="cls-2" d="m604.02,231.73c.76.29,1.56.55,2.37.8-.8-.25-1.6-.51-2.37-.8Z"/>
      <path class="cls-2" d="m606.05,293c-6.11,6.88-11.5,14.3-16.12,22.12,4.77-8.51,10.15-15.79,16.12-22.12Z"/>
      <path class="cls-2" d="m576.47,139.12h-.29c-2.29-.15-4.98.22-7.82.87,3.71-1.02,6.33-1.24,8.08-.84l.04-.04Z"/>
      <path class="cls-2" d="m575.12,348.13c-.62,1.86-1.2,3.75-1.75,5.64.55-1.89,1.13-3.75,1.75-5.64Z"/>
      <path class="cls-2" d="m574.07,158.26c-.4.87-.76,1.71-1.06,2.51-.11.18-.18.4-.29.58.33-.87.8-1.93,1.35-3.09Z"/>
      <path class="cls-2" d="m569.78,203.6c.18.44.36.84.58,1.24-.22-.4-.4-.8-.58-1.24Z"/>
      <path class="cls-2" d="m573.34,353.77c-1.93,6.62-3.49,13.35-4.73,20.19-.58,3.13-1.09,6.26-1.53,9.42,1.38-10.22,3.46-20.12,6.26-29.62Z"/>
      <path class="cls-2" d="m566.79,179.84c.15-.91.29-1.82.51-2.73-1.82,9.28-1.06,18.34,2.47,26.49-3.24-7.35-4.33-15.57-2.98-23.76h0Z"/>
      <path class="cls-2" d="m565.99,452.41c.07-.25.11-.51.15-.73,0,.25-.07.51-.15.73Z"/>
      <path class="cls-2" d="m565.99,452.41c-.47,2.22-1.38,3.57-2.84,3.97-.33.07-.73.11-1.13.07,2.22-.07,3.38-1.56,3.97-4.04Z"/>
      <path class="cls-2" d="m565.63,431.82c.29,4,.58,7.79.73,11.06-.62-6.29-1.06-12.55-1.24-18.74.11,2.55.29,5.13.51,7.68Z"/>
      <path class="cls-2" d="m554.13,453.36c.25.15.51.33.73.47-3.13-1.78-6.59-4.18-9.75-6.37,3.13,2.07,6.19,4.08,8.99,5.89h.04Z"/>
      <path class="cls-2" d="m554.57,144.07c-.98.29-1.93.58-2.84.87-10.15,3.13-20.45,6.15-30.86,8.81,11.32-2.91,22.6-6.33,33.69-9.68Z"/>
      <path class="cls-2" d="m531.32,438.73c-.65-.36-1.31-.73-1.93-1.09.65.36,1.31.73,1.93,1.09Z"/>
      <path class="cls-2" d="m529.35,437.64c-1.86-1.02-3.71-2.04-5.6-2.98,1.86.91,3.71,1.93,5.6,2.98Z"/>
      <path class="cls-2" d="m521.49,433.56c-6.77-3.27-13.75-5.97-20.89-7.6,6.95,1.53,13.94,4.11,20.89,7.6Z"/>
      <path class="cls-2" d="m469.49,162.37c1.2-.07,2.44-.15,3.64-.29-1.2.11-2.44.18-3.64.29Z"/>
      <path class="cls-2" d="m452.98,163.06c5.57-.15,11.03-.33,16.52-.73-8.59.62-17.14.91-25.76.95,3.06-.07,6.11-.18,9.24-.25v.04Z"/>
      <path class="cls-2" d="m476.01,424.65c-8.84,1.16-17.17,4-25.03,8.04,8.19-4.33,16.59-6.99,25.03-8.04Z"/>
      <path class="cls-2" d="m429.25,163.28c-2.33-.07-4.62-.25-6.88-.58,2.29.29,4.58.47,6.88.58Z"/>
      <path class="cls-2" d="m421.06,162.52c.44.07.87.15,1.31.18-.44-.04-.87-.11-1.31-.18Z"/>
      <path class="cls-2" d="m407.82,469.95c5.42-7.02,11.61-13.57,18.23-19.43-6.51,5.97-12.55,12.59-18.23,19.43Z"/>
      <path class="cls-2" d="m397.49,485.56c-2.62,4.77-4.91,9.79-6.84,14.88.98-2.77,2.07-5.49,3.31-8.01,1.09-2.33,2.26-4.62,3.53-6.88Z"/>
      <path class="cls-2" d="m394.32,152.69c.58.36,1.2.69,1.86,1.06-.62-.33-1.24-.69-1.86-1.06Z"/>
      <path class="cls-2" d="m368.7,132.35c7.24,7.28,15.17,13.94,23.72,19.21-8.66-5.24-16.59-11.93-23.72-19.21Z"/>
      <path class="cls-2" d="m384.71,518.56c.76-2.11,1.53-4.55,2.33-7.13-1.46,5.57-2.98,9.53-4.66,12.23.84-1.42,1.6-3.13,2.33-5.13v.04Z"/>
      <path class="cls-2" d="m373.83,528.17c.29.07.58.11.91.15-.29,0-.58-.07-.91-.15Z"/>
      <path class="cls-2" d="m372.92,527.95c.29.07.62.15.91.22-.29-.04-.58-.11-.91-.22Z"/>
      <path class="cls-2" d="m371.98,527.66c.29.11.62.22.91.29-2.07-.55-4.33-1.71-6.88-3.31,2.18,1.35,4.18,2.4,5.97,2.98v.04Z"/>
      <path class="cls-2" d="m364.66,523.76c.44.29.91.58,1.35.84-.44-.25-.87-.55-1.35-.84Z"/>
      <path class="cls-2" d="m356.19,117.73c.29.4.58.84.91,1.24-.29-.4-.62-.84-.91-1.24Z"/>
      <path class="cls-2" d="m347.45,102.84c2.47,5.02,5.42,10.15,8.73,14.88-3.49-4.84-6.29-9.75-8.73-14.88Z"/>
      <path class="cls-2" d="m342.72,92c-1.2-2.55-2.37-4.44-3.6-5.6,1.2,1.09,2.4,2.91,3.6,5.6Z"/>
      <path class="cls-2" d="m340.5,507.1c-5.42-3.6-10.95-7.17-16.37-10.73,5.46,3.53,10.95,7.1,16.37,10.73Z"/>
      <path class="cls-2" d="m335.66,85.09s-.25,0-.36.07c.15,0,.25-.04.36-.07Z"/>
      <path class="cls-2" d="m335.3,85.16l-.44.11.44-.11Z"/>
      <path class="cls-2" d="m333.95,85.6c-.91.44-1.93,1.09-3.02,2,1.06-.91,2.07-1.6,3.02-2Z"/>
      <path class="cls-2" d="m329.15,89.2l-.62.62c.22-.22.4-.44.62-.62Z"/>
      <path class="cls-2" d="m328.53,89.82c-.22.22-.44.44-.65.69-.84.91-1.71,1.86-2.55,2.8.15-.22.33-.44.51-.62.95-1.06,1.82-2,2.69-2.84v-.04Z"/>
      <path class="cls-2" d="m312.6,107.5c-2.07,2.26-4.18,4.44-6.26,6.44-3.64,3.6-7.39,7.1-11.24,10.44,6.04-5.39,11.93-11.1,17.5-16.92v.04Z"/>
      <path class="cls-2" d="m286.22,471.88c-.62-.29-1.24-.62-1.86-.91.62.29,1.24.58,1.86.91Z"/>
      <path class="cls-2" d="m275.37,467.37c3.06.98,6.04,2.22,8.99,3.6-5.39-2.47-10.92-4.26-16.56-5.39,2.55.47,5.06,1.06,7.6,1.78h-.04Z"/>
      <path class="cls-2" d="m259.29,152.48c5.79-3.86,11.35-8.08,16.99-12.55-5.53,4.58-11.17,8.81-16.99,12.55Z"/>
      <path class="cls-2" d="m207.15,173.22c7.6-1.53,15.1-3.42,22.45-5.89-7.13,2.55-14.59,4.51-22.45,5.89Z"/>
      <path class="cls-2" d="m228.03,466.13c-14.15,2.8-28.13,7.97-41.12,14.08,13.06-6.29,27-11.35,41.12-14.08Z"/>
      <path class="cls-2" d="m180.91,258.76c1.31-4.33,2.15-8.33,2.37-12.12-.36,8.99-4.04,18.16-8.37,26.67,2.26-4.73,4.29-9.53,6-14.55Z"/>
      <path class="cls-2" d="m170.47,219.17c-.65-.65-1.31-1.31-1.96-1.93-4.15-3.97-8.59-7.79-13.17-11.46,5.31,4.18,10.48,8.59,15.14,13.43v-.04Z"/>
      <path class="cls-2" d="m167.96,489.12c1.6-.44,3.42-1.2,5.31-2.04-2,.95-3.78,1.64-5.31,2.04Z"/>
      <path class="cls-2" d="m166.18,489.49c.55-.07,1.13-.18,1.78-.36-.65.18-1.24.29-1.78.36Z"/>
      <path class="cls-2" d="m166.5,411.66c-.15-1.16-.29-2.29-.47-3.42.18,1.16.33,2.29.47,3.42Z"/>
      <path class="cls-2" d="m166.54,449.06c-.22,2.04-.44,4.08-.73,6.11-.07,2.07-.62,5.06-1.27,8.37.8-4.77,1.49-9.61,2-14.45v-.04Z"/>
      <path class="cls-2" d="m165.96,407.66c-.36-2.22-.76-4.44-1.24-6.66.47,2.22.91,4.44,1.24,6.66Z"/>
      <path class="cls-2" d="m163.19,488.91s-.33-.25-.44-.44c0-.04-.07-.11-.07-.15.15.22.33.44.55.58h-.04Z"/>
      <path class="cls-2" d="m161.85,478.32c-.33,2.73-.44,5.2-.22,7.1-.33-2.11-.15-4.58.22-7.1Z"/>
      <path class="cls-2" d="m154.13,180.2c6.59-.62,13.32-1.27,20.01-2-6.7.76-13.43,1.38-20.01,2Z"/>
      <path class="cls-2" d="m160.1,387.5c-2.04-3.89-4.62-6.99-7.97-9.24.55.33,1.09.73,1.64,1.13,2.55,2,4.62,4.84,6.33,8.11Z"/>
      <path class="cls-2" d="m148.49,180.75c.4,0,.8-.07,1.24-.11-3.53.36-7.9.95-11.03,1.82,2.62-.8,6.04-1.31,9.82-1.71h-.04Z"/>
      <path class="cls-2" d="m145.29,198.1c-.58-.44-1.13-.84-1.71-1.24.62.44,1.2.87,1.71,1.24Z"/>
      <path class="cls-2" d="m140.74,320.58c-9.17,9.53-19.1,18.34-29.36,26.64,10.08-8.22,20.09-17.07,29.36-26.64Z"/>
      <path class="cls-2" d="m141.69,374.25c-.91-.15-1.78-.29-2.77-.36-3.57-.4-7.31-.58-11.06-.58,4.66-.04,9.39.07,13.83.95Z"/>
      <path class="cls-2" d="m133.83,185.73s-.04.18-.07.29c0-.11,0-.18.07-.29Z"/>
      <path class="cls-2" d="m133.76,186.02c-.07.33-.07.65,0,.98-.07-.36-.07-.69,0-.98Z"/>
      <path class="cls-2" d="m117.82,373.45h-.8c-4.69.18-9.9.62-14.92,1.09,5.02-.47,10.22-.95,14.92-1.09h.8Z"/>
      <path class="cls-2" d="m98.79,356.97c.84-.62,1.67-1.24,2.51-1.86-.8.62-1.64,1.24-2.51,1.86Z"/>
      <path class="cls-2" d="m89.69,363.55c-.44.29-.84.58-1.24.91.11-.11.25-.18.36-.29.29-.22.58-.4.87-.62Z"/>
      <path class="cls-2" d="m86.02,366.21c-1.27.95-2.51,1.86-3.68,2.8-1.89,1.53-3.24,2.84-3.89,3.86,1.13-1.96,4.55-4.48,7.57-6.62v-.04Z"/>
      <path class="cls-2" d="m79.79,375.6s.29.07.44.11c-.15,0-.29-.04-.44-.11Z"/>
      <path class="cls-2" d="m79.18,375.38s-.25-.07-.4-.15h0c.15.04.29.11.44.15h-.04Z"/>
    </g>
    <g>
      <path class="cls-4" d="m576.33,344.52c3.57-10.26,8.08-20.12,13.61-29.4,4.62-7.86,10.01-15.25,16.12-22.12.84-.95,1.67-1.89,2.55-2.8l.22-.25c7.64-7.9,16.74-14.23,26.38-19.72"/>
      <path class="cls-4" d="m565.12,424.17c-.62-12.81,0-25.73,1.64-38.39"/>
      <path class="cls-4" d="m566.36,449.75c.07-.87.11-1.86.11-2.87v-1.78"/>
      <path class="cls-4" d="m554.86,453.83c2.73,1.53,5.2,2.58,7.13,2.66"/>
      <path class="cls-4" d="m529.35,437.64c.65.36,1.31.73,1.93,1.09,2.4,1.38,4.77,2.8,7.06,4.26,1.89,1.06,4.22,2.69,6.73,4.44"/>
      <path class="cls-4" d="m521.49,433.56c.76.36,1.49.73,2.26,1.09"/>
      <path class="cls-4" d="m477.24,424.5c3.24-.36,6.51-.55,9.86-.44,4.37.15,8.66.76,12.92,1.71"/>
      <path class="cls-4" d="m427.5,449.21c7.28-6.51,15.06-12.23,23.47-16.48,7.86-4.04,16.19-6.88,25.03-8.04"/>
      <path class="cls-4" d="m397.49,485.56c2.95-5.39,6.33-10.55,10.15-15.36"/>
      <path class="cls-4" d="m387.19,511.03c.91-3.31,1.96-6.62,3.2-9.86"/>
      <path class="cls-4" d="m375.44,528.31c2.66,0,4.91-1.35,6.95-4.62"/>
      <path class="cls-4" d="m366.01,524.64c2.55,1.6,4.84,2.77,6.88,3.31.33.11.62.15.91.22s.62.11.91.15"/>
      <path class="cls-4" d="m357.93,519.11c.98.69,1.93,1.38,2.87,2.04"/>
      <path class="cls-4" d="m351.24,514.34c1.06.73,2.11,1.49,3.13,2.22"/>
      <path class="cls-4" d="m343.23,508.88c2.69,1.82,5.39,3.64,7.97,5.46"/>
      <path class="cls-4" d="m324.13,496.37c5.42,3.57,10.95,7.13,16.37,10.73"/>
      <path class="cls-4" d="m314.71,490.11c1.89,1.27,3.86,2.55,5.79,3.86"/>
      <path class="cls-4" d="m289.71,473.73c1.86,1.06,3.71,2.11,5.53,3.27.91.58,1.86,1.16,2.77,1.75s1.82,1.2,2.77,1.82"/>
      <path class="cls-4" d="m230.22,465.73c12.52-2.29,25.18-2.66,37.33-.18"/>
      <path class="cls-4" d="m173.67,486.91c.29-.15.55-.25.84-.4,4-2.18,8.15-4.29,12.37-6.26"/>
      <path class="cls-4" d="m163.26,488.98c.33.25.73.4,1.2.47"/>
      <path class="cls-4" d="m161.66,485.41c.18,1.09.47,2.07.98,2.95"/>
      <path class="cls-4" d="m164.36,464.6c-.22,1.24-.44,2.47-.65,3.71-.4,2.87-1.27,6.4-1.78,9.79"/>
      <path class="cls-4" d="m166.72,413.66c.44,4.04.73,8.08.8,12.19.11,3.38.07,6.77-.07,10.19,0,1.06-.07,2.15-.15,3.2-.04,1.06-.11,2.11-.18,3.2-.07,1.06-.15,2.15-.25,3.2-.07.84-.15,1.64-.22,2.47"/>
      <path class="cls-4" d="m160.24,387.75c1.2,2.33,2.22,4.95,3.09,7.86.15.47.29.98.44,1.46.15.47.29.98.4,1.49"/>
      <path class="cls-4" d="m142.23,374.36c3.89.69,7.17,2,9.93,3.89"/>
      <path class="cls-4" d="m117.82,373.45c3.27-.15,6.66-.22,10.04-.15"/>
      <path class="cls-4" d="m80.45,375.74c.4.07.76.11,1.2.15"/>
      <path class="cls-4" d="m78.37,372.98c-.47.91-.44,1.71.4,2.26"/>
      <path class="cls-4" d="m88.09,364.72c-.25.18-.51.4-.8.58"/>
      <path class="cls-4" d="m92.27,361.7c-.8.58-1.6,1.16-2.4,1.71"/>
      <path class="cls-4" d="m110.76,347.73c-.73.58-1.46,1.16-2.15,1.75-.47.4-.98.76-1.46,1.13-1.49,1.2-3.02,2.37-4.55,3.53"/>
      <path class="cls-4" d="m174.8,273.57c-7.57,15.65-18.05,29.76-29.95,42.65-.65.73-1.35,1.49-2.04,2.22"/>
      <path class="cls-4" d="m180.08,231.54c.36.73.73,1.42,1.02,2.15,1.78,4.08,2.44,8.33,2.18,12.88"/>
      <path class="cls-4" d="m171.16,219.9c2.66,2.69,5.06,5.53,6.99,8.41"/>
      <path class="cls-4" d="m145.73,198.43c3.02,2.18,6.04,4.48,8.95,6.84"/>
      <path class="cls-4" d="m139.43,193.85c.22.18.44.33.65.51"/>
      <path class="cls-4" d="m133.94,187.77c.47,1.27,1.64,2.77,3.68,4.58"/>
      <path class="cls-4" d="m133.83,185.73s-.07.18-.07.29c-.07.29-.07.62,0,.98"/>
      <path class="cls-4" d="m138.52,182.46c-2.07.65-3.64,1.49-4.33,2.55"/>
      <path class="cls-4" d="m153.95,180.2c-1.35.11-2.66.25-3.97.36"/>
      <path class="cls-4" d="m189.61,176.24c-2.33.36-4.66.65-7.02.95-1.16.15-2.33.29-3.53.44-1.64.18-3.27.4-4.91.58"/>
      <path class="cls-4" d="m203.54,173.91c-1.06.22-2.07.4-3.09.58"/>
      <path class="cls-4" d="m258.42,153.06c-8.62,5.71-17.76,10.59-28.27,14.08"/>
      <path class="cls-4" d="m295.02,124.49c-4.98,4.48-10.12,8.73-15.32,12.74-1.06.84-2.07,1.64-3.09,2.44"/>
      <path class="cls-4" d="m325.11,93.57c-3.64,4.33-7.5,8.62-11.5,12.84"/>
      <path class="cls-4" d="m336.94,85.16s-.25-.04-.36-.07"/>
      <path class="cls-4" d="m337.48,85.34s-.22-.07-.29-.11"/>
      <path class="cls-4" d="m347.45,102.84c-1.53-3.09-2.84-6.15-3.97-9.06-.15-.4-.29-.76-.47-1.13"/>
      <path class="cls-4" d="m368.52,132.17c-1.56-1.56-3.09-3.17-4.58-4.77-2.26-2.4-4.48-5.13-6.55-8.01"/>
      <path class="cls-4" d="m398.87,155.2c-.51-.25-1.02-.51-1.49-.8"/>
      <path class="cls-4" d="m421.06,162.52c-6.8-1.02-13.32-3.13-19.58-6.08-.73-.33-1.49-.69-2.22-1.06"/>
      <path class="cls-4" d="m443.73,163.32c-4.69.15-9.35.22-14.01,0"/>
      <path class="cls-4" d="m517.42,154.59c-6.62,1.64-13.24,3.13-19.87,4.29-8.04,1.53-15.72,2.51-23.29,3.13"/>
      <path class="cls-4" d="m568.28,140s-.18.04-.29.07c-4.44,1.31-8.91,2.66-13.43,4"/>
      <path class="cls-4" d="m574.36,157.72c3.38-7.28,8.51-16.7,2.66-18.45l-.44-.11"/>
      <path class="cls-4" d="m567.3,177.07c1.02-5.2,2.84-10.48,5.42-15.68"/>
      <path class="cls-4" d="m569.78,203.6c-3.53-8.15-4.29-17.21-2.47-26.49"/>
      <path class="cls-4" d="m601.69,230.85c-5.02-1.89-9.68-4.18-13.94-6.95-7.02-4.48-12.23-9.9-15.76-15.9-.33-.55-.62-1.06-.91-1.64-.22-.4-.44-.8-.62-1.24"/>
      <path class="cls-4" d="m686.14,244.53c-.25-.15-.58-.29-1.02-.44-8.04-1.13-16.74-1.93-25.65-2.77"/>
      <path class="cls-4" d="m686.69,245.01s-.15-.15-.22-.22-.15-.15-.29-.22"/>
      <path class="cls-4" d="m682.65,248.43c.51-.25.98-.47,1.38-.73,1.02-.51,1.89-1.06,2.51-1.75.22-.29.29-.55.22-.76"/>
      <path class="cls-4" d="m725.04,239.29c.65-1.46-2.51-2.51-8.3-3.53-16.16-2.44-34.79-3.82-51.6-5.97-15.21-1.86-30.67-4-45.7-7.06-14.26-2.98-26.85-5.97-34.6-13.54-12.08-11.57-8.62-30.27-1.56-43.85,3.75-7.42,8.91-14.85,14.05-21.9,4.69-7.24,21.14-25.36,14.77-29.95-5.2-2.11-12.15.95-18.01,2.55-7.79,2.62-15.9,5.53-23.87,8.3-45.48,15.61-94.06,32.2-142.96,27.94-38.9-4.26-64.8-36.24-70.37-73.86-2.15-11.79-2-24.05-2.58-36.02-.36-5.89-.8-12.66-2.77-17.28-5.53-11.13-12.37,10.62-13.94,15.36-2.8,8.55-5.79,17.07-10.08,26.45-35.62,82.38-130.63,106.54-209.77,106.94-6.26.22-26.42-.33-25,6.19.87,1.93,2.29,2.84,4.08,4.18,3.86,2.69,9.97,5.6,14.74,7.82,19.83,8.81,55.23,29.98,58.76,52.54,5.46,37.3-88.89,113.6-115.09,131.72-14.08,9.68-43.85,29.55-4.11,22.05,21.5-4.04,97.04-27.47,106.29.22,2.22,5.89,1.86,13.28,1.46,19.76-1.82,25.58-7.28,52.25-16.26,79.69-1.93,5.89-4.22,12.74-5.2,18.41-1.64,10.52,4.15,8.91,13.43,3.42,6.8-4.15,13.35-8.81,20.19-13.21,32.75-21.47,73.54-43.05,111.89-25.87,11.79,5.2,21.98,12.99,33.04,20.67,8.48,5.97,17.9,12.44,26.78,18.85,8.59,6.15,16.56,12.23,22.92,17.72,4.77,4.04,13.39,11.28,17.47,10.01,4.4,0,8.77-10.08,11.21-17.1,3.6-10.44,7.17-20.74,11.86-31.07,12.19-28.85,33.77-60.55,68.41-60.73,36.06-.62,70.55,26.74,92.82,49.38,4.22,4.4,13.57,12.15,17.07,11.06,4.08-.84,3.17-7.5,1.56-16.05-1.71-7.9-4.33-15.61-6.04-23.72-21.07-97.12,11.79-165.67,104.98-204.89,7.79-3.24,16.23-6.15,23.91-8.7,3.89-1.31,7.35-2.47,10.08-3.49,1.38-.55,2.58-1.06,3.53-1.53,1.35-.69,2.22-1.35,2.51-1.93v-.07l.04.11Z"/>
      <path class="cls-4" d="m133.76,187.01c-.04-.33-.04-.65,0-.98,0-.11.04-.18.07-.29.07-.22.18-.47.33-.69.15-.22.29-.47.55-.69.51-.73,1.93-1.35,3.82-1.86h.15c3.13-.87,7.53-1.46,11.03-1.82h.25c.4-.04.76-.07,1.13-.11.95-.07,1.89-.18,2.84-.25h.18c6.59-.58,13.28-1.24,20.01-2,1.64-.18,3.27-.36,4.91-.58,1.16-.15,2.37-.29,3.53-.44,2.37-.29,4.69-.62,7.02-.95,3.64-.51,7.24-1.09,10.81-1.75,1.06-.18,2.07-.36,3.09-.58,1.16-.22,2.29-.44,3.42-.65h.18c7.86-1.38,15.32-3.35,22.45-5.89.18-.07.36-.15.55-.18,10.01-3.6,19.36-8.37,28.27-14.08.29-.18.58-.36.91-.58,5.82-3.75,11.46-7.97,16.99-12.55.11-.07.22-.15.33-.25,1.02-.8,2.07-1.64,3.09-2.44,5.17-4.15,10.3-8.37,15.32-12.74l.07-.07c3.86-3.38,7.6-6.88,11.24-10.44,2.07-2.04,4.18-4.18,6.26-6.44.36-.36.69-.73,1.02-1.09,3.93-4.29,7.79-8.73,11.5-12.84.07-.07.15-.18.22-.25.87-.95,1.71-1.89,2.55-2.8.22-.22.44-.44.65-.69l.62-.62c.62-.62,1.2-1.16,1.78-1.64,1.09-.91,2.11-1.6,3.02-2,.33-.15.62-.25.91-.33.15,0,.29-.07.44-.11.15,0,.25-.04.36-.07h.91c.15,0,.25,0,.36.07.07,0,.15,0,.25.07.11,0,.22.04.29.11.58.22,1.13.58,1.64,1.06,1.24,1.16,2.4,3.06,3.6,5.6.11.22.22.44.29.69.58,1.31,1.24,2.77,1.89,4.37.8,1.96,1.64,3.89,2.55,5.82,2.4,5.13,5.24,10.04,8.73,14.88.29.4.58.84.91,1.24.11.15.22.29.33.44.36.47.73.98,1.09,1.46,3.13,3.89,6.48,7.68,10.01,11.35l.18.18c7.13,7.31,15.06,13.97,23.72,19.21.62.4,1.24.76,1.86,1.13.62.36,1.24.73,1.86,1.06.4.22.8.44,1.2.65.51.29,1.02.55,1.49.8.15.07.25.15.4.18.73.36,1.46.73,2.22,1.06,6.26,2.87,12.77,4.98,19.58,6.08.44.07.87.15,1.31.18,2.26.33,4.58.51,6.88.58h.44c4.73,0,9.39.04,14.01,0,8.62-.07,17.14-.33,25.76-.95,1.2-.07,2.44-.18,3.64-.29.36,0,.73-.07,1.09-.11,7.31-.65,14.74-1.6,22.27-2.95,6.99-1.27,13.97-2.77,20.92-4.48,1.16-.29,2.33-.58,3.46-.87,10.41-2.62,20.74-5.64,30.86-8.81.91-.29,1.86-.58,2.84-.87,4.37-1.38,9.24-3.06,13.72-4.08h.11c2.84-.65,5.53-1.02,7.82-.87h.36c.15,0,.29.07.44.11,6,1.53.62,11.61-2.66,18.45-.11.18-.18.36-.29.58-.55,1.16-1.02,2.22-1.35,3.09,0,.11-.07.22-.11.33-2.29,5.06-4.22,10.22-5.31,15.36q-.73,3.42,0,0c-.22.91-.36,1.82-.51,2.73-1.35,8.19-.25,16.41,2.98,23.76.18.44.36.84.58,1.24.04.11.11.22.15.29.18.44.4.84.62,1.24.29.55.58,1.09.91,1.64,1.27,2.15,2.73,4.18,4.4,6.08,6.88,7.64,15.57,12.99,25.29,16.77.76.29,1.53.58,2.33.87.76.29,1.56.58,2.37.8,16.26,5.46,34.89,7.2,52.58,8.77h.47c8.33.76,16.41,1.42,23.94,2.4.69.11,1.27.25,1.71.4s.76.29,1.02.44h0c.11.07.22.15.29.22.11.07.15.15.22.22,0,.07.07.11.07.18.29.98-1.78,2.15-4.11,3.24-.22.07-.44.18-.62.29-1.53.65-3.06,1.31-4.15,1.78-15.14,6.04-29.22,11.97-41.92,19.32-.25.15-.47.29-.73.44-10.73,6.26-20.52,13.57-29.15,22.78-5.97,6.37-11.35,13.64-16.12,22.12-.44.8-.91,1.6-1.35,2.4l-.15.25c-4.8,8.41-8.84,17.36-12.15,26.74-.44,1.2-.84,2.4-1.2,3.57-.62,1.86-1.2,3.71-1.75,5.64-2.8,9.5-4.88,19.39-6.26,29.62"/>
      <path class="cls-4" d="m170.47,219.17c-4.66-4.84-9.86-9.24-15.14-13.43-.22-.15-.44-.33-.65-.51-2.87-2.22-5.79-4.44-8.66-6.59-.11-.07-.18-.15-.29-.25-.15-.11-.25-.22-.4-.29-.51-.4-1.09-.8-1.71-1.24-1.09-.76-2.29-1.64-3.49-2.55-.22-.15-.44-.33-.65-.51-.62-.47-1.24-.98-1.82-1.49-1.75-1.49-3.17-3.06-3.68-4.58"/>
      <path class="cls-4" d="m79.18,375.38s-.29-.11-.44-.15h-.07c-.47-.29-.73-.65-.73-1.09,0-.33.15-.69.4-1.13,0,0,0-.07.07-.15.65-1.02,2-2.33,3.89-3.86,1.2-.91,2.4-1.86,3.68-2.8.44-.29.84-.62,1.27-.91.25-.22.55-.4.8-.58.11-.11.25-.18.36-.29.4-.29.8-.58,1.24-.91.07-.04.11-.07.18-.15.8-.58,1.6-1.16,2.4-1.71,2.18-1.56,4.37-3.13,6.51-4.73.84-.58,1.67-1.2,2.51-1.86.36-.29.73-.55,1.13-.84l.18-.15c1.53-1.16,3.02-2.33,4.55-3.53,1.2-.95,2.4-1.93,3.6-2.87.22-.15.44-.33.65-.51,10.26-8.3,20.19-17.1,29.36-26.64.69-.73,1.38-1.46,2.07-2.18s1.38-1.46,2.04-2.22c8.81-9.61,16.85-19.98,23.72-31.26,2-3.6,4.18-7.42,6.19-11.39.04-.11.11-.18.15-.25,4.33-8.51,8.01-17.68,8.37-26.67v-.07c.18-5.13-.73-10.19-3.2-15.06-.58-1.09-1.2-2.15-1.93-3.24-2.11-2.98-4.48-5.75-6.99-8.41"/>
      <path class="cls-4" d="m80.27,375.67s-.29-.04-.44-.11"/>
      <path class="cls-4" d="m141.69,374.25c-4.48-.87-9.17-1.02-13.83-.95-3.42,0-6.8.15-10.04.15h-.8c-4.69.15-9.9.62-14.92,1.09-6.44.58-12.55,1.24-16.85,1.35-1.24,0-2.44.07-3.6-.04-.4,0-.8-.07-1.2-.15"/>
      <path class="cls-4" d="m320.49,493.96c-1.96-1.27-3.89-2.55-5.79-3.86-4.77-3.24-9.39-6.51-13.97-9.53-.91-.62-1.82-1.2-2.77-1.82-.91-.58-1.82-1.2-2.77-1.75-1.82-1.13-3.68-2.22-5.53-3.27-1.16-.65-2.33-1.27-3.49-1.86-.62-.29-1.24-.62-1.86-.91-2.95-1.42-5.93-2.62-8.99-3.6-2.51-.73-5.06-1.31-7.6-1.78-.07,0-.15,0-.22-.04-12.3-2.29-24.89-2-37.33.18-.73.15-1.46.25-2.18.4-14.15,2.73-28.05,7.79-41.12,14.08-1.78.87-3.53,1.75-5.28,2.66-2.18,1.13-5.06,2.69-7.93,4.04-.15.07-.29.15-.44.18-1.89.87-3.71,1.6-5.31,2.04-.65.15-1.24.29-1.78.36-.58.07-1.09.07-1.53,0h-.15c-.47-.04-.87-.22-1.2-.47,0,0-.07,0-.11-.07-.18-.15-.36-.33-.55-.58-.51-.69-.84-1.71-.98-2.95-.25-1.93-.11-4.37.22-7.1v-.22c.55-4.26,1.56-9.13,2.44-13.5.07-.36.15-.73.18-1.06.65-3.31,1.2-6.26,1.27-8.37.29-2.04.51-4.04.73-6.11l.11-.98c.07-.84.15-1.64.22-2.47.11-1.06.18-2.15.25-3.2.07-1.06.15-2.11.18-3.2.07-1.06.11-2.15.15-3.2.11-3.38.15-6.8.07-10.19,0-1.27-.07-2.51-.15-3.78-.15-2.58-.33-5.46-.65-8.41-.07-.65-.15-1.35-.22-2-.15-1.13-.29-2.26-.47-3.42,0-.18,0-.4-.07-.58-.33-2.22-.73-4.44-1.24-6.66-.18-.84-.36-1.64-.58-2.44-.15-.51-.25-.98-.4-1.49-.15-.47-.29-.98-.44-1.46-.87-2.8-1.86-5.46-3.09-7.86-.04-.07-.07-.18-.15-.25-1.67-3.27-3.78-6.11-6.33-8.11-.55-.4-1.09-.8-1.64-1.13-3.02-1.93-6.4-3.13-9.93-3.89"/>
      <path class="cls-4" d="m366.01,524.6c-.44-.25-.87-.55-1.35-.84-1.24-.8-2.51-1.67-3.86-2.62-.95-.65-1.89-1.35-2.87-2.04-1.16-.84-2.37-1.67-3.57-2.55-1.06-.73-2.07-1.49-3.13-2.22h0c-.55-.36-1.06-.73-1.6-1.09-2.11-1.46-4.22-2.91-6.37-4.37l-2.73-1.78c-5.42-3.6-14.59-9.57-20.05-13.14"/>
      <path class="cls-4" d="m426.05,450.48c-6.66,5.89-12.81,12.41-18.23,19.43-.07.07-.15.15-.18.25-3.78,4.91-7.2,10.04-10.15,15.36-1.27,2.26-2.44,4.55-3.53,6.88-1.2,2.51-2.33,5.24-3.31,8.01-.11.25-.18.51-.25.73-1.16,3.31-2.22,6.7-3.2,9.86-.04.15-.11.29-.15.44-.8,2.58-1.56,5.02-2.33,7.13-.73,1.96-1.49,3.71-2.33,5.13-1.6,2.73-3.42,4.33-5.82,4.62-.36,0-.73.04-1.09,0h-.69c-.29,0-.58-.07-.91-.15-.29-.04-.62-.15-.91-.22s-.62-.18-.91-.29c-1.78-.58-3.78-1.64-5.97-2.98"/>
      <path class="cls-4" d="m476.01,424.65c-8.44,1.06-16.85,3.71-25.03,8.04-2.11,1.09-4.22,2.33-6.29,3.68-5.93,3.78-11.68,8.08-17.14,12.84"/>
      <path class="cls-4" d="m566.79,385.79c-1.53,12.37-2.07,25.22-1.64,38.39.18,6.19.62,12.44,1.24,18.74v.18c0,.69.07,1.38.07,2.04.07,1.67.04,3.27-.07,4.66-.04.65-.11,1.31-.25,1.89,0,.25-.07.51-.15.73-.58,2.47-1.78,4-3.97,4.04-1.71.07-4.04-.73-7.13-2.66-.25-.15-.47-.29-.73-.47-2.84-1.82-5.86-3.82-8.99-5.89-4.44-2.95-9.13-5.97-13.83-8.7-.65-.36-1.31-.73-1.93-1.09-1.89-1.06-3.75-2.07-5.6-2.98-.51-.25-.98-.47-1.49-.73-.25-.15-.55-.29-.8-.4-6.95-3.53-13.94-6.08-20.89-7.6-.18-.04-.36-.11-.55-.15-7.64-1.64-15.25-2.07-22.81-1.27"/>
    </g>
  </g>
  <g>
    <g>
      <path class="cls-2" d="m482.81,268c3.89.44,9.53,4.66,5.89,8.59-3.13,3.53-11.64,6.33-18.96,7.46-2.47.36-4.66,1.49-5.31,3.93-5.64,17.43-25.98,36.53-43.01,39.66-4.77.95-9.53-.44-14.48-.91-16.26-.95-29.11-8.66-33.73-22.27-5.46-14.48-1.16-42.21,13.94-49.23,2.4-.76,4.73-1.2,2.95-4.18-3.64-6.62-6.11-14.55-6.48-23.58-.07-2.44.29-5.49,2.69-6.59,1.75-.8,3.93-.15,4.77,1.53,1.13,2.18.8,4.88,1.2,7.28,1.75,11.79,8.15,21.87,18.34,29.18,20.05,14.63,47.88,15.25,71.83,9.1h.29l.07.04Zm-29.55,18.85c.22-.76.18-1.42-.07-1.93h0s-.07-.22-.15-.33c-.18-.25-.44-.44-.76-.58-.07-.04-.18-.11-.25-.15-.15-.07-.29-.15-.44-.15-.11-.04-.25-.07-.36-.11-.51-.15-1.06-.18-1.53-.25-2.4-.25-4.77-.58-7.17-.98-1.78-.29-3.57-.65-5.35-1.06-.58-.15-1.2-.25-1.78-.4-2.95-.69-5.86-1.53-8.73-2.47-3.42-1.16-6.77-2.51-10.01-4.04-6.95-3.38-13.28-7.71-18.52-13.1-.4-.47-.84-.91-1.35-1.2,0,0-.07-.07-.11-.07-.51-.4-1.06-.69-1.64-.8h-.22c-.4-.07-.8,0-1.2.11h-.11c-.44.11-.91.33-1.35.69-5.13,3.57-9.02,8.81-11.35,14.59-.18.44-.36.91-.55,1.38-1.2,3.17-1.93,6.48-2.11,9.79-.4,4.18.25,8.37,1.75,12.12,0,.11.07.18.11.29,2.04,5.46,5.89,10.15,11.75,13.17.29.15.58.33.91.47.62.29,1.24.58,1.89.84h.11c1.31.58,2.66,1.09,4.04,1.49.33.11.69.22,1.06.29.07,0,.18.07.25.07.58.15,1.2.33,1.82.44.11,0,.18.07.29.07.62.15,1.27.25,1.89.36h.18c.69.15,1.38.22,2.11.29.18,0,.36.04.55.04,6.48.58,13.17-.33,19.21-2.62,3.71-1.35,7.35-3.24,10.7-5.53.33-.22.62-.44.95-.65.44-.29.84-.58,1.24-.91.44-.33.87-.65,1.27-1.02,1.6-1.31,3.13-2.69,4.48-4.22.4-.4.73-.8,1.09-1.24.33-.4.65-.8.98-1.2.55-.69,1.09-1.38,1.56-2.07.22-.29.44-.58.62-.91l.33-.55c.22-.33.44-.65.62-.98.29-.44.55-.91.8-1.35.44-.73.8-1.49,1.16-2.26,0-.04,0-.11.07-.15.58-1.06,1.13-2.18,1.31-3.27v-.04.07Z"/>
      <path class="cls-3" d="m453.19,284.92c.18.62.18,1.27.07,1.93v.04c-.04.22-.15.44-.25.69-.33.87-.69,1.71-1.06,2.58,0,0-.04.07-.07.15-.44.8-.87,1.56-1.16,2.26-.25.47-.51.91-.8,1.35-.18.33-.4.65-.62.98l-.33.55c-.22.29-.44.58-.62.91-.29.4-.58.8-.87,1.2-.22.29-.44.58-.69.91-.33.4-.65.8-.98,1.2-.36.44-.73.84-1.09,1.24-1.38,1.49-2.91,2.91-4.48,4.22-.44.33-.84.69-1.27,1.02-.4.33-.84.62-1.24.91-.29.22-.62.44-.95.65-8.84,5.97-19.72,9.02-29.87,8.15-.18,0-.36,0-.55-.04-.73-.07-1.42-.15-2.11-.29h-.18c-.62-.11-1.27-.22-1.89-.36-.11,0-.18,0-.29-.07-.58-.15-1.2-.29-1.82-.44-.07,0-.18-.04-.25-.07-.33-.07-.69-.18-1.06-.29-1.06-.33-2.11-.73-3.17-1.2-.29-.11-.58-.22-.87-.33h-.11c-.22-.11-.44-.18-.69-.29l-.29-.15c-.29-.15-.62-.29-.91-.4-.29-.15-.58-.29-.91-.47-5.35-2.91-9.46-7.64-11.75-13.17-.04-.11-.11-.18-.11-.29-2.47-6.8-2.22-14.74.36-21.9.15-.47.33-.95.55-1.38,2.44-5.79,6.37-10.95,11.35-14.55.4-.29.87-.55,1.35-.73h.11c1.06-.25,2.11.04,3.06.69.04,0,.07.04.11.07.33.25.62.55.91.84,4.88,5.13,10.77,9.35,17.28,12.66.55.29,1.09.58,1.67.8,3.2,1.6,6.55,2.91,10.01,4.04,2.84.98,5.79,1.78,8.73,2.47.58.15,1.2.29,1.78.4,1.78.4,3.57.73,5.35,1.06,2.69.47,5.42.84,8.11,1.13.22,0,.4.04.58.11.15,0,.25.04.36.11.15.04.29.11.44.15.07,0,.18.07.25.15.4.22.73.55.91.91h0l-.04-.07Z"/>
      <path class="cls-2" d="m453.01,287.58c.11-.25.18-.47.25-.69-.18,1.09-.73,2.22-1.31,3.27.4-.87.73-1.71,1.06-2.58Z"/>
      <path class="cls-2" d="m453.05,284.6s.07.22.15.33c-.18-.36-.47-.69-.91-.91.33.15.58.33.76.58Z"/>
      <path class="cls-2" d="m451.23,283.61s-.36-.07-.58-.11c-2.69-.29-5.42-.65-8.11-1.13,2.4.4,4.8.73,7.17.98.44.04,1.02.11,1.53.25Z"/>
      <path class="cls-2" d="m449.3,294.93c.22-.33.44-.65.62-.98-.18.33-.4.65-.62.98Z"/>
      <path class="cls-2" d="m448.32,296.35c.22-.29.44-.58.62-.91-.18.29-.4.58-.62.91Z"/>
      <path class="cls-2" d="m447.44,297.55c.29-.4.58-.76.87-1.2-.47.73-1.02,1.42-1.56,2.07.25-.29.47-.58.69-.91v.04Z"/>
      <path class="cls-2" d="m442.5,282.41c-1.78-.29-3.57-.62-5.35-1.06,1.78.4,3.57.73,5.35,1.06Z"/>
      <path class="cls-2" d="m436.71,307.7c.29-.22.62-.44.95-.65-.29.22-.62.44-.95.65Z"/>
      <path class="cls-2" d="m435.36,280.96c.58.15,1.2.29,1.78.4-.58-.11-1.2-.25-1.78-.4Z"/>
      <path class="cls-2" d="m435.36,280.96c-2.95-.69-5.86-1.49-8.73-2.47,2.84.95,5.79,1.78,8.73,2.47Z"/>
      <path class="cls-2" d="m436.71,307.7c-3.35,2.29-6.95,4.18-10.7,5.53-6.04,2.29-12.74,3.2-19.21,2.62,10.15.87,21.03-2.18,29.87-8.15h.04Z"/>
      <path class="cls-2" d="m416.66,274.41c3.2,1.53,6.55,2.87,10.01,4.04-3.42-1.13-6.77-2.47-10.01-4.04Z"/>
      <path class="cls-2" d="m416.66,274.41c-.58-.25-1.13-.51-1.67-.8-6.48-3.31-12.37-7.53-17.28-12.66-.29-.29-.58-.58-.91-.84.47.33.91.73,1.35,1.2,5.24,5.39,11.57,9.72,18.52,13.1Z"/>
      <path class="cls-2" d="m395.56,313.09c1.06.44,2.07.84,3.17,1.2-1.38-.4-2.73-.91-4.04-1.49.29.11.58.22.87.33v-.04Z"/>
      <path class="cls-2" d="m392.17,260.07c.44-.33.91-.58,1.35-.69-.47.15-.95.44-1.35.73-4.98,3.57-8.91,8.77-11.35,14.55,2.33-5.79,6.22-10.99,11.35-14.59Z"/>
      <path class="cls-2" d="m380.06,298.24c2.26,5.53,6.4,10.3,11.75,13.17-5.86-3.02-9.68-7.75-11.75-13.17Z"/>
      <path class="cls-3" d="m342.32,289.29c.33,2.69.25,5.39-.18,8.08-1.56,8.44-6.66,16.63-13.46,22.89-.25.25-.51.47-.76.69-.36.33-.76.65-1.16.98-7.2,5.82-16.12,9.64-24.89,9.86h-.69c-2.55-.07-5.06-.47-7.5-1.31h-.15c-2.87-1.06-5.86-2.66-8.66-4.95-.29-.25-.58-.51-.91-.8-2.37-2.22-4.58-4.95-6.55-8.3-.22-.4-.47-.84-.69-1.24-.11-.22-.22-.44-.33-.62-.36-.84-.8-1.67-1.24-2.58-.11-.22-.22-.44-.29-.62h0c-.51-1.31-1.09-2.47-1.46-3.6,0-.11-.07-.18-.07-.29-.29-1.27-.29-2.47.25-3.6v-.07c.22-.36.51-.73.87-1.09,2.15-1.75,4.29-3.57,6.37-5.42.11-.11.22-.22.33-.29,4.4-3.97,8.62-8.26,12.41-12.84.55-.62,1.06-1.27,1.56-1.93.15-.15.29-.33.44-.51s.33-.4.47-.58c.36-.47.73-.95,1.09-1.42.55-.69,1.09-1.42,1.6-2.15.44-.58.84-1.13,1.2-1.71,1.53-2.22,2.95-4.48,4.26-6.73.36-.62.73-1.24,1.06-1.86.11-.18.22-.36.29-.55.07-.15.15-.29.25-.4.11-.15.18-.33.29-.47l.33-.44.29-.29c.11-.11.22-.18.33-.29.4-.25.8-.44,1.27-.51,1.64.22,3.27.51,4.84.87.07,0,.15,0,.18.04,5.68,1.53,11.53,3.64,16.56,6.73,4.66,3.02,8.37,6.77,10.59,11.13v.04c.87,1.86,1.53,3.89,1.86,6.11v.04Z"/>
      <path class="cls-2" d="m333.44,262.07c33.55,22.09,20.09,76.85-18.34,79.54-11.64.87-21.07-.58-31.04-8.84-6.84-5.53-13.24-12.55-16.26-20.45-.91-2.95-2.84-3.17-5.35-1.6-6.55,3.82-13.28,6.84-19.39,8.48-2.47.69-3.13-.29-1.86-2.62,5.53-10.66,18.16-20.09,29.47-28.78,18.05-13.94,36.02-28.53,33.48-52-.44-3.27-.84-7.9,2.84-9.13,3.6-1.42,6.44,2.15,6.7,5.49.73,6.04.04,12.23-1.46,18.27-.25,1.24-.73,2.87.15,3.86.65.73,1.96.87,3.06.98,6.84.29,13.17,2.26,17.79,6.66l.25.18-.04-.04Zm9.1,32.27c.4-4.04-.4-7.79-2.07-11.17v-.04c-2.22-4.73-6.04-8.33-10.59-11.13-4.77-3.09-10.44-5.39-16.56-6.73-.04,0-.11,0-.18-.04l-1.2-.33-.36-.11c-1.27-.44-2.37-.62-3.27-.44h-.15c-.44.07-.8.25-1.13.55-.15.07-.25.15-.33.29-.11.07-.18.18-.29.29-.15.15-.25.29-.33.44-.15.15-.22.29-.29.47-.11.15-.18.25-.25.4-.11.18-.22.36-.29.55-.33.62-.69,1.24-1.06,1.86-1.31,2.26-2.73,4.51-4.26,6.73-.4.58-.8,1.13-1.2,1.71-.51.73-1.06,1.46-1.6,2.15-.51.69-1.02,1.35-1.56,2-.15.18-.25.36-.44.51-.51.65-1.06,1.31-1.56,1.93-3.82,4.55-8.04,8.84-12.41,12.84-.11.11-.22.18-.33.29-1.71,1.53-3.46,2.98-5.24,4.4-.98.62-1.6,1.35-1.96,2.11v.07c-.65,1.16-.62,2.33-.25,3.6,0,.11.04.18.07.29.29,1.2.84,2.4,1.46,3.57h0c.07.22.18.44.29.62.36.84.8,1.71,1.24,2.58.11.22.22.44.33.62,1.93,3.93,4.48,7.1,7.24,9.53.29.29.58.55.91.8,2.69,2.33,5.64,3.93,8.66,4.95h.15c2.69.95,5.28,1.38,7.5,1.31h.11c8.84.25,18.01-3.68,25.47-9.86.4-.29.76-.62,1.16-.98.25-.22.51-.44.76-.69,6.99-6.26,12.08-14.41,13.46-22.89.18-.91.33-1.82.4-2.73v-.29l-.04-.04Z"/>
      <path class="cls-2" d="m329.84,272.01c4.55,2.8,8.37,6.4,10.59,11.13-2.22-4.37-5.93-8.11-10.59-11.13Z"/>
      <path class="cls-2" d="m328.64,320.25c6.84-6.26,11.9-14.45,13.46-22.89-1.42,8.48-6.51,16.67-13.46,22.89Z"/>
      <path class="cls-2" d="m311.9,264.87l1.2.33c-1.6-.36-3.2-.65-4.84-.87.91-.18,2,0,3.27.44l.36.11Z"/>
      <path class="cls-2" d="m306.66,265.13l-.29.29c.07-.11.18-.18.29-.29Z"/>
      <path class="cls-2" d="m306.37,265.38l-.33.44.33-.44Z"/>
      <path class="cls-2" d="m306.05,265.82s-.22.29-.29.47c.07-.15.18-.33.29-.47Z"/>
      <path class="cls-2" d="m301.17,331.79c-2.22.07-4.8-.36-7.5-1.31,2.44.84,4.95,1.24,7.5,1.31Z"/>
      <path class="cls-2" d="m299.9,275.83c1.53-2.22,2.95-4.48,4.26-6.73-1.31,2.29-2.69,4.55-4.26,6.73Z"/>
      <path class="cls-2" d="m298.7,277.54c.4-.58.8-1.13,1.2-1.71-.36.58-.76,1.13-1.2,1.71Z"/>
      <path class="cls-2" d="m275.55,301.66c1.78-1.42,3.53-2.87,5.24-4.4-2.07,1.89-4.18,3.71-6.37,5.42-.36.36-.65.73-.87,1.09.36-.76,1.02-1.49,1.96-2.11h.04Z"/>
      <path class="cls-2" d="m277.41,316.4c1.96,3.35,4.18,6.11,6.55,8.3-2.77-2.47-5.28-5.64-7.24-9.53.22.44.47.84.69,1.24Z"/>
      <path class="cls-2" d="m273.37,307.7c.36,1.13.91,2.29,1.46,3.57-.58-1.2-1.13-2.4-1.46-3.57Z"/>
    </g>
    <g>
      <path class="cls-5" d="m380.86,274.66c-.18.44-.36.91-.55,1.38-2.58,7.17-2.84,15.1-.36,21.9"/>
      <path class="cls-5" d="m396.68,260.03c-.95-.62-2-.95-3.06-.69"/>
      <path class="cls-5" d="m452.03,283.87s-.29-.11-.44-.15"/>
      <path class="cls-5" d="m453.27,286.85c.11-.65.11-1.31-.07-1.93"/>
      <path class="cls-5" d="m450.72,292.56c.29-.73.73-1.49,1.16-2.26"/>
      <path class="cls-5" d="m449.3,294.93c.22-.33.44-.65.62-.98"/>
      <path class="cls-5" d="m438.89,306.14c.44-.33.84-.65,1.27-1.02,1.6-1.31,3.09-2.73,4.48-4.22.36-.4.73-.8,1.09-1.24"/>
      <path class="cls-5" d="m404.18,315.56c.69.11,1.38.22,2.11.29"/>
      <path class="cls-5" d="m402.11,315.16c.62.15,1.27.25,1.89.36"/>
      <path class="cls-5" d="m400,314.69c.58.15,1.2.29,1.82.44"/>
      <path class="cls-5" d="m398.72,314.29c.33.15.69.22,1.06.29"/>
      <path class="cls-5" d="m392.68,311.89c.29.15.62.29.91.4l.29.15c.22.11.44.22.69.29"/>
      <path class="cls-5" d="m329.84,272.01c-4.98-3.09-10.88-5.2-16.56-6.73"/>
      <path class="cls-5" d="m342.14,297.37c.44-2.69.55-5.39.18-8.08-.33-2.22-.98-4.26-1.86-6.11"/>
      <path class="cls-5" d="m301.28,331.79h.58c8.77-.22,17.65-4.04,24.89-9.86.4-.33.8-.65,1.16-.98"/>
      <path class="cls-5" d="m293.64,330.48c2.69.95,5.28,1.38,7.5,1.31"/>
      <path class="cls-5" d="m284.83,325.49c2.8,2.29,5.79,3.93,8.66,4.95"/>
      <path class="cls-5" d="m275.12,311.92c.44.91.91,1.75,1.24,2.58"/>
      <path class="cls-5" d="m273.55,303.84c-.55,1.13-.55,2.33-.25,3.6"/>
      <path class="cls-5" d="m295.13,282.19c-.51.65-1.02,1.31-1.56,1.93-3.82,4.58-8.01,8.88-12.41,12.84"/>
      <path class="cls-5" d="m297.09,279.65c-.36.47-.73.95-1.09,1.42-.15.18-.29.4-.47.58"/>
      <path class="cls-5" d="m305.5,266.69s-.18.36-.29.55c-.33.62-.65,1.24-1.06,1.86"/>
      <path class="cls-5" d="m308.27,264.33c-.47.07-.91.25-1.27.51-.11.07-.22.15-.33.29"/>
      <path class="cls-5" d="m482.52,268c-23.91,6.15-51.78,5.49-71.83-9.1-10.19-7.31-16.63-17.39-18.34-29.18-.4-2.4-.07-5.09-1.2-7.28-.84-1.67-3.02-2.33-4.77-1.53-2.4,1.09-2.8,4.15-2.69,6.59.36,9.02,2.84,16.96,6.48,23.58,1.78,2.98-.55,3.42-2.95,4.18-15.06,7.02-19.39,34.75-13.94,49.23,4.62,13.57,17.47,21.32,33.73,22.27,4.95.44,9.68,1.86,14.48.91,17.03-3.13,37.37-22.23,43.01-39.66.62-2.44,2.84-3.57,5.31-3.93,7.28-1.13,15.83-3.93,18.96-7.46,3.64-3.93-2-8.15-5.89-8.59h-.29l-.07-.04Z"/>
      <path class="cls-5" d="m394.57,312.76c-.62-.25-1.27-.55-1.89-.84-.29-.15-.58-.29-.91-.47-5.35-2.91-9.46-7.64-11.75-13.17-.04-.11-.11-.18-.11-.29-1.49-3.75-2.15-7.9-1.75-12.12.18-3.31.91-6.62,2.11-9.79.15-.47.33-.95.55-1.38,2.44-5.79,6.37-10.95,11.35-14.55.4-.29.87-.55,1.35-.73h.11c.4-.15.8-.18,1.2-.15h.22c.58.15,1.13.44,1.64.84.04,0,.07.04.11.07.33.25.62.55.91.84,4.88,5.13,10.77,9.35,17.28,12.66.55.29,1.09.58,1.67.8,3.2,1.6,6.55,2.91,10.01,4.04,2.84.98,5.79,1.78,8.73,2.47.58.15,1.2.29,1.78.4,1.78.4,3.57.73,5.35,1.06,2.69.47,5.42.84,8.11,1.13.22,0,.4.04.58.11.15,0,.25.04.36.11.15,0,.29.07.44.15.07,0,.18.07.25.15.4.22.73.55.91.91h0c.25.55.29,1.2.07,1.93v.04c-.04.22-.15.44-.25.69-.33.87-.69,1.71-1.06,2.58,0,0-.04.07-.07.15-.36.76-.73,1.53-1.16,2.26-.25.47-.51.91-.8,1.35-.18.33-.4.65-.62.98l-.33.55c-.22.29-.44.58-.62.91-.29.4-.58.8-.87,1.2-.22.29-.44.58-.69.91-.33.4-.65.8-.98,1.2-.36.44-.73.84-1.09,1.24-1.38,1.53-2.87,2.95-4.48,4.22-.4.36-.84.69-1.27,1.02-.4.33-.84.62-1.24.91-.29.22-.62.44-.95.65-8.84,5.97-19.72,9.02-29.87,8.15-.18,0-.36,0-.55-.04-.73-.07-1.42-.15-2.11-.29h-.18c-.62-.11-1.27-.22-1.89-.36-.11,0-.18,0-.29-.07-.62-.11-1.2-.29-1.82-.44"/>
      <path class="cls-5" d="m399.74,314.58c-.33-.07-.69-.18-1.06-.29-1.06-.33-2.11-.73-3.17-1.2-.29-.11-.58-.22-.87-.33"/>
      <path class="cls-5" d="m333.19,261.89c-4.62-4.4-10.95-6.37-17.79-6.66-1.06-.11-2.4-.22-3.06-.98-.87-.98-.4-2.62-.15-3.86,1.49-6.04,2.18-12.23,1.46-18.27-.25-3.35-3.06-6.91-6.7-5.49-3.64,1.24-3.27,5.86-2.84,9.13,2.55,23.47-15.43,38.06-33.48,52-11.32,8.7-23.91,18.16-29.47,28.78-1.27,2.33-.58,3.31,1.86,2.62,6.11-1.64,12.84-4.66,19.39-8.48,2.51-1.56,4.4-1.35,5.35,1.6,3.02,7.9,9.42,14.92,16.26,20.45,9.93,8.26,19.39,9.72,31.04,8.84,38.42-2.69,51.89-57.49,18.34-79.54l-.25-.18.04.04Z"/>
      <path class="cls-5" d="m273.3,307.45c-.36-1.27-.44-2.44.25-3.6v-.07c.22-.36.51-.73.87-1.09,2.15-1.75,4.29-3.57,6.37-5.42.11-.11.22-.22.33-.29,4.4-4,8.59-8.3,12.41-12.84.55-.62,1.06-1.27,1.56-1.93.15-.15.29-.33.44-.51.55-.65,1.06-1.35,1.56-2,.55-.69,1.09-1.42,1.6-2.15.44-.58.84-1.13,1.2-1.71,1.53-2.22,2.95-4.48,4.26-6.73.36-.62.69-1.24,1.06-1.86.11-.18.18-.36.29-.55.07-.15.15-.29.25-.4.11-.15.18-.33.29-.47l.33-.44.29-.29c.11-.11.22-.22.33-.29.33-.29.69-.44,1.13-.55h.15c1.64.22,3.27.51,4.84.87.07,0,.15,0,.18.04,6.08,1.38,11.79,3.68,16.56,6.73,4.66,3.02,8.37,6.77,10.59,11.13v.04c1.67,3.38,2.47,7.13,2.07,11.17v.29c-.11.91-.22,1.82-.44,2.73-1.56,8.44-6.66,16.63-13.46,22.89-.25.25-.51.47-.76.69-.4.36-.76.69-1.16.98-7.46,6.19-16.59,10.12-25.47,9.86"/>
      <path class="cls-5" d="m274.83,311.3c-.51-1.31-1.09-2.47-1.46-3.57"/>
      <path class="cls-5" d="m276.39,314.51c-.44-.87-.91-1.75-1.24-2.58"/>
      <path class="cls-5" d="m293.53,330.44c-3.06-1.02-5.97-2.66-8.66-4.95-.29-.25-.58-.51-.91-.8-2.37-2.22-4.58-4.95-6.55-8.3-.22-.4-.47-.84-.69-1.24"/>
      <path class="cls-5" d="m301.17,331.79c-2.55-.07-5.06-.47-7.5-1.31"/>
    </g>
  </g>
  <g>
    <path class="cls-2" d="m434.42,277.61l-.11-.11c-4.4-3.6-9.82-2.77-16.05-5.17-4.66-1.71-9.72-4.84-14.3-7.39-3.53-2.04-7.02-4.73-10.92-5.49-7.02-1.2-10.41,4.69-12.37,12.48-1.38,6.48.11,13.5,3.2,19.32,8.01,15.9,28.2,20.3,42.03,9.1,6.11-4.55,13.97-16.37,8.51-22.78v.04Z"/>
    <path class="cls-2" d="m306.77,264.76l-.22.07c-4.77,1.38-9.24,6.22-14.3,11.28-5.64,6.11-12.84,11.83-17.17,18.41-4.98,7.6.4,15.83,7.02,20.19,13.1,10.22,48.83,8.19,52.62-11.17,2.26-12.04-4.77-24.67-13.24-33.11-4.95-4.69-9.57-7.02-14.66-5.71l-.04.04Z"/>
  </g>
</svg>